G04 #@! TF.GenerationSoftware,KiCad,Pcbnew,(5.0.2-4-gb601aea34)*
G04 #@! TF.CreationDate,2019-09-30T13:15:35-05:00*
G04 #@! TF.ProjectId,mic switch,6d696320-7377-4697-9463-682e6b696361,rev?*
G04 #@! TF.SameCoordinates,Original*
G04 #@! TF.FileFunction,Copper,L1,Top*
G04 #@! TF.FilePolarity,Positive*
%FSLAX46Y46*%
G04 Gerber Fmt 4.6, Leading zero omitted, Abs format (unit mm)*
G04 Created by KiCad (PCBNEW (5.0.2-4-gb601aea34)) date Monday, September 30, 2019 at 01:15:35 PM*
%MOMM*%
%LPD*%
G01*
G04 APERTURE LIST*
G04 #@! TA.AperFunction,SMDPad,CuDef*
%ADD10R,0.522000X0.725000*%
G04 #@! TD*
G04 #@! TA.AperFunction,SMDPad,CuDef*
%ADD11C,0.250000*%
G04 #@! TD*
G04 #@! TA.AperFunction,Conductor*
%ADD12C,0.100000*%
G04 #@! TD*
G04 #@! TA.AperFunction,SMDPad,CuDef*
%ADD13R,2.540000X1.270000*%
G04 #@! TD*
G04 #@! TA.AperFunction,SMDPad,CuDef*
%ADD14R,1.549400X1.092200*%
G04 #@! TD*
G04 #@! TA.AperFunction,SMDPad,CuDef*
%ADD15R,0.711200X1.701800*%
G04 #@! TD*
G04 #@! TA.AperFunction,SMDPad,CuDef*
%ADD16R,1.000000X1.250000*%
G04 #@! TD*
G04 #@! TA.AperFunction,SMDPad,CuDef*
%ADD17R,1.250000X1.000000*%
G04 #@! TD*
G04 #@! TA.AperFunction,SMDPad,CuDef*
%ADD18R,0.700000X1.300000*%
G04 #@! TD*
G04 #@! TA.AperFunction,SMDPad,CuDef*
%ADD19R,1.300000X0.700000*%
G04 #@! TD*
G04 #@! TA.AperFunction,SMDPad,CuDef*
%ADD20R,5.000000X3.000000*%
G04 #@! TD*
G04 #@! TA.AperFunction,ViaPad*
%ADD21C,0.685800*%
G04 #@! TD*
G04 #@! TA.AperFunction,Conductor*
%ADD22C,0.457200*%
G04 #@! TD*
G04 #@! TA.AperFunction,Conductor*
%ADD23C,0.254000*%
G04 #@! TD*
G04 APERTURE END LIST*
D10*
G04 #@! TO.P,M1,1*
G04 #@! TO.N,Net-(C1-Pad2)*
X138838000Y-93142500D03*
G04 #@! TO.P,M1,2*
G04 #@! TO.N,GND*
X138016000Y-93142500D03*
G04 #@! TO.P,M1,4*
X138016000Y-94817500D03*
G04 #@! TO.P,M1,5*
G04 #@! TO.N,Net-(M1-Pad5)*
X138838000Y-94817500D03*
D11*
G04 #@! TO.P,M1,3*
G04 #@! TO.N,GND*
X137414000Y-93980000D03*
D12*
G04 #@! TD*
G04 #@! TO.N,GND*
G04 #@! TO.C,M1*
G36*
X137574105Y-94042334D02*
X137564156Y-94121089D01*
X137546570Y-94198497D01*
X137521513Y-94273820D01*
X137489226Y-94346338D01*
X137450016Y-94415359D01*
X137404259Y-94480225D01*
X137352390Y-94540316D01*
X137294904Y-94595058D01*
X137232351Y-94643930D01*
X137165328Y-94686465D01*
X137094474Y-94722256D01*
X137020465Y-94750962D01*
X136944008Y-94772309D01*
X136865833Y-94786093D01*
X136786686Y-94792183D01*
X136764000Y-94792500D01*
X136684714Y-94788622D01*
X136606185Y-94777026D01*
X136529162Y-94757822D01*
X136454380Y-94731194D01*
X136382554Y-94697395D01*
X136314369Y-94656749D01*
X136250476Y-94609642D01*
X136191485Y-94556526D01*
X136137958Y-94497907D01*
X136090407Y-94434344D01*
X136049286Y-94366445D01*
X136014986Y-94294856D01*
X135987836Y-94220263D01*
X135968095Y-94143376D01*
X135955951Y-94064929D01*
X135951520Y-93985672D01*
X135954844Y-93906361D01*
X135965892Y-93827753D01*
X135984557Y-93750598D01*
X136010663Y-93675632D01*
X136043960Y-93603572D01*
X136084129Y-93535105D01*
X136130788Y-93470884D01*
X136183491Y-93411524D01*
X136241735Y-93357589D01*
X136304964Y-93309595D01*
X136372575Y-93268001D01*
X136443922Y-93233203D01*
X136518324Y-93205533D01*
X136595072Y-93185255D01*
X136673431Y-93172564D01*
X136752656Y-93167579D01*
X136771156Y-93168225D01*
X136771156Y-93467550D01*
X136721115Y-93469297D01*
X136671484Y-93475920D01*
X136622736Y-93487353D01*
X136575336Y-93503490D01*
X136529737Y-93524174D01*
X136486375Y-93549210D01*
X136445662Y-93578357D01*
X136407988Y-93611338D01*
X136373712Y-93647839D01*
X136343161Y-93687509D01*
X136316627Y-93729972D01*
X136294364Y-93774821D01*
X136276584Y-93821629D01*
X136263455Y-93869948D01*
X136255105Y-93919318D01*
X136251612Y-93969267D01*
X136253010Y-94019319D01*
X136259286Y-94068995D01*
X136270379Y-94117821D01*
X136286184Y-94165333D01*
X136306550Y-94211075D01*
X136331282Y-94254611D01*
X136360144Y-94295527D01*
X136392862Y-94333430D01*
X136429122Y-94367960D01*
X136468578Y-94398787D01*
X136510855Y-94425616D01*
X136555547Y-94448192D01*
X136602230Y-94466299D01*
X136650456Y-94479764D01*
X136699767Y-94488459D01*
X136749690Y-94492300D01*
X136764000Y-94492500D01*
X136814011Y-94490054D01*
X136863545Y-94482740D01*
X136912129Y-94470626D01*
X136959299Y-94453830D01*
X137004604Y-94432511D01*
X137047613Y-94406872D01*
X137087915Y-94377159D01*
X137125125Y-94343655D01*
X137158888Y-94306680D01*
X137188882Y-94266586D01*
X137214820Y-94223757D01*
X137236455Y-94178602D01*
X137253580Y-94131550D01*
X137266032Y-94083052D01*
X137273692Y-94033571D01*
X137276488Y-93983578D01*
X137274391Y-93933551D01*
X137267422Y-93883967D01*
X137255648Y-93835300D01*
X137239182Y-93788014D01*
X137218179Y-93742561D01*
X137192842Y-93699374D01*
X137163411Y-93658866D01*
X137130167Y-93621423D01*
X137093429Y-93587402D01*
X137053546Y-93557129D01*
X137010899Y-93530893D01*
X136965895Y-93508943D01*
X136918965Y-93491490D01*
X136870555Y-93478699D01*
X136821128Y-93470694D01*
X136771156Y-93467550D01*
X136771156Y-93168225D01*
X136831988Y-93170350D01*
X136910672Y-93180848D01*
X136987955Y-93198975D01*
X137063101Y-93224557D01*
X137135392Y-93257349D01*
X137204138Y-93297040D01*
X137268683Y-93343249D01*
X137328410Y-93395536D01*
X137382750Y-93453403D01*
X137431184Y-93516295D01*
X137473249Y-93583614D01*
X137508545Y-93654716D01*
X137536733Y-93728924D01*
X137557546Y-93805528D01*
X137570784Y-93883797D01*
X137576322Y-93962984D01*
X137574105Y-94042334D01*
X137574105Y-94042334D01*
G37*
D13*
G04 #@! TO.P,J2,2*
G04 #@! TO.N,Net-(C1-Pad2)*
X142240000Y-91948000D03*
G04 #@! TO.P,J2,1*
G04 #@! TO.N,GND*
X142240000Y-94488000D03*
G04 #@! TD*
D14*
G04 #@! TO.P,SW1,4*
G04 #@! TO.N,GND*
X144983200Y-89789000D03*
D15*
G04 #@! TO.P,SW1,1*
G04 #@! TO.N,Net-(C1-Pad1)*
X146685000Y-91732100D03*
G04 #@! TO.P,SW1,2*
G04 #@! TO.N,GND*
X149225000Y-91732100D03*
G04 #@! TO.P,SW1,3*
G04 #@! TO.N,N/C*
X151765000Y-91732100D03*
D14*
G04 #@! TO.P,SW1,4*
G04 #@! TO.N,GND*
X144983200Y-85979000D03*
X154736800Y-89789000D03*
X154736800Y-85979000D03*
G04 #@! TD*
D16*
G04 #@! TO.P,C1,2*
G04 #@! TO.N,Net-(C1-Pad2)*
X139954000Y-89662000D03*
G04 #@! TO.P,C1,1*
G04 #@! TO.N,Net-(C1-Pad1)*
X141954000Y-89662000D03*
G04 #@! TD*
D17*
G04 #@! TO.P,C2,1*
G04 #@! TO.N,Net-(C1-Pad1)*
X158496000Y-90916000D03*
G04 #@! TO.P,C2,2*
G04 #@! TO.N,GND*
X158496000Y-88916000D03*
G04 #@! TD*
D18*
G04 #@! TO.P,R1,2*
G04 #@! TO.N,GND*
X135768000Y-89662000D03*
G04 #@! TO.P,R1,1*
G04 #@! TO.N,Net-(C1-Pad2)*
X137668000Y-89662000D03*
G04 #@! TD*
D19*
G04 #@! TO.P,R2,1*
G04 #@! TO.N,Net-(C1-Pad1)*
X160528000Y-90866000D03*
G04 #@! TO.P,R2,2*
G04 #@! TO.N,GND*
X160528000Y-88966000D03*
G04 #@! TD*
G04 #@! TO.P,R3,2*
G04 #@! TO.N,Net-(M1-Pad5)*
X138684000Y-96840000D03*
G04 #@! TO.P,R3,1*
G04 #@! TO.N,+5V*
X138684000Y-98740000D03*
G04 #@! TD*
D20*
G04 #@! TO.P,J1,3*
G04 #@! TO.N,Net-(C1-Pad1)*
X164592000Y-90734000D03*
G04 #@! TO.P,J1,2*
G04 #@! TO.N,+5V*
X164592000Y-94234000D03*
G04 #@! TO.P,J1,1*
G04 #@! TO.N,GND*
X164592000Y-97734000D03*
G04 #@! TD*
D19*
G04 #@! TO.P,R4,2*
G04 #@! TO.N,Net-(C1-Pad2)*
X140716000Y-96840000D03*
G04 #@! TO.P,R4,1*
G04 #@! TO.N,+5V*
X140716000Y-98740000D03*
G04 #@! TD*
D21*
G04 #@! TO.N,GND*
X169926000Y-94234000D03*
G04 #@! TD*
D22*
G04 #@! TO.N,Net-(C1-Pad2)*
X139954000Y-89662000D02*
X137668000Y-89662000D01*
X139556200Y-93142500D02*
X139954000Y-93540300D01*
X138838000Y-93142500D02*
X139556200Y-93142500D01*
X140716000Y-96032800D02*
X140716000Y-96840000D01*
X139954000Y-95270800D02*
X140716000Y-96032800D01*
X139954000Y-93540300D02*
X139954000Y-95270800D01*
X140512800Y-91948000D02*
X139954000Y-92506800D01*
X142240000Y-91948000D02*
X140512800Y-91948000D01*
X139954000Y-93218000D02*
X139954000Y-93540300D01*
X139954000Y-89662000D02*
X139954000Y-92710000D01*
X139954000Y-92710000D02*
X139954000Y-93218000D01*
X139954000Y-92506800D02*
X139954000Y-92710000D01*
G04 #@! TO.N,Net-(C1-Pad1)*
X160660000Y-90734000D02*
X160528000Y-90866000D01*
X164592000Y-90734000D02*
X160660000Y-90734000D01*
X157413800Y-90916000D02*
X158496000Y-90916000D01*
X156972000Y-90474200D02*
X157413800Y-90916000D01*
X156972000Y-88900000D02*
X156972000Y-90474200D01*
X141954000Y-88579800D02*
X143157800Y-87376000D01*
X155448000Y-87376000D02*
X156972000Y-88900000D01*
X141954000Y-89662000D02*
X141954000Y-88579800D01*
X146685000Y-87503000D02*
X146558000Y-87376000D01*
X146558000Y-87376000D02*
X155448000Y-87376000D01*
X146685000Y-91732100D02*
X146685000Y-87503000D01*
X143157800Y-87376000D02*
X146558000Y-87376000D01*
X158546000Y-90866000D02*
X158496000Y-90916000D01*
X160528000Y-90866000D02*
X158546000Y-90866000D01*
G04 #@! TO.N,Net-(M1-Pad5)*
X138838000Y-96686000D02*
X138684000Y-96840000D01*
X138838000Y-94817500D02*
X138838000Y-96686000D01*
G04 #@! TO.N,GND*
X138016000Y-93142500D02*
X138016000Y-94817500D01*
X137998200Y-93980000D02*
X137545001Y-93980000D01*
X138016000Y-93962200D02*
X137998200Y-93980000D01*
X138016000Y-93142500D02*
X138016000Y-93962200D01*
G04 #@! TO.N,+5V*
X140716000Y-98740000D02*
X138684000Y-98740000D01*
X161634800Y-94234000D02*
X159602800Y-92202000D01*
X164592000Y-94234000D02*
X161634800Y-94234000D01*
X159602800Y-92202000D02*
X154686000Y-92202000D01*
X154686000Y-92202000D02*
X152400000Y-89916000D01*
X152400000Y-89916000D02*
X148590000Y-89916000D01*
X148590000Y-89916000D02*
X147828000Y-90678000D01*
X147828000Y-90678000D02*
X147828000Y-96012000D01*
X145100000Y-98740000D02*
X140716000Y-98740000D01*
X147828000Y-96012000D02*
X145100000Y-98740000D01*
G04 #@! TD*
D23*
G04 #@! TO.N,GND*
G36*
X143573500Y-85306591D02*
X143573500Y-85693250D01*
X143732250Y-85852000D01*
X144856200Y-85852000D01*
X144856200Y-85832000D01*
X145110200Y-85832000D01*
X145110200Y-85852000D01*
X146234150Y-85852000D01*
X146392900Y-85693250D01*
X146392900Y-85306591D01*
X146379676Y-85274666D01*
X153340324Y-85274666D01*
X153327100Y-85306591D01*
X153327100Y-85693250D01*
X153485850Y-85852000D01*
X154609800Y-85852000D01*
X154609800Y-85832000D01*
X154863800Y-85832000D01*
X154863800Y-85852000D01*
X155987750Y-85852000D01*
X156146500Y-85693250D01*
X156146500Y-85306591D01*
X156133276Y-85274666D01*
X175517707Y-85274666D01*
X175615024Y-85274750D01*
X175724364Y-85275998D01*
X175843271Y-85280003D01*
X175970104Y-85288265D01*
X176102355Y-85302154D01*
X176236946Y-85322847D01*
X176370670Y-85351257D01*
X176500405Y-85387987D01*
X176623649Y-85433424D01*
X176742257Y-85489408D01*
X176859923Y-85558135D01*
X176976177Y-85639577D01*
X177088465Y-85732260D01*
X177194433Y-85834406D01*
X177291901Y-85943946D01*
X177378949Y-86058612D01*
X177453927Y-86175907D01*
X177515853Y-86293764D01*
X177566012Y-86414275D01*
X177606837Y-86541027D01*
X177639191Y-86673233D01*
X177663492Y-86807804D01*
X177680515Y-86941570D01*
X177691318Y-87071382D01*
X177697185Y-87194349D01*
X177699564Y-87308423D01*
X177700000Y-87411912D01*
X177700000Y-90510628D01*
X177700001Y-91415911D01*
X177700000Y-91415915D01*
X177700001Y-92410669D01*
X177700000Y-92410673D01*
X177700001Y-93459108D01*
X177700000Y-93459112D01*
X177700001Y-94525442D01*
X177700000Y-94525446D01*
X177700001Y-95573882D01*
X177700000Y-95573886D01*
X177700001Y-96568640D01*
X177700000Y-96568644D01*
X177700001Y-97473927D01*
X177700000Y-97473931D01*
X177700000Y-100717421D01*
X177699564Y-100820910D01*
X177697185Y-100934984D01*
X177691318Y-101057950D01*
X177680515Y-101187762D01*
X177663492Y-101321530D01*
X177639191Y-101456100D01*
X177606837Y-101588306D01*
X177566011Y-101715061D01*
X177515855Y-101835564D01*
X177453927Y-101953425D01*
X177378949Y-102070720D01*
X177291901Y-102185387D01*
X177194433Y-102294927D01*
X177088470Y-102397068D01*
X176976177Y-102489755D01*
X176859919Y-102571201D01*
X176742256Y-102639924D01*
X176623650Y-102695909D01*
X176500405Y-102741346D01*
X176370670Y-102778076D01*
X176236946Y-102806486D01*
X176102355Y-102827179D01*
X175970111Y-102841068D01*
X175843254Y-102849330D01*
X175724375Y-102853335D01*
X175614987Y-102854583D01*
X175518405Y-102854666D01*
X133730820Y-102854666D01*
X133634092Y-102854597D01*
X133525217Y-102853428D01*
X133406658Y-102849561D01*
X133280082Y-102841497D01*
X133148009Y-102827859D01*
X133013447Y-102807457D01*
X132879617Y-102779367D01*
X132749667Y-102742978D01*
X132626173Y-102697913D01*
X132507451Y-102642397D01*
X132389775Y-102574200D01*
X132273415Y-102493240D01*
X132160917Y-102400971D01*
X132054655Y-102299168D01*
X131956810Y-102189882D01*
X131869319Y-102075385D01*
X131793821Y-101958130D01*
X131731382Y-101840301D01*
X131680802Y-101719979D01*
X131639631Y-101593498D01*
X131606946Y-101461459D01*
X131582333Y-101326910D01*
X131565040Y-101193064D01*
X131554013Y-101063054D01*
X131547973Y-100939742D01*
X131545483Y-100825280D01*
X131545001Y-100721259D01*
X131545000Y-100633191D01*
X131545000Y-93774126D01*
X135729000Y-93774126D01*
X135729000Y-94185874D01*
X135886569Y-94566280D01*
X136177720Y-94857431D01*
X136558126Y-95015000D01*
X136969874Y-95015000D01*
X137140072Y-94944502D01*
X137278748Y-94944502D01*
X137120000Y-95103250D01*
X137120000Y-95306309D01*
X137216673Y-95539698D01*
X137395301Y-95718327D01*
X137628690Y-95815000D01*
X137730250Y-95815000D01*
X137888998Y-95656252D01*
X137888998Y-95815000D01*
X137974401Y-95815000D01*
X137974401Y-95854415D01*
X137786235Y-95891843D01*
X137576191Y-96032191D01*
X137435843Y-96242235D01*
X137386560Y-96490000D01*
X137386560Y-97190000D01*
X137435843Y-97437765D01*
X137576191Y-97647809D01*
X137786235Y-97788157D01*
X137795500Y-97790000D01*
X137786235Y-97791843D01*
X137576191Y-97932191D01*
X137435843Y-98142235D01*
X137386560Y-98390000D01*
X137386560Y-99090000D01*
X137435843Y-99337765D01*
X137576191Y-99547809D01*
X137786235Y-99688157D01*
X138034000Y-99737440D01*
X139334000Y-99737440D01*
X139581765Y-99688157D01*
X139700000Y-99609154D01*
X139818235Y-99688157D01*
X140066000Y-99737440D01*
X141366000Y-99737440D01*
X141613765Y-99688157D01*
X141740313Y-99603600D01*
X145014951Y-99603600D01*
X145100000Y-99620517D01*
X145185049Y-99603600D01*
X145185053Y-99603600D01*
X145436960Y-99553493D01*
X145722620Y-99362620D01*
X145770802Y-99290511D01*
X147041563Y-98019750D01*
X161457000Y-98019750D01*
X161457000Y-99360310D01*
X161553673Y-99593699D01*
X161732302Y-99772327D01*
X161965691Y-99869000D01*
X164306250Y-99869000D01*
X164465000Y-99710250D01*
X164465000Y-97861000D01*
X164719000Y-97861000D01*
X164719000Y-99710250D01*
X164877750Y-99869000D01*
X167218309Y-99869000D01*
X167451698Y-99772327D01*
X167630327Y-99593699D01*
X167727000Y-99360310D01*
X167727000Y-98019750D01*
X167568250Y-97861000D01*
X164719000Y-97861000D01*
X164465000Y-97861000D01*
X161615750Y-97861000D01*
X161457000Y-98019750D01*
X147041563Y-98019750D01*
X148378517Y-96682798D01*
X148450620Y-96634620D01*
X148520304Y-96530332D01*
X148641493Y-96348960D01*
X148648062Y-96315937D01*
X148691600Y-96097053D01*
X148691600Y-96097049D01*
X148708517Y-96012000D01*
X148691600Y-95926951D01*
X148691600Y-93196672D01*
X148743090Y-93218000D01*
X148939250Y-93218000D01*
X149098000Y-93059250D01*
X149098000Y-91859100D01*
X149352000Y-91859100D01*
X149352000Y-93059250D01*
X149510750Y-93218000D01*
X149706910Y-93218000D01*
X149940299Y-93121327D01*
X150118927Y-92942698D01*
X150215600Y-92709309D01*
X150215600Y-92017850D01*
X150056850Y-91859100D01*
X149352000Y-91859100D01*
X149098000Y-91859100D01*
X149078000Y-91859100D01*
X149078000Y-91605100D01*
X149098000Y-91605100D01*
X149098000Y-91585100D01*
X149352000Y-91585100D01*
X149352000Y-91605100D01*
X150056850Y-91605100D01*
X150215600Y-91446350D01*
X150215600Y-90779600D01*
X150782169Y-90779600D01*
X150761960Y-90881200D01*
X150761960Y-92583000D01*
X150811243Y-92830765D01*
X150951591Y-93040809D01*
X151161635Y-93181157D01*
X151409400Y-93230440D01*
X152120600Y-93230440D01*
X152368365Y-93181157D01*
X152578409Y-93040809D01*
X152718757Y-92830765D01*
X152768040Y-92583000D01*
X152768040Y-91505354D01*
X154015202Y-92752517D01*
X154063380Y-92824620D01*
X154349040Y-93015493D01*
X154600947Y-93065600D01*
X154600951Y-93065600D01*
X154685999Y-93082517D01*
X154771047Y-93065600D01*
X159245087Y-93065600D01*
X160964000Y-94784514D01*
X161012180Y-94856620D01*
X161297840Y-95047493D01*
X161444560Y-95076677D01*
X161444560Y-95734000D01*
X161493843Y-95981765D01*
X161503298Y-95995916D01*
X161457000Y-96107690D01*
X161457000Y-97448250D01*
X161615750Y-97607000D01*
X164465000Y-97607000D01*
X164465000Y-97587000D01*
X164719000Y-97587000D01*
X164719000Y-97607000D01*
X167568250Y-97607000D01*
X167727000Y-97448250D01*
X167727000Y-96107690D01*
X167680702Y-95995916D01*
X167690157Y-95981765D01*
X167739440Y-95734000D01*
X167739440Y-92734000D01*
X167690157Y-92486235D01*
X167688664Y-92484000D01*
X167690157Y-92481765D01*
X167739440Y-92234000D01*
X167739440Y-89234000D01*
X167690157Y-88986235D01*
X167549809Y-88776191D01*
X167339765Y-88635843D01*
X167092000Y-88586560D01*
X162092000Y-88586560D01*
X161844235Y-88635843D01*
X161813000Y-88656714D01*
X161813000Y-88489691D01*
X161716327Y-88256302D01*
X161537699Y-88077673D01*
X161304310Y-87981000D01*
X160813750Y-87981000D01*
X160655000Y-88139750D01*
X160655000Y-88839000D01*
X160675000Y-88839000D01*
X160675000Y-89093000D01*
X160655000Y-89093000D01*
X160655000Y-89113000D01*
X160401000Y-89113000D01*
X160401000Y-89093000D01*
X159647250Y-89093000D01*
X159597250Y-89043000D01*
X158623000Y-89043000D01*
X158623000Y-89063000D01*
X158369000Y-89063000D01*
X158369000Y-89043000D01*
X158349000Y-89043000D01*
X158349000Y-88789000D01*
X158369000Y-88789000D01*
X158369000Y-87939750D01*
X158623000Y-87939750D01*
X158623000Y-88789000D01*
X159351750Y-88789000D01*
X159401750Y-88839000D01*
X160401000Y-88839000D01*
X160401000Y-88139750D01*
X160242250Y-87981000D01*
X159751690Y-87981000D01*
X159633133Y-88030108D01*
X159480699Y-87877673D01*
X159247310Y-87781000D01*
X158781750Y-87781000D01*
X158623000Y-87939750D01*
X158369000Y-87939750D01*
X158210250Y-87781000D01*
X157744690Y-87781000D01*
X157511301Y-87877673D01*
X157341145Y-88047830D01*
X156118802Y-86825488D01*
X156091388Y-86784461D01*
X156146500Y-86651409D01*
X156146500Y-86264750D01*
X155987750Y-86106000D01*
X154863800Y-86106000D01*
X154863800Y-86126000D01*
X154609800Y-86126000D01*
X154609800Y-86106000D01*
X153485850Y-86106000D01*
X153327100Y-86264750D01*
X153327100Y-86512400D01*
X146643049Y-86512400D01*
X146558000Y-86495483D01*
X146472951Y-86512400D01*
X146392900Y-86512400D01*
X146392900Y-86264750D01*
X146234150Y-86106000D01*
X145110200Y-86106000D01*
X145110200Y-86126000D01*
X144856200Y-86126000D01*
X144856200Y-86106000D01*
X143732250Y-86106000D01*
X143573500Y-86264750D01*
X143573500Y-86512400D01*
X143242847Y-86512400D01*
X143157799Y-86495483D01*
X143072751Y-86512400D01*
X143072747Y-86512400D01*
X142820840Y-86562507D01*
X142535180Y-86753380D01*
X142487002Y-86825483D01*
X141403486Y-87909000D01*
X141331381Y-87957180D01*
X141235896Y-88100083D01*
X141140507Y-88242841D01*
X141085470Y-88519536D01*
X140996191Y-88579191D01*
X140954000Y-88642334D01*
X140911809Y-88579191D01*
X140701765Y-88438843D01*
X140454000Y-88389560D01*
X139454000Y-88389560D01*
X139206235Y-88438843D01*
X138996191Y-88579191D01*
X138855843Y-88789235D01*
X138854020Y-88798400D01*
X138622953Y-88798400D01*
X138616157Y-88764235D01*
X138475809Y-88554191D01*
X138265765Y-88413843D01*
X138018000Y-88364560D01*
X137318000Y-88364560D01*
X137070235Y-88413843D01*
X136860191Y-88554191D01*
X136719843Y-88764235D01*
X136714279Y-88792209D01*
X136656327Y-88652301D01*
X136477698Y-88473673D01*
X136244309Y-88377000D01*
X136053750Y-88377000D01*
X135895000Y-88535750D01*
X135895000Y-89535000D01*
X135915000Y-89535000D01*
X135915000Y-89789000D01*
X135895000Y-89789000D01*
X135895000Y-90788250D01*
X136053750Y-90947000D01*
X136244309Y-90947000D01*
X136477698Y-90850327D01*
X136656327Y-90671699D01*
X136714279Y-90531791D01*
X136719843Y-90559765D01*
X136860191Y-90769809D01*
X137070235Y-90910157D01*
X137318000Y-90959440D01*
X138018000Y-90959440D01*
X138265765Y-90910157D01*
X138475809Y-90769809D01*
X138616157Y-90559765D01*
X138622953Y-90525600D01*
X138854020Y-90525600D01*
X138855843Y-90534765D01*
X138996191Y-90744809D01*
X139090400Y-90807758D01*
X139090401Y-92132560D01*
X138577000Y-92132560D01*
X138439369Y-92159936D01*
X138403310Y-92145000D01*
X138301750Y-92145000D01*
X138143000Y-92303750D01*
X138143000Y-92306282D01*
X138119191Y-92322191D01*
X137978843Y-92532235D01*
X137929560Y-92780000D01*
X137929560Y-93505000D01*
X137978843Y-93752765D01*
X138119191Y-93962809D01*
X138143000Y-93978718D01*
X138143000Y-93981282D01*
X138119191Y-93997191D01*
X137978843Y-94207235D01*
X137929560Y-94455000D01*
X137929560Y-94964500D01*
X137889000Y-94964500D01*
X137889000Y-94944500D01*
X137869000Y-94944500D01*
X137869000Y-94690500D01*
X137889000Y-94690500D01*
X137889000Y-93269500D01*
X137869000Y-93269500D01*
X137869000Y-93015500D01*
X137889000Y-93015500D01*
X137889000Y-92303750D01*
X137730250Y-92145000D01*
X137628690Y-92145000D01*
X137395301Y-92241673D01*
X137216673Y-92420302D01*
X137120000Y-92653691D01*
X137120000Y-92856750D01*
X137278748Y-93015498D01*
X137140072Y-93015498D01*
X136969874Y-92945000D01*
X136558126Y-92945000D01*
X136177720Y-93102569D01*
X135886569Y-93393720D01*
X135729000Y-93774126D01*
X131545000Y-93774126D01*
X131545000Y-89947750D01*
X134783000Y-89947750D01*
X134783000Y-90438310D01*
X134879673Y-90671699D01*
X135058302Y-90850327D01*
X135291691Y-90947000D01*
X135482250Y-90947000D01*
X135641000Y-90788250D01*
X135641000Y-89789000D01*
X134941750Y-89789000D01*
X134783000Y-89947750D01*
X131545000Y-89947750D01*
X131545000Y-88885690D01*
X134783000Y-88885690D01*
X134783000Y-89376250D01*
X134941750Y-89535000D01*
X135641000Y-89535000D01*
X135641000Y-88535750D01*
X135482250Y-88377000D01*
X135291691Y-88377000D01*
X135058302Y-88473673D01*
X134879673Y-88652301D01*
X134783000Y-88885690D01*
X131545000Y-88885690D01*
X131545000Y-87457223D01*
X131545001Y-87408072D01*
X131545483Y-87304053D01*
X131547973Y-87189591D01*
X131554013Y-87066278D01*
X131565040Y-86936271D01*
X131582333Y-86802421D01*
X131606944Y-86667880D01*
X131639633Y-86535829D01*
X131680801Y-86409355D01*
X131731382Y-86289032D01*
X131793823Y-86171199D01*
X131869314Y-86053954D01*
X131956812Y-85939449D01*
X132054655Y-85830165D01*
X132160919Y-85728361D01*
X132273415Y-85636091D01*
X132389769Y-85555136D01*
X132507454Y-85486934D01*
X132626168Y-85431421D01*
X132749666Y-85386355D01*
X132879617Y-85349966D01*
X133013447Y-85321876D01*
X133148009Y-85301474D01*
X133280089Y-85287835D01*
X133406662Y-85279770D01*
X133525216Y-85275905D01*
X133634085Y-85274736D01*
X133730678Y-85274666D01*
X143586724Y-85274666D01*
X143573500Y-85306591D01*
X143573500Y-85306591D01*
G37*
X143573500Y-85306591D02*
X143573500Y-85693250D01*
X143732250Y-85852000D01*
X144856200Y-85852000D01*
X144856200Y-85832000D01*
X145110200Y-85832000D01*
X145110200Y-85852000D01*
X146234150Y-85852000D01*
X146392900Y-85693250D01*
X146392900Y-85306591D01*
X146379676Y-85274666D01*
X153340324Y-85274666D01*
X153327100Y-85306591D01*
X153327100Y-85693250D01*
X153485850Y-85852000D01*
X154609800Y-85852000D01*
X154609800Y-85832000D01*
X154863800Y-85832000D01*
X154863800Y-85852000D01*
X155987750Y-85852000D01*
X156146500Y-85693250D01*
X156146500Y-85306591D01*
X156133276Y-85274666D01*
X175517707Y-85274666D01*
X175615024Y-85274750D01*
X175724364Y-85275998D01*
X175843271Y-85280003D01*
X175970104Y-85288265D01*
X176102355Y-85302154D01*
X176236946Y-85322847D01*
X176370670Y-85351257D01*
X176500405Y-85387987D01*
X176623649Y-85433424D01*
X176742257Y-85489408D01*
X176859923Y-85558135D01*
X176976177Y-85639577D01*
X177088465Y-85732260D01*
X177194433Y-85834406D01*
X177291901Y-85943946D01*
X177378949Y-86058612D01*
X177453927Y-86175907D01*
X177515853Y-86293764D01*
X177566012Y-86414275D01*
X177606837Y-86541027D01*
X177639191Y-86673233D01*
X177663492Y-86807804D01*
X177680515Y-86941570D01*
X177691318Y-87071382D01*
X177697185Y-87194349D01*
X177699564Y-87308423D01*
X177700000Y-87411912D01*
X177700000Y-90510628D01*
X177700001Y-91415911D01*
X177700000Y-91415915D01*
X177700001Y-92410669D01*
X177700000Y-92410673D01*
X177700001Y-93459108D01*
X177700000Y-93459112D01*
X177700001Y-94525442D01*
X177700000Y-94525446D01*
X177700001Y-95573882D01*
X177700000Y-95573886D01*
X177700001Y-96568640D01*
X177700000Y-96568644D01*
X177700001Y-97473927D01*
X177700000Y-97473931D01*
X177700000Y-100717421D01*
X177699564Y-100820910D01*
X177697185Y-100934984D01*
X177691318Y-101057950D01*
X177680515Y-101187762D01*
X177663492Y-101321530D01*
X177639191Y-101456100D01*
X177606837Y-101588306D01*
X177566011Y-101715061D01*
X177515855Y-101835564D01*
X177453927Y-101953425D01*
X177378949Y-102070720D01*
X177291901Y-102185387D01*
X177194433Y-102294927D01*
X177088470Y-102397068D01*
X176976177Y-102489755D01*
X176859919Y-102571201D01*
X176742256Y-102639924D01*
X176623650Y-102695909D01*
X176500405Y-102741346D01*
X176370670Y-102778076D01*
X176236946Y-102806486D01*
X176102355Y-102827179D01*
X175970111Y-102841068D01*
X175843254Y-102849330D01*
X175724375Y-102853335D01*
X175614987Y-102854583D01*
X175518405Y-102854666D01*
X133730820Y-102854666D01*
X133634092Y-102854597D01*
X133525217Y-102853428D01*
X133406658Y-102849561D01*
X133280082Y-102841497D01*
X133148009Y-102827859D01*
X133013447Y-102807457D01*
X132879617Y-102779367D01*
X132749667Y-102742978D01*
X132626173Y-102697913D01*
X132507451Y-102642397D01*
X132389775Y-102574200D01*
X132273415Y-102493240D01*
X132160917Y-102400971D01*
X132054655Y-102299168D01*
X131956810Y-102189882D01*
X131869319Y-102075385D01*
X131793821Y-101958130D01*
X131731382Y-101840301D01*
X131680802Y-101719979D01*
X131639631Y-101593498D01*
X131606946Y-101461459D01*
X131582333Y-101326910D01*
X131565040Y-101193064D01*
X131554013Y-101063054D01*
X131547973Y-100939742D01*
X131545483Y-100825280D01*
X131545001Y-100721259D01*
X131545000Y-100633191D01*
X131545000Y-93774126D01*
X135729000Y-93774126D01*
X135729000Y-94185874D01*
X135886569Y-94566280D01*
X136177720Y-94857431D01*
X136558126Y-95015000D01*
X136969874Y-95015000D01*
X137140072Y-94944502D01*
X137278748Y-94944502D01*
X137120000Y-95103250D01*
X137120000Y-95306309D01*
X137216673Y-95539698D01*
X137395301Y-95718327D01*
X137628690Y-95815000D01*
X137730250Y-95815000D01*
X137888998Y-95656252D01*
X137888998Y-95815000D01*
X137974401Y-95815000D01*
X137974401Y-95854415D01*
X137786235Y-95891843D01*
X137576191Y-96032191D01*
X137435843Y-96242235D01*
X137386560Y-96490000D01*
X137386560Y-97190000D01*
X137435843Y-97437765D01*
X137576191Y-97647809D01*
X137786235Y-97788157D01*
X137795500Y-97790000D01*
X137786235Y-97791843D01*
X137576191Y-97932191D01*
X137435843Y-98142235D01*
X137386560Y-98390000D01*
X137386560Y-99090000D01*
X137435843Y-99337765D01*
X137576191Y-99547809D01*
X137786235Y-99688157D01*
X138034000Y-99737440D01*
X139334000Y-99737440D01*
X139581765Y-99688157D01*
X139700000Y-99609154D01*
X139818235Y-99688157D01*
X140066000Y-99737440D01*
X141366000Y-99737440D01*
X141613765Y-99688157D01*
X141740313Y-99603600D01*
X145014951Y-99603600D01*
X145100000Y-99620517D01*
X145185049Y-99603600D01*
X145185053Y-99603600D01*
X145436960Y-99553493D01*
X145722620Y-99362620D01*
X145770802Y-99290511D01*
X147041563Y-98019750D01*
X161457000Y-98019750D01*
X161457000Y-99360310D01*
X161553673Y-99593699D01*
X161732302Y-99772327D01*
X161965691Y-99869000D01*
X164306250Y-99869000D01*
X164465000Y-99710250D01*
X164465000Y-97861000D01*
X164719000Y-97861000D01*
X164719000Y-99710250D01*
X164877750Y-99869000D01*
X167218309Y-99869000D01*
X167451698Y-99772327D01*
X167630327Y-99593699D01*
X167727000Y-99360310D01*
X167727000Y-98019750D01*
X167568250Y-97861000D01*
X164719000Y-97861000D01*
X164465000Y-97861000D01*
X161615750Y-97861000D01*
X161457000Y-98019750D01*
X147041563Y-98019750D01*
X148378517Y-96682798D01*
X148450620Y-96634620D01*
X148520304Y-96530332D01*
X148641493Y-96348960D01*
X148648062Y-96315937D01*
X148691600Y-96097053D01*
X148691600Y-96097049D01*
X148708517Y-96012000D01*
X148691600Y-95926951D01*
X148691600Y-93196672D01*
X148743090Y-93218000D01*
X148939250Y-93218000D01*
X149098000Y-93059250D01*
X149098000Y-91859100D01*
X149352000Y-91859100D01*
X149352000Y-93059250D01*
X149510750Y-93218000D01*
X149706910Y-93218000D01*
X149940299Y-93121327D01*
X150118927Y-92942698D01*
X150215600Y-92709309D01*
X150215600Y-92017850D01*
X150056850Y-91859100D01*
X149352000Y-91859100D01*
X149098000Y-91859100D01*
X149078000Y-91859100D01*
X149078000Y-91605100D01*
X149098000Y-91605100D01*
X149098000Y-91585100D01*
X149352000Y-91585100D01*
X149352000Y-91605100D01*
X150056850Y-91605100D01*
X150215600Y-91446350D01*
X150215600Y-90779600D01*
X150782169Y-90779600D01*
X150761960Y-90881200D01*
X150761960Y-92583000D01*
X150811243Y-92830765D01*
X150951591Y-93040809D01*
X151161635Y-93181157D01*
X151409400Y-93230440D01*
X152120600Y-93230440D01*
X152368365Y-93181157D01*
X152578409Y-93040809D01*
X152718757Y-92830765D01*
X152768040Y-92583000D01*
X152768040Y-91505354D01*
X154015202Y-92752517D01*
X154063380Y-92824620D01*
X154349040Y-93015493D01*
X154600947Y-93065600D01*
X154600951Y-93065600D01*
X154685999Y-93082517D01*
X154771047Y-93065600D01*
X159245087Y-93065600D01*
X160964000Y-94784514D01*
X161012180Y-94856620D01*
X161297840Y-95047493D01*
X161444560Y-95076677D01*
X161444560Y-95734000D01*
X161493843Y-95981765D01*
X161503298Y-95995916D01*
X161457000Y-96107690D01*
X161457000Y-97448250D01*
X161615750Y-97607000D01*
X164465000Y-97607000D01*
X164465000Y-97587000D01*
X164719000Y-97587000D01*
X164719000Y-97607000D01*
X167568250Y-97607000D01*
X167727000Y-97448250D01*
X167727000Y-96107690D01*
X167680702Y-95995916D01*
X167690157Y-95981765D01*
X167739440Y-95734000D01*
X167739440Y-92734000D01*
X167690157Y-92486235D01*
X167688664Y-92484000D01*
X167690157Y-92481765D01*
X167739440Y-92234000D01*
X167739440Y-89234000D01*
X167690157Y-88986235D01*
X167549809Y-88776191D01*
X167339765Y-88635843D01*
X167092000Y-88586560D01*
X162092000Y-88586560D01*
X161844235Y-88635843D01*
X161813000Y-88656714D01*
X161813000Y-88489691D01*
X161716327Y-88256302D01*
X161537699Y-88077673D01*
X161304310Y-87981000D01*
X160813750Y-87981000D01*
X160655000Y-88139750D01*
X160655000Y-88839000D01*
X160675000Y-88839000D01*
X160675000Y-89093000D01*
X160655000Y-89093000D01*
X160655000Y-89113000D01*
X160401000Y-89113000D01*
X160401000Y-89093000D01*
X159647250Y-89093000D01*
X159597250Y-89043000D01*
X158623000Y-89043000D01*
X158623000Y-89063000D01*
X158369000Y-89063000D01*
X158369000Y-89043000D01*
X158349000Y-89043000D01*
X158349000Y-88789000D01*
X158369000Y-88789000D01*
X158369000Y-87939750D01*
X158623000Y-87939750D01*
X158623000Y-88789000D01*
X159351750Y-88789000D01*
X159401750Y-88839000D01*
X160401000Y-88839000D01*
X160401000Y-88139750D01*
X160242250Y-87981000D01*
X159751690Y-87981000D01*
X159633133Y-88030108D01*
X159480699Y-87877673D01*
X159247310Y-87781000D01*
X158781750Y-87781000D01*
X158623000Y-87939750D01*
X158369000Y-87939750D01*
X158210250Y-87781000D01*
X157744690Y-87781000D01*
X157511301Y-87877673D01*
X157341145Y-88047830D01*
X156118802Y-86825488D01*
X156091388Y-86784461D01*
X156146500Y-86651409D01*
X156146500Y-86264750D01*
X155987750Y-86106000D01*
X154863800Y-86106000D01*
X154863800Y-86126000D01*
X154609800Y-86126000D01*
X154609800Y-86106000D01*
X153485850Y-86106000D01*
X153327100Y-86264750D01*
X153327100Y-86512400D01*
X146643049Y-86512400D01*
X146558000Y-86495483D01*
X146472951Y-86512400D01*
X146392900Y-86512400D01*
X146392900Y-86264750D01*
X146234150Y-86106000D01*
X145110200Y-86106000D01*
X145110200Y-86126000D01*
X144856200Y-86126000D01*
X144856200Y-86106000D01*
X143732250Y-86106000D01*
X143573500Y-86264750D01*
X143573500Y-86512400D01*
X143242847Y-86512400D01*
X143157799Y-86495483D01*
X143072751Y-86512400D01*
X143072747Y-86512400D01*
X142820840Y-86562507D01*
X142535180Y-86753380D01*
X142487002Y-86825483D01*
X141403486Y-87909000D01*
X141331381Y-87957180D01*
X141235896Y-88100083D01*
X141140507Y-88242841D01*
X141085470Y-88519536D01*
X140996191Y-88579191D01*
X140954000Y-88642334D01*
X140911809Y-88579191D01*
X140701765Y-88438843D01*
X140454000Y-88389560D01*
X139454000Y-88389560D01*
X139206235Y-88438843D01*
X138996191Y-88579191D01*
X138855843Y-88789235D01*
X138854020Y-88798400D01*
X138622953Y-88798400D01*
X138616157Y-88764235D01*
X138475809Y-88554191D01*
X138265765Y-88413843D01*
X138018000Y-88364560D01*
X137318000Y-88364560D01*
X137070235Y-88413843D01*
X136860191Y-88554191D01*
X136719843Y-88764235D01*
X136714279Y-88792209D01*
X136656327Y-88652301D01*
X136477698Y-88473673D01*
X136244309Y-88377000D01*
X136053750Y-88377000D01*
X135895000Y-88535750D01*
X135895000Y-89535000D01*
X135915000Y-89535000D01*
X135915000Y-89789000D01*
X135895000Y-89789000D01*
X135895000Y-90788250D01*
X136053750Y-90947000D01*
X136244309Y-90947000D01*
X136477698Y-90850327D01*
X136656327Y-90671699D01*
X136714279Y-90531791D01*
X136719843Y-90559765D01*
X136860191Y-90769809D01*
X137070235Y-90910157D01*
X137318000Y-90959440D01*
X138018000Y-90959440D01*
X138265765Y-90910157D01*
X138475809Y-90769809D01*
X138616157Y-90559765D01*
X138622953Y-90525600D01*
X138854020Y-90525600D01*
X138855843Y-90534765D01*
X138996191Y-90744809D01*
X139090400Y-90807758D01*
X139090401Y-92132560D01*
X138577000Y-92132560D01*
X138439369Y-92159936D01*
X138403310Y-92145000D01*
X138301750Y-92145000D01*
X138143000Y-92303750D01*
X138143000Y-92306282D01*
X138119191Y-92322191D01*
X137978843Y-92532235D01*
X137929560Y-92780000D01*
X137929560Y-93505000D01*
X137978843Y-93752765D01*
X138119191Y-93962809D01*
X138143000Y-93978718D01*
X138143000Y-93981282D01*
X138119191Y-93997191D01*
X137978843Y-94207235D01*
X137929560Y-94455000D01*
X137929560Y-94964500D01*
X137889000Y-94964500D01*
X137889000Y-94944500D01*
X137869000Y-94944500D01*
X137869000Y-94690500D01*
X137889000Y-94690500D01*
X137889000Y-93269500D01*
X137869000Y-93269500D01*
X137869000Y-93015500D01*
X137889000Y-93015500D01*
X137889000Y-92303750D01*
X137730250Y-92145000D01*
X137628690Y-92145000D01*
X137395301Y-92241673D01*
X137216673Y-92420302D01*
X137120000Y-92653691D01*
X137120000Y-92856750D01*
X137278748Y-93015498D01*
X137140072Y-93015498D01*
X136969874Y-92945000D01*
X136558126Y-92945000D01*
X136177720Y-93102569D01*
X135886569Y-93393720D01*
X135729000Y-93774126D01*
X131545000Y-93774126D01*
X131545000Y-89947750D01*
X134783000Y-89947750D01*
X134783000Y-90438310D01*
X134879673Y-90671699D01*
X135058302Y-90850327D01*
X135291691Y-90947000D01*
X135482250Y-90947000D01*
X135641000Y-90788250D01*
X135641000Y-89789000D01*
X134941750Y-89789000D01*
X134783000Y-89947750D01*
X131545000Y-89947750D01*
X131545000Y-88885690D01*
X134783000Y-88885690D01*
X134783000Y-89376250D01*
X134941750Y-89535000D01*
X135641000Y-89535000D01*
X135641000Y-88535750D01*
X135482250Y-88377000D01*
X135291691Y-88377000D01*
X135058302Y-88473673D01*
X134879673Y-88652301D01*
X134783000Y-88885690D01*
X131545000Y-88885690D01*
X131545000Y-87457223D01*
X131545001Y-87408072D01*
X131545483Y-87304053D01*
X131547973Y-87189591D01*
X131554013Y-87066278D01*
X131565040Y-86936271D01*
X131582333Y-86802421D01*
X131606944Y-86667880D01*
X131639633Y-86535829D01*
X131680801Y-86409355D01*
X131731382Y-86289032D01*
X131793823Y-86171199D01*
X131869314Y-86053954D01*
X131956812Y-85939449D01*
X132054655Y-85830165D01*
X132160919Y-85728361D01*
X132273415Y-85636091D01*
X132389769Y-85555136D01*
X132507454Y-85486934D01*
X132626168Y-85431421D01*
X132749666Y-85386355D01*
X132879617Y-85349966D01*
X133013447Y-85321876D01*
X133148009Y-85301474D01*
X133280089Y-85287835D01*
X133406662Y-85279770D01*
X133525216Y-85275905D01*
X133634085Y-85274736D01*
X133730678Y-85274666D01*
X143586724Y-85274666D01*
X143573500Y-85306591D01*
G36*
X145821401Y-88607900D02*
X145268950Y-88607900D01*
X145110200Y-88766650D01*
X145110200Y-89662000D01*
X145130200Y-89662000D01*
X145130200Y-89916000D01*
X145110200Y-89916000D01*
X145110200Y-90811350D01*
X145268950Y-90970100D01*
X145681960Y-90970100D01*
X145681960Y-92583000D01*
X145731243Y-92830765D01*
X145871591Y-93040809D01*
X146081635Y-93181157D01*
X146329400Y-93230440D01*
X146964400Y-93230440D01*
X146964401Y-95654284D01*
X144742287Y-97876400D01*
X141740313Y-97876400D01*
X141613765Y-97791843D01*
X141604500Y-97790000D01*
X141613765Y-97788157D01*
X141823809Y-97647809D01*
X141964157Y-97437765D01*
X142013440Y-97190000D01*
X142013440Y-96490000D01*
X141964157Y-96242235D01*
X141823809Y-96032191D01*
X141613765Y-95891843D01*
X141566615Y-95882464D01*
X141541857Y-95758000D01*
X141954250Y-95758000D01*
X142113000Y-95599250D01*
X142113000Y-94615000D01*
X142367000Y-94615000D01*
X142367000Y-95599250D01*
X142525750Y-95758000D01*
X143636309Y-95758000D01*
X143869698Y-95661327D01*
X144048327Y-95482699D01*
X144145000Y-95249310D01*
X144145000Y-94773750D01*
X143986250Y-94615000D01*
X142367000Y-94615000D01*
X142113000Y-94615000D01*
X142093000Y-94615000D01*
X142093000Y-94361000D01*
X142113000Y-94361000D01*
X142113000Y-94341000D01*
X142367000Y-94341000D01*
X142367000Y-94361000D01*
X143986250Y-94361000D01*
X144145000Y-94202250D01*
X144145000Y-93726690D01*
X144048327Y-93493301D01*
X143869698Y-93314673D01*
X143636309Y-93218000D01*
X143572541Y-93218000D01*
X143757765Y-93181157D01*
X143967809Y-93040809D01*
X144108157Y-92830765D01*
X144157440Y-92583000D01*
X144157440Y-91313000D01*
X144108157Y-91065235D01*
X144030200Y-90948565D01*
X144082190Y-90970100D01*
X144697450Y-90970100D01*
X144856200Y-90811350D01*
X144856200Y-89916000D01*
X143732250Y-89916000D01*
X143573500Y-90074750D01*
X143573500Y-90461409D01*
X143670173Y-90694798D01*
X143673446Y-90698071D01*
X143510000Y-90665560D01*
X142964762Y-90665560D01*
X143052157Y-90534765D01*
X143101440Y-90287000D01*
X143101440Y-89116591D01*
X143573500Y-89116591D01*
X143573500Y-89503250D01*
X143732250Y-89662000D01*
X144856200Y-89662000D01*
X144856200Y-88766650D01*
X144697450Y-88607900D01*
X144082190Y-88607900D01*
X143848801Y-88704573D01*
X143670173Y-88883202D01*
X143573500Y-89116591D01*
X143101440Y-89116591D01*
X143101440Y-89037000D01*
X143052157Y-88789235D01*
X143017599Y-88737515D01*
X143515515Y-88239600D01*
X145821401Y-88239600D01*
X145821401Y-88607900D01*
X145821401Y-88607900D01*
G37*
X145821401Y-88607900D02*
X145268950Y-88607900D01*
X145110200Y-88766650D01*
X145110200Y-89662000D01*
X145130200Y-89662000D01*
X145130200Y-89916000D01*
X145110200Y-89916000D01*
X145110200Y-90811350D01*
X145268950Y-90970100D01*
X145681960Y-90970100D01*
X145681960Y-92583000D01*
X145731243Y-92830765D01*
X145871591Y-93040809D01*
X146081635Y-93181157D01*
X146329400Y-93230440D01*
X146964400Y-93230440D01*
X146964401Y-95654284D01*
X144742287Y-97876400D01*
X141740313Y-97876400D01*
X141613765Y-97791843D01*
X141604500Y-97790000D01*
X141613765Y-97788157D01*
X141823809Y-97647809D01*
X141964157Y-97437765D01*
X142013440Y-97190000D01*
X142013440Y-96490000D01*
X141964157Y-96242235D01*
X141823809Y-96032191D01*
X141613765Y-95891843D01*
X141566615Y-95882464D01*
X141541857Y-95758000D01*
X141954250Y-95758000D01*
X142113000Y-95599250D01*
X142113000Y-94615000D01*
X142367000Y-94615000D01*
X142367000Y-95599250D01*
X142525750Y-95758000D01*
X143636309Y-95758000D01*
X143869698Y-95661327D01*
X144048327Y-95482699D01*
X144145000Y-95249310D01*
X144145000Y-94773750D01*
X143986250Y-94615000D01*
X142367000Y-94615000D01*
X142113000Y-94615000D01*
X142093000Y-94615000D01*
X142093000Y-94361000D01*
X142113000Y-94361000D01*
X142113000Y-94341000D01*
X142367000Y-94341000D01*
X142367000Y-94361000D01*
X143986250Y-94361000D01*
X144145000Y-94202250D01*
X144145000Y-93726690D01*
X144048327Y-93493301D01*
X143869698Y-93314673D01*
X143636309Y-93218000D01*
X143572541Y-93218000D01*
X143757765Y-93181157D01*
X143967809Y-93040809D01*
X144108157Y-92830765D01*
X144157440Y-92583000D01*
X144157440Y-91313000D01*
X144108157Y-91065235D01*
X144030200Y-90948565D01*
X144082190Y-90970100D01*
X144697450Y-90970100D01*
X144856200Y-90811350D01*
X144856200Y-89916000D01*
X143732250Y-89916000D01*
X143573500Y-90074750D01*
X143573500Y-90461409D01*
X143670173Y-90694798D01*
X143673446Y-90698071D01*
X143510000Y-90665560D01*
X142964762Y-90665560D01*
X143052157Y-90534765D01*
X143101440Y-90287000D01*
X143101440Y-89116591D01*
X143573500Y-89116591D01*
X143573500Y-89503250D01*
X143732250Y-89662000D01*
X144856200Y-89662000D01*
X144856200Y-88766650D01*
X144697450Y-88607900D01*
X144082190Y-88607900D01*
X143848801Y-88704573D01*
X143670173Y-88883202D01*
X143573500Y-89116591D01*
X143101440Y-89116591D01*
X143101440Y-89037000D01*
X143052157Y-88789235D01*
X143017599Y-88737515D01*
X143515515Y-88239600D01*
X145821401Y-88239600D01*
X145821401Y-88607900D01*
G36*
X155458586Y-88607900D02*
X155022550Y-88607900D01*
X154863800Y-88766650D01*
X154863800Y-89662000D01*
X154883800Y-89662000D01*
X154883800Y-89916000D01*
X154863800Y-89916000D01*
X154863800Y-90811350D01*
X155022550Y-90970100D01*
X155637810Y-90970100D01*
X155871199Y-90873427D01*
X156049827Y-90694798D01*
X156107613Y-90555291D01*
X156158507Y-90811159D01*
X156187929Y-90855191D01*
X156349381Y-91096820D01*
X156421486Y-91144999D01*
X156614886Y-91338400D01*
X155043715Y-91338400D01*
X154563232Y-90857918D01*
X154609800Y-90811350D01*
X154609800Y-89916000D01*
X154589800Y-89916000D01*
X154589800Y-89662000D01*
X154609800Y-89662000D01*
X154609800Y-88766650D01*
X154451050Y-88607900D01*
X153835790Y-88607900D01*
X153602401Y-88704573D01*
X153423773Y-88883202D01*
X153327100Y-89116591D01*
X153327100Y-89503250D01*
X153485848Y-89661998D01*
X153367312Y-89661998D01*
X153070802Y-89365489D01*
X153022620Y-89293380D01*
X152736960Y-89102507D01*
X152485053Y-89052400D01*
X152485049Y-89052400D01*
X152400000Y-89035483D01*
X152314951Y-89052400D01*
X148675049Y-89052400D01*
X148590000Y-89035483D01*
X148504951Y-89052400D01*
X148504947Y-89052400D01*
X148260174Y-89101088D01*
X148253040Y-89102507D01*
X148039484Y-89245201D01*
X148039483Y-89245202D01*
X147967380Y-89293380D01*
X147919202Y-89365484D01*
X147548600Y-89736086D01*
X147548600Y-88239600D01*
X155090287Y-88239600D01*
X155458586Y-88607900D01*
X155458586Y-88607900D01*
G37*
X155458586Y-88607900D02*
X155022550Y-88607900D01*
X154863800Y-88766650D01*
X154863800Y-89662000D01*
X154883800Y-89662000D01*
X154883800Y-89916000D01*
X154863800Y-89916000D01*
X154863800Y-90811350D01*
X155022550Y-90970100D01*
X155637810Y-90970100D01*
X155871199Y-90873427D01*
X156049827Y-90694798D01*
X156107613Y-90555291D01*
X156158507Y-90811159D01*
X156187929Y-90855191D01*
X156349381Y-91096820D01*
X156421486Y-91144999D01*
X156614886Y-91338400D01*
X155043715Y-91338400D01*
X154563232Y-90857918D01*
X154609800Y-90811350D01*
X154609800Y-89916000D01*
X154589800Y-89916000D01*
X154589800Y-89662000D01*
X154609800Y-89662000D01*
X154609800Y-88766650D01*
X154451050Y-88607900D01*
X153835790Y-88607900D01*
X153602401Y-88704573D01*
X153423773Y-88883202D01*
X153327100Y-89116591D01*
X153327100Y-89503250D01*
X153485848Y-89661998D01*
X153367312Y-89661998D01*
X153070802Y-89365489D01*
X153022620Y-89293380D01*
X152736960Y-89102507D01*
X152485053Y-89052400D01*
X152485049Y-89052400D01*
X152400000Y-89035483D01*
X152314951Y-89052400D01*
X148675049Y-89052400D01*
X148590000Y-89035483D01*
X148504951Y-89052400D01*
X148504947Y-89052400D01*
X148260174Y-89101088D01*
X148253040Y-89102507D01*
X148039484Y-89245201D01*
X148039483Y-89245202D01*
X147967380Y-89293380D01*
X147919202Y-89365484D01*
X147548600Y-89736086D01*
X147548600Y-88239600D01*
X155090287Y-88239600D01*
X155458586Y-88607900D01*
G04 #@! TD*
M02*
