G04 #@! TF.GenerationSoftware,KiCad,Pcbnew,(5.0.2-4-gb601aea34)*
G04 #@! TF.CreationDate,2019-09-30T13:15:35-05:00*
G04 #@! TF.ProjectId,mic switch,6d696320-7377-4697-9463-682e6b696361,rev?*
G04 #@! TF.SameCoordinates,Original*
G04 #@! TF.FileFunction,Soldermask,Top*
G04 #@! TF.FilePolarity,Negative*
%FSLAX46Y46*%
G04 Gerber Fmt 4.6, Leading zero omitted, Abs format (unit mm)*
G04 Created by KiCad (PCBNEW (5.0.2-4-gb601aea34)) date Monday, September 30, 2019 at 01:15:35 PM*
%MOMM*%
%LPD*%
G01*
G04 APERTURE LIST*
%ADD10C,0.100000*%
G04 APERTURE END LIST*
D10*
G36*
X167143000Y-99285000D02*
X162041000Y-99285000D01*
X162041000Y-96183000D01*
X167143000Y-96183000D01*
X167143000Y-99285000D01*
X167143000Y-99285000D01*
G37*
G36*
X139385000Y-99141000D02*
X137983000Y-99141000D01*
X137983000Y-98339000D01*
X139385000Y-98339000D01*
X139385000Y-99141000D01*
X139385000Y-99141000D01*
G37*
G36*
X141417000Y-99141000D02*
X140015000Y-99141000D01*
X140015000Y-98339000D01*
X141417000Y-98339000D01*
X141417000Y-99141000D01*
X141417000Y-99141000D01*
G37*
G36*
X141417000Y-97241000D02*
X140015000Y-97241000D01*
X140015000Y-96439000D01*
X141417000Y-96439000D01*
X141417000Y-97241000D01*
X141417000Y-97241000D01*
G37*
G36*
X139385000Y-97241000D02*
X137983000Y-97241000D01*
X137983000Y-96439000D01*
X139385000Y-96439000D01*
X139385000Y-97241000D01*
X139385000Y-97241000D01*
G37*
G36*
X167143000Y-95785000D02*
X162041000Y-95785000D01*
X162041000Y-92683000D01*
X167143000Y-92683000D01*
X167143000Y-95785000D01*
X167143000Y-95785000D01*
G37*
G36*
X139150000Y-93556000D02*
X137703038Y-93556000D01*
X137678652Y-93558402D01*
X137655203Y-93565515D01*
X137633592Y-93577066D01*
X137614650Y-93592612D01*
X137599104Y-93611554D01*
X137587553Y-93633165D01*
X137580440Y-93656614D01*
X137578038Y-93681000D01*
X137580440Y-93705386D01*
X137584156Y-93719627D01*
X137604972Y-93783693D01*
X137609756Y-93805452D01*
X137627085Y-93950773D01*
X137627552Y-93973058D01*
X137616324Y-94118971D01*
X137612452Y-94140927D01*
X137583287Y-94245385D01*
X137579042Y-94269519D01*
X137579587Y-94294017D01*
X137584901Y-94317938D01*
X137594780Y-94340363D01*
X137608844Y-94360429D01*
X137626552Y-94377367D01*
X137647225Y-94390524D01*
X137670067Y-94399395D01*
X137703682Y-94404000D01*
X139150000Y-94404000D01*
X139150000Y-95231000D01*
X137704000Y-95231000D01*
X137704000Y-94537522D01*
X137701598Y-94513136D01*
X137694485Y-94489687D01*
X137682934Y-94468076D01*
X137667388Y-94449134D01*
X137648446Y-94433588D01*
X137626835Y-94422037D01*
X137603386Y-94414924D01*
X137579000Y-94412522D01*
X137554614Y-94414924D01*
X137531165Y-94422037D01*
X137509554Y-94433588D01*
X137490612Y-94449134D01*
X137480498Y-94460565D01*
X137397014Y-94567422D01*
X137381642Y-94583563D01*
X137270863Y-94679185D01*
X137252647Y-94692034D01*
X137125399Y-94764322D01*
X137105041Y-94773386D01*
X136966176Y-94819580D01*
X136944433Y-94824520D01*
X136796664Y-94843187D01*
X136783916Y-94844079D01*
X136768207Y-94844298D01*
X136755464Y-94843764D01*
X136607211Y-94829228D01*
X136585350Y-94824899D01*
X136445240Y-94782598D01*
X136424648Y-94774111D01*
X136295419Y-94705398D01*
X136276862Y-94693069D01*
X136163445Y-94600568D01*
X136147637Y-94584869D01*
X136054353Y-94472109D01*
X136041886Y-94453626D01*
X135972282Y-94324896D01*
X135963647Y-94304353D01*
X135920368Y-94164544D01*
X135915888Y-94142717D01*
X135900591Y-93997175D01*
X135900436Y-93974888D01*
X135913701Y-93829134D01*
X135917876Y-93807246D01*
X135959192Y-93666862D01*
X135967546Y-93646187D01*
X136035344Y-93516501D01*
X136047546Y-93497855D01*
X136139252Y-93383796D01*
X136154845Y-93367872D01*
X136266948Y-93273806D01*
X136285339Y-93261213D01*
X136413594Y-93190706D01*
X136434064Y-93181932D01*
X136573564Y-93137679D01*
X136595372Y-93133044D01*
X136740799Y-93116732D01*
X136763085Y-93116420D01*
X136775494Y-93117462D01*
X136775496Y-93117462D01*
X136908925Y-93128667D01*
X136930835Y-93132688D01*
X137071519Y-93173029D01*
X137092242Y-93181234D01*
X137222397Y-93248125D01*
X137241140Y-93260204D01*
X137355825Y-93351101D01*
X137371863Y-93366589D01*
X137466709Y-93478032D01*
X137476357Y-93491914D01*
X137492247Y-93510568D01*
X137511471Y-93525763D01*
X137533290Y-93536916D01*
X137556865Y-93543599D01*
X137581291Y-93545553D01*
X137605629Y-93542705D01*
X137628944Y-93535163D01*
X137650340Y-93523217D01*
X137668994Y-93507327D01*
X137684189Y-93488103D01*
X137695342Y-93466284D01*
X137702025Y-93442709D01*
X137704000Y-93420574D01*
X137704000Y-92729000D01*
X139150000Y-92729000D01*
X139150000Y-93556000D01*
X139150000Y-93556000D01*
G37*
G36*
X143561000Y-95174000D02*
X140919000Y-95174000D01*
X140919000Y-93802000D01*
X143561000Y-93802000D01*
X143561000Y-95174000D01*
X143561000Y-95174000D01*
G37*
G36*
X143561000Y-92634000D02*
X140919000Y-92634000D01*
X140919000Y-91262000D01*
X143561000Y-91262000D01*
X143561000Y-92634000D01*
X143561000Y-92634000D01*
G37*
G36*
X147091600Y-92634000D02*
X146278400Y-92634000D01*
X146278400Y-90830200D01*
X147091600Y-90830200D01*
X147091600Y-92634000D01*
X147091600Y-92634000D01*
G37*
G36*
X149631600Y-92634000D02*
X148818400Y-92634000D01*
X148818400Y-90830200D01*
X149631600Y-90830200D01*
X149631600Y-92634000D01*
X149631600Y-92634000D01*
G37*
G36*
X152171600Y-92634000D02*
X151358400Y-92634000D01*
X151358400Y-90830200D01*
X152171600Y-90830200D01*
X152171600Y-92634000D01*
X152171600Y-92634000D01*
G37*
G36*
X167143000Y-92285000D02*
X162041000Y-92285000D01*
X162041000Y-89183000D01*
X167143000Y-89183000D01*
X167143000Y-92285000D01*
X167143000Y-92285000D01*
G37*
G36*
X159172000Y-91467000D02*
X157820000Y-91467000D01*
X157820000Y-90365000D01*
X159172000Y-90365000D01*
X159172000Y-91467000D01*
X159172000Y-91467000D01*
G37*
G36*
X161229000Y-91267000D02*
X159827000Y-91267000D01*
X159827000Y-90465000D01*
X161229000Y-90465000D01*
X161229000Y-91267000D01*
X161229000Y-91267000D01*
G37*
G36*
X155562500Y-90386100D02*
X153911100Y-90386100D01*
X153911100Y-89191900D01*
X155562500Y-89191900D01*
X155562500Y-90386100D01*
X155562500Y-90386100D01*
G37*
G36*
X145808900Y-90386100D02*
X144157500Y-90386100D01*
X144157500Y-89191900D01*
X145808900Y-89191900D01*
X145808900Y-90386100D01*
X145808900Y-90386100D01*
G37*
G36*
X138069000Y-90363000D02*
X137267000Y-90363000D01*
X137267000Y-88961000D01*
X138069000Y-88961000D01*
X138069000Y-90363000D01*
X138069000Y-90363000D01*
G37*
G36*
X136169000Y-90363000D02*
X135367000Y-90363000D01*
X135367000Y-88961000D01*
X136169000Y-88961000D01*
X136169000Y-90363000D01*
X136169000Y-90363000D01*
G37*
G36*
X140505000Y-90338000D02*
X139403000Y-90338000D01*
X139403000Y-88986000D01*
X140505000Y-88986000D01*
X140505000Y-90338000D01*
X140505000Y-90338000D01*
G37*
G36*
X142505000Y-90338000D02*
X141403000Y-90338000D01*
X141403000Y-88986000D01*
X142505000Y-88986000D01*
X142505000Y-90338000D01*
X142505000Y-90338000D01*
G37*
G36*
X159172000Y-89467000D02*
X157820000Y-89467000D01*
X157820000Y-88365000D01*
X159172000Y-88365000D01*
X159172000Y-89467000D01*
X159172000Y-89467000D01*
G37*
G36*
X161229000Y-89367000D02*
X159827000Y-89367000D01*
X159827000Y-88565000D01*
X161229000Y-88565000D01*
X161229000Y-89367000D01*
X161229000Y-89367000D01*
G37*
G36*
X145808900Y-86576100D02*
X144157500Y-86576100D01*
X144157500Y-85381900D01*
X145808900Y-85381900D01*
X145808900Y-86576100D01*
X145808900Y-86576100D01*
G37*
G36*
X155562500Y-86576100D02*
X153911100Y-86576100D01*
X153911100Y-85381900D01*
X155562500Y-85381900D01*
X155562500Y-86576100D01*
X155562500Y-86576100D01*
G37*
M02*
