G04 #@! TF.GenerationSoftware,KiCad,Pcbnew,(5.0.2-4-gb601aea34)*
G04 #@! TF.CreationDate,2019-09-30T13:15:35-05:00*
G04 #@! TF.ProjectId,mic switch,6d696320-7377-4697-9463-682e6b696361,rev?*
G04 #@! TF.SameCoordinates,Original*
G04 #@! TF.FileFunction,Profile,NP*
%FSLAX46Y46*%
G04 Gerber Fmt 4.6, Leading zero omitted, Abs format (unit mm)*
G04 Created by KiCad (PCBNEW (5.0.2-4-gb601aea34)) date Monday, September 30, 2019 at 01:15:35 PM*
%MOMM*%
%LPD*%
G01*
G04 APERTURE LIST*
%ADD10C,0.200000*%
G04 APERTURE END LIST*
D10*
X130810000Y-98933058D02*
X130810000Y-98298000D01*
X130810000Y-99426395D02*
X130810000Y-98933058D01*
X130810000Y-99795905D02*
X130810000Y-99426395D01*
X130810000Y-100059483D02*
X130810000Y-99795905D01*
X130810000Y-100235021D02*
X130810000Y-100059483D01*
X130810000Y-100340415D02*
X130810000Y-100235021D01*
X130810000Y-100393558D02*
X130810000Y-100340415D01*
X130810000Y-100412344D02*
X130810000Y-100393558D01*
X130810000Y-100414667D02*
X130810000Y-100412344D01*
X130810000Y-100415185D02*
X130810000Y-100414667D01*
X130810000Y-100418372D02*
X130810000Y-100415185D01*
X130810000Y-100426698D02*
X130810000Y-100418372D01*
X130810000Y-100442633D02*
X130810000Y-100426698D01*
X130810000Y-100468649D02*
X130810000Y-100442633D01*
X130810000Y-100507215D02*
X130810000Y-100468649D01*
X130810000Y-100560804D02*
X130810000Y-100507215D01*
X130810000Y-100631884D02*
X130810000Y-100560804D01*
X130810002Y-100722924D02*
X130810000Y-100631884D01*
X130810521Y-100834997D02*
X130810002Y-100722924D01*
X130813364Y-100965700D02*
X130810521Y-100834997D01*
X130820534Y-101112094D02*
X130813364Y-100965700D01*
X130834032Y-101271241D02*
X130820534Y-101112094D01*
X130855862Y-101440203D02*
X130834032Y-101271241D01*
X130888027Y-101616040D02*
X130855862Y-101440203D01*
X130932529Y-101795814D02*
X130888027Y-101616040D01*
X130991372Y-101976588D02*
X130932529Y-101795814D01*
X131066551Y-102155425D02*
X130991372Y-101976588D01*
X131158967Y-102329824D02*
X131066551Y-102155425D01*
X131267346Y-102498146D02*
X131158967Y-102329824D01*
X131390151Y-102658858D02*
X131267346Y-102498146D01*
X131525849Y-102810423D02*
X131390151Y-102658858D01*
X131672903Y-102951306D02*
X131525849Y-102810423D01*
X131829779Y-103079973D02*
X131672903Y-102951306D01*
X131994942Y-103194889D02*
X131829779Y-103079973D01*
X132166856Y-103294518D02*
X131994942Y-103194889D01*
X132343979Y-103377344D02*
X132166856Y-103294518D01*
X132524261Y-103443132D02*
X132343979Y-103377344D01*
X132704837Y-103493697D02*
X132524261Y-103443132D01*
X132882769Y-103531044D02*
X132704837Y-103493697D01*
X133055118Y-103557175D02*
X132882769Y-103531044D01*
X133218945Y-103574092D02*
X133055118Y-103557175D01*
X133371313Y-103583799D02*
X133218945Y-103574092D01*
X133509282Y-103588299D02*
X133371313Y-103583799D01*
X133629914Y-103589594D02*
X133509282Y-103588299D01*
X133730950Y-103589666D02*
X133629914Y-103589594D01*
X133836485Y-103589666D02*
X133730950Y-103589666D01*
X134004860Y-103589666D02*
X133836485Y-103589666D01*
X134296700Y-103589666D02*
X134004860Y-103589666D01*
X134772631Y-103589666D02*
X134296700Y-103589666D01*
X135493280Y-103589666D02*
X134772631Y-103589666D01*
X136519273Y-103589666D02*
X135493280Y-103589666D01*
X137911237Y-103589666D02*
X136519273Y-103589666D01*
X139729798Y-103589666D02*
X137911237Y-103589666D01*
X142032321Y-103589666D02*
X139729798Y-103589666D01*
X144793617Y-103589666D02*
X142032321Y-103589666D01*
X147901522Y-103589666D02*
X144793617Y-103589666D01*
X151239723Y-103589666D02*
X147901522Y-103589666D01*
X154691909Y-103589666D02*
X151239723Y-103589666D01*
X158141769Y-103589666D02*
X154691909Y-103589666D01*
X161472991Y-103589666D02*
X158141769Y-103589666D01*
X164569264Y-103589666D02*
X161472991Y-103589666D01*
X167314277Y-103589666D02*
X164569264Y-103589666D01*
X169596896Y-103589666D02*
X167314277Y-103589666D01*
X171397229Y-103589666D02*
X169596896Y-103589666D01*
X172773390Y-103589666D02*
X171397229Y-103589666D01*
X173786006Y-103589666D02*
X172773390Y-103589666D01*
X174495702Y-103589666D02*
X173786006Y-103589666D01*
X174963105Y-103589666D02*
X174495702Y-103589666D01*
X175248843Y-103589666D02*
X174963105Y-103589666D01*
X175413540Y-103589666D02*
X175248843Y-103589666D01*
X175517823Y-103589666D02*
X175413540Y-103589666D01*
X175619542Y-103589579D02*
X175517823Y-103589666D01*
X175740924Y-103588194D02*
X175619542Y-103589579D01*
X175879526Y-103583524D02*
X175740924Y-103588194D01*
X176032408Y-103573567D02*
X175879526Y-103583524D01*
X176196633Y-103556320D02*
X176032408Y-103573567D01*
X176369261Y-103529779D02*
X176196633Y-103556320D01*
X176547355Y-103491942D02*
X176369261Y-103529779D01*
X176727976Y-103440806D02*
X176547355Y-103491942D01*
X176908185Y-103374368D02*
X176727976Y-103440806D01*
X177085132Y-103290845D02*
X176908185Y-103374368D01*
X177256805Y-103190576D02*
X177085132Y-103290845D01*
X177421666Y-103075080D02*
X177256805Y-103190576D01*
X177578179Y-102945895D02*
X177421666Y-103075080D01*
X177724808Y-102804555D02*
X177578179Y-102945895D01*
X177860020Y-102652595D02*
X177724808Y-102804555D01*
X177982277Y-102491549D02*
X177860020Y-102652595D01*
X178090047Y-102322954D02*
X177982277Y-102491549D01*
X178181793Y-102148344D02*
X178090047Y-102322954D01*
X178256283Y-101969375D02*
X178181793Y-102148344D01*
X178314513Y-101788585D02*
X178256283Y-101969375D01*
X178358484Y-101608911D02*
X178314513Y-101788585D01*
X178390197Y-101433293D02*
X178358484Y-101608911D01*
X178411655Y-101264667D02*
X178390197Y-101433293D01*
X178424862Y-101105974D02*
X178411655Y-101264667D01*
X178431820Y-100960151D02*
X178424862Y-101105974D01*
X178434531Y-100830137D02*
X178431820Y-100960151D01*
X178435000Y-100718870D02*
X178434531Y-100830137D01*
X178435000Y-100626642D02*
X178435000Y-100718870D01*
X178435000Y-100538524D02*
X178435000Y-100626642D01*
X178435000Y-100434159D02*
X178435000Y-100538524D01*
X178435000Y-100293182D02*
X178435000Y-100434159D01*
X178435000Y-100095228D02*
X178435000Y-100293182D01*
X178435000Y-99819932D02*
X178435000Y-100095228D01*
X178435000Y-99446930D02*
X178435000Y-99819932D01*
X178435000Y-98955857D02*
X178435000Y-99446930D01*
X178435000Y-98326348D02*
X178435000Y-98955857D01*
X178435000Y-97546318D02*
X178435000Y-98326348D01*
X178435000Y-96641031D02*
X178435000Y-97546318D01*
X178435000Y-95646273D02*
X178435000Y-96641031D01*
X178435000Y-94597833D02*
X178435000Y-95646273D01*
X178435000Y-93531499D02*
X178435000Y-94597833D01*
X178435000Y-92483060D02*
X178435000Y-93531499D01*
X178435000Y-91488302D02*
X178435000Y-92483060D01*
X178435000Y-90583015D02*
X178435000Y-91488302D01*
X178435000Y-89802985D02*
X178435000Y-90583015D01*
X178435000Y-89173476D02*
X178435000Y-89802985D01*
X178435000Y-88682403D02*
X178435000Y-89173476D01*
X178435000Y-88309401D02*
X178435000Y-88682403D01*
X178435000Y-88034105D02*
X178435000Y-88309401D01*
X178435000Y-87836151D02*
X178435000Y-88034105D01*
X178435000Y-87695174D02*
X178435000Y-87836151D01*
X178435000Y-87590809D02*
X178435000Y-87695174D01*
X178435000Y-87502691D02*
X178435000Y-87590809D01*
X178435000Y-87410463D02*
X178435000Y-87502691D01*
X178434531Y-87299196D02*
X178435000Y-87410463D01*
X178431820Y-87169182D02*
X178434531Y-87299196D01*
X178424862Y-87023359D02*
X178431820Y-87169182D01*
X178411655Y-86864665D02*
X178424862Y-87023359D01*
X178390197Y-86696040D02*
X178411655Y-86864665D01*
X178358484Y-86520422D02*
X178390197Y-86696040D01*
X178314513Y-86340748D02*
X178358484Y-86520422D01*
X178256283Y-86159958D02*
X178314513Y-86340748D01*
X178181793Y-85980988D02*
X178256283Y-86159958D01*
X178090047Y-85806378D02*
X178181793Y-85980988D01*
X177982277Y-85637783D02*
X178090047Y-85806378D01*
X177860020Y-85476738D02*
X177982277Y-85637783D01*
X177724808Y-85324778D02*
X177860020Y-85476738D01*
X177578179Y-85183438D02*
X177724808Y-85324778D01*
X177421666Y-85054252D02*
X177578179Y-85183438D01*
X177256805Y-84938757D02*
X177421666Y-85054252D01*
X177085132Y-84838487D02*
X177256805Y-84938757D01*
X176908185Y-84754965D02*
X177085132Y-84838487D01*
X176727976Y-84688527D02*
X176908185Y-84754965D01*
X176547355Y-84637391D02*
X176727976Y-84688527D01*
X176369261Y-84599554D02*
X176547355Y-84637391D01*
X176196633Y-84573013D02*
X176369261Y-84599554D01*
X176032408Y-84555766D02*
X176196633Y-84573013D01*
X175879526Y-84545808D02*
X176032408Y-84555766D01*
X175740924Y-84541139D02*
X175879526Y-84545808D01*
X175619542Y-84539754D02*
X175740924Y-84541139D01*
X175517823Y-84539666D02*
X175619542Y-84539754D01*
X175413540Y-84539666D02*
X175517823Y-84539666D01*
X175248843Y-84539666D02*
X175413540Y-84539666D01*
X174963105Y-84539666D02*
X175248843Y-84539666D01*
X174495702Y-84539666D02*
X174963105Y-84539666D01*
X173786006Y-84539666D02*
X174495702Y-84539666D01*
X172773390Y-84539666D02*
X173786006Y-84539666D01*
X171397229Y-84539666D02*
X172773390Y-84539666D01*
X169596896Y-84539666D02*
X171397229Y-84539666D01*
X167314277Y-84539666D02*
X169596896Y-84539666D01*
X164569264Y-84539666D02*
X167314277Y-84539666D01*
X161472991Y-84539666D02*
X164569264Y-84539666D01*
X158141769Y-84539666D02*
X161472991Y-84539666D01*
X154691909Y-84539666D02*
X158141769Y-84539666D01*
X151239723Y-84539666D02*
X154691909Y-84539666D01*
X147901522Y-84539666D02*
X151239723Y-84539666D01*
X144793617Y-84539666D02*
X147901522Y-84539666D01*
X142032321Y-84539666D02*
X144793617Y-84539666D01*
X139729798Y-84539666D02*
X142032321Y-84539666D01*
X137911237Y-84539666D02*
X139729798Y-84539666D01*
X136519273Y-84539666D02*
X137911237Y-84539666D01*
X135493280Y-84539666D02*
X136519273Y-84539666D01*
X134772631Y-84539666D02*
X135493280Y-84539666D01*
X134296700Y-84539666D02*
X134772631Y-84539666D01*
X134004860Y-84539666D02*
X134296700Y-84539666D01*
X133836485Y-84539666D02*
X134004860Y-84539666D01*
X133730950Y-84539666D02*
X133836485Y-84539666D01*
X133629914Y-84539739D02*
X133730950Y-84539666D01*
X133509282Y-84541034D02*
X133629914Y-84539739D01*
X133371313Y-84545533D02*
X133509282Y-84541034D01*
X133218945Y-84555241D02*
X133371313Y-84545533D01*
X133055118Y-84572158D02*
X133218945Y-84555241D01*
X132882769Y-84598289D02*
X133055118Y-84572158D01*
X132704837Y-84635636D02*
X132882769Y-84598289D01*
X132524261Y-84686201D02*
X132704837Y-84635636D01*
X132343979Y-84751988D02*
X132524261Y-84686201D01*
X132166856Y-84834815D02*
X132343979Y-84751988D01*
X131994942Y-84934444D02*
X132166856Y-84834815D01*
X131829779Y-85049359D02*
X131994942Y-84934444D01*
X131672903Y-85178027D02*
X131829779Y-85049359D01*
X131525849Y-85318910D02*
X131672903Y-85178027D01*
X131390151Y-85470475D02*
X131525849Y-85318910D01*
X131267346Y-85631186D02*
X131390151Y-85470475D01*
X131158967Y-85799509D02*
X131267346Y-85631186D01*
X131066551Y-85973908D02*
X131158967Y-85799509D01*
X130991372Y-86152745D02*
X131066551Y-85973908D01*
X130932529Y-86333518D02*
X130991372Y-86152745D01*
X130888027Y-86513293D02*
X130932529Y-86333518D01*
X130855862Y-86689130D02*
X130888027Y-86513293D01*
X130834032Y-86858091D02*
X130855862Y-86689130D01*
X130820534Y-87017238D02*
X130834032Y-86858091D01*
X130813364Y-87163633D02*
X130820534Y-87017238D01*
X130810521Y-87294336D02*
X130813364Y-87163633D01*
X130810002Y-87406409D02*
X130810521Y-87294336D01*
X130810000Y-87499216D02*
X130810002Y-87406409D01*
X130810000Y-87587108D02*
X130810000Y-87499216D01*
X130810000Y-87690432D02*
X130810000Y-87587108D01*
X130810000Y-87829554D02*
X130810000Y-87690432D01*
X130810000Y-88024838D02*
X130810000Y-87829554D01*
X130810000Y-88296649D02*
X130810000Y-88024838D01*
X130810000Y-88665352D02*
X130810000Y-88296649D01*
X130810000Y-89151311D02*
X130810000Y-88665352D01*
X130810000Y-89774891D02*
X130810000Y-89151311D01*
X130810000Y-90549170D02*
X130810000Y-89774891D01*
X130810000Y-91450134D02*
X130810000Y-90549170D01*
X130810000Y-92442000D02*
X130810000Y-91450134D01*
X130810000Y-93488980D02*
X130810000Y-92442000D01*
X130810000Y-94555285D02*
X130810000Y-93488980D01*
X130810000Y-95605128D02*
X130810000Y-94555285D01*
X130810000Y-96602720D02*
X130810000Y-95605128D01*
X130810000Y-97512273D02*
X130810000Y-96602720D01*
X130810000Y-98298000D02*
X130810000Y-97512273D01*
M02*
