G04 #@! TF.GenerationSoftware,KiCad,Pcbnew,(5.0.2-4-gb601aea34)*
G04 #@! TF.CreationDate,2019-09-30T13:15:35-05:00*
G04 #@! TF.ProjectId,mic switch,6d696320-7377-4697-9463-682e6b696361,rev?*
G04 #@! TF.SameCoordinates,Original*
G04 #@! TF.FileFunction,Legend,Top*
G04 #@! TF.FilePolarity,Positive*
%FSLAX46Y46*%
G04 Gerber Fmt 4.6, Leading zero omitted, Abs format (unit mm)*
G04 Created by KiCad (PCBNEW (5.0.2-4-gb601aea34)) date Monday, September 30, 2019 at 01:15:35 PM*
%MOMM*%
%LPD*%
G01*
G04 APERTURE LIST*
%ADD10C,0.250000*%
%ADD11C,0.100000*%
%ADD12C,0.150000*%
%ADD13C,0.120000*%
G04 APERTURE END LIST*
D10*
X172805380Y-99948285D02*
X172138714Y-99948285D01*
X172233952Y-99948285D02*
X172186333Y-99900666D01*
X172138714Y-99805428D01*
X172138714Y-99662571D01*
X172186333Y-99567333D01*
X172281571Y-99519714D01*
X172805380Y-99519714D01*
X172281571Y-99519714D02*
X172186333Y-99472095D01*
X172138714Y-99376857D01*
X172138714Y-99234000D01*
X172186333Y-99138761D01*
X172281571Y-99091142D01*
X172805380Y-99091142D01*
X172805380Y-98614952D02*
X172138714Y-98614952D01*
X171805380Y-98614952D02*
X171853000Y-98662571D01*
X171900619Y-98614952D01*
X171853000Y-98567333D01*
X171805380Y-98614952D01*
X171900619Y-98614952D01*
X172757761Y-97710190D02*
X172805380Y-97805428D01*
X172805380Y-97995904D01*
X172757761Y-98091142D01*
X172710142Y-98138761D01*
X172614904Y-98186380D01*
X172329190Y-98186380D01*
X172233952Y-98138761D01*
X172186333Y-98091142D01*
X172138714Y-97995904D01*
X172138714Y-97805428D01*
X172186333Y-97710190D01*
X172805380Y-97281619D02*
X171805380Y-97281619D01*
X172186333Y-97281619D02*
X172138714Y-97186380D01*
X172138714Y-96995904D01*
X172186333Y-96900666D01*
X172233952Y-96853047D01*
X172329190Y-96805428D01*
X172614904Y-96805428D01*
X172710142Y-96853047D01*
X172757761Y-96900666D01*
X172805380Y-96995904D01*
X172805380Y-97186380D01*
X172757761Y-97281619D01*
X172805380Y-96234000D02*
X172757761Y-96329238D01*
X172710142Y-96376857D01*
X172614904Y-96424476D01*
X172329190Y-96424476D01*
X172233952Y-96376857D01*
X172186333Y-96329238D01*
X172138714Y-96234000D01*
X172138714Y-96091142D01*
X172186333Y-95995904D01*
X172233952Y-95948285D01*
X172329190Y-95900666D01*
X172614904Y-95900666D01*
X172710142Y-95948285D01*
X172757761Y-95995904D01*
X172805380Y-96091142D01*
X172805380Y-96234000D01*
X172805380Y-95043523D02*
X172281571Y-95043523D01*
X172186333Y-95091142D01*
X172138714Y-95186380D01*
X172138714Y-95376857D01*
X172186333Y-95472095D01*
X172757761Y-95043523D02*
X172805380Y-95138761D01*
X172805380Y-95376857D01*
X172757761Y-95472095D01*
X172662523Y-95519714D01*
X172567285Y-95519714D01*
X172472047Y-95472095D01*
X172424428Y-95376857D01*
X172424428Y-95138761D01*
X172376809Y-95043523D01*
X172805380Y-94567333D02*
X172138714Y-94567333D01*
X172329190Y-94567333D02*
X172233952Y-94519714D01*
X172186333Y-94472095D01*
X172138714Y-94376857D01*
X172138714Y-94281619D01*
X172805380Y-93519714D02*
X171805380Y-93519714D01*
X172757761Y-93519714D02*
X172805380Y-93614952D01*
X172805380Y-93805428D01*
X172757761Y-93900666D01*
X172710142Y-93948285D01*
X172614904Y-93995904D01*
X172329190Y-93995904D01*
X172233952Y-93948285D01*
X172186333Y-93900666D01*
X172138714Y-93805428D01*
X172138714Y-93614952D01*
X172186333Y-93519714D01*
X172805380Y-92281619D02*
X171805380Y-92281619D01*
X172186333Y-92281619D02*
X172138714Y-92186380D01*
X172138714Y-91995904D01*
X172186333Y-91900666D01*
X172233952Y-91853047D01*
X172329190Y-91805428D01*
X172614904Y-91805428D01*
X172710142Y-91853047D01*
X172757761Y-91900666D01*
X172805380Y-91995904D01*
X172805380Y-92186380D01*
X172757761Y-92281619D01*
X172805380Y-91234000D02*
X172757761Y-91329238D01*
X172710142Y-91376857D01*
X172614904Y-91424476D01*
X172329190Y-91424476D01*
X172233952Y-91376857D01*
X172186333Y-91329238D01*
X172138714Y-91234000D01*
X172138714Y-91091142D01*
X172186333Y-90995904D01*
X172233952Y-90948285D01*
X172329190Y-90900666D01*
X172614904Y-90900666D01*
X172710142Y-90948285D01*
X172757761Y-90995904D01*
X172805380Y-91091142D01*
X172805380Y-91234000D01*
X172805380Y-90043523D02*
X172281571Y-90043523D01*
X172186333Y-90091142D01*
X172138714Y-90186380D01*
X172138714Y-90376857D01*
X172186333Y-90472095D01*
X172757761Y-90043523D02*
X172805380Y-90138761D01*
X172805380Y-90376857D01*
X172757761Y-90472095D01*
X172662523Y-90519714D01*
X172567285Y-90519714D01*
X172472047Y-90472095D01*
X172424428Y-90376857D01*
X172424428Y-90138761D01*
X172376809Y-90043523D01*
X172805380Y-89567333D02*
X172138714Y-89567333D01*
X172329190Y-89567333D02*
X172233952Y-89519714D01*
X172186333Y-89472095D01*
X172138714Y-89376857D01*
X172138714Y-89281619D01*
X172805380Y-88519714D02*
X171805380Y-88519714D01*
X172757761Y-88519714D02*
X172805380Y-88614952D01*
X172805380Y-88805428D01*
X172757761Y-88900666D01*
X172710142Y-88948285D01*
X172614904Y-88995904D01*
X172329190Y-88995904D01*
X172233952Y-88948285D01*
X172186333Y-88900666D01*
X172138714Y-88805428D01*
X172138714Y-88614952D01*
X172186333Y-88519714D01*
X174555380Y-96686380D02*
X174079190Y-97019714D01*
X174555380Y-97257809D02*
X173555380Y-97257809D01*
X173555380Y-96876857D01*
X173603000Y-96781619D01*
X173650619Y-96734000D01*
X173745857Y-96686380D01*
X173888714Y-96686380D01*
X173983952Y-96734000D01*
X174031571Y-96781619D01*
X174079190Y-96876857D01*
X174079190Y-97257809D01*
X173555380Y-96067333D02*
X173555380Y-95972095D01*
X173603000Y-95876857D01*
X173650619Y-95829238D01*
X173745857Y-95781619D01*
X173936333Y-95734000D01*
X174174428Y-95734000D01*
X174364904Y-95781619D01*
X174460142Y-95829238D01*
X174507761Y-95876857D01*
X174555380Y-95972095D01*
X174555380Y-96067333D01*
X174507761Y-96162571D01*
X174460142Y-96210190D01*
X174364904Y-96257809D01*
X174174428Y-96305428D01*
X173936333Y-96305428D01*
X173745857Y-96257809D01*
X173650619Y-96210190D01*
X173603000Y-96162571D01*
X173555380Y-96067333D01*
X173650619Y-94591142D02*
X173603000Y-94543523D01*
X173555380Y-94448285D01*
X173555380Y-94210190D01*
X173603000Y-94114952D01*
X173650619Y-94067333D01*
X173745857Y-94019714D01*
X173841095Y-94019714D01*
X173983952Y-94067333D01*
X174555380Y-94638761D01*
X174555380Y-94019714D01*
X173555380Y-93400666D02*
X173555380Y-93305428D01*
X173603000Y-93210190D01*
X173650619Y-93162571D01*
X173745857Y-93114952D01*
X173936333Y-93067333D01*
X174174428Y-93067333D01*
X174364904Y-93114952D01*
X174460142Y-93162571D01*
X174507761Y-93210190D01*
X174555380Y-93305428D01*
X174555380Y-93400666D01*
X174507761Y-93495904D01*
X174460142Y-93543523D01*
X174364904Y-93591142D01*
X174174428Y-93638761D01*
X173936333Y-93638761D01*
X173745857Y-93591142D01*
X173650619Y-93543523D01*
X173603000Y-93495904D01*
X173555380Y-93400666D01*
X174555380Y-92114952D02*
X174555380Y-92686380D01*
X174555380Y-92400666D02*
X173555380Y-92400666D01*
X173698238Y-92495904D01*
X173793476Y-92591142D01*
X173841095Y-92686380D01*
X174555380Y-91638761D02*
X174555380Y-91448285D01*
X174507761Y-91353047D01*
X174460142Y-91305428D01*
X174317285Y-91210190D01*
X174126809Y-91162571D01*
X173745857Y-91162571D01*
X173650619Y-91210190D01*
X173603000Y-91257809D01*
X173555380Y-91353047D01*
X173555380Y-91543523D01*
X173603000Y-91638761D01*
X173650619Y-91686380D01*
X173745857Y-91734000D01*
X173983952Y-91734000D01*
X174079190Y-91686380D01*
X174126809Y-91638761D01*
X174174428Y-91543523D01*
X174174428Y-91353047D01*
X174126809Y-91257809D01*
X174079190Y-91210190D01*
X173983952Y-91162571D01*
D11*
G04 #@! TO.C,M1*
X139224000Y-92655000D02*
X139224000Y-95305000D01*
X139224000Y-95305000D02*
X135724000Y-95305000D01*
X135724000Y-95305000D02*
X135724000Y-92655000D01*
X135724000Y-92655000D02*
X139224000Y-92655000D01*
D12*
G04 #@! TO.C,SW1*
X145605500Y-84886800D02*
X154114500Y-84886800D01*
D13*
G04 #@! TO.C,C1*
X141454000Y-88812000D02*
X140454000Y-88812000D01*
X140454000Y-90512000D02*
X141454000Y-90512000D01*
G04 #@! TO.C,C2*
X157646000Y-89416000D02*
X157646000Y-90416000D01*
X159346000Y-90416000D02*
X159346000Y-89416000D01*
G04 #@! TO.C,R1*
X137318000Y-90542000D02*
X136118000Y-90542000D01*
X136118000Y-88782000D02*
X137318000Y-88782000D01*
G04 #@! TO.C,R2*
X161408000Y-89316000D02*
X161408000Y-90516000D01*
X159648000Y-90516000D02*
X159648000Y-89316000D01*
G04 #@! TO.C,R3*
X137804000Y-98390000D02*
X137804000Y-97190000D01*
X139564000Y-97190000D02*
X139564000Y-98390000D01*
G04 #@! TO.C,R4*
X139836000Y-98390000D02*
X139836000Y-97190000D01*
X141596000Y-97190000D02*
X141596000Y-98390000D01*
G04 #@! TO.C,M1*
D12*
X135842476Y-96718380D02*
X135842476Y-95718380D01*
X136175809Y-96432666D01*
X136509142Y-95718380D01*
X136509142Y-96718380D01*
X137509142Y-96718380D02*
X136937714Y-96718380D01*
X137223428Y-96718380D02*
X137223428Y-95718380D01*
X137128190Y-95861238D01*
X137032952Y-95956476D01*
X136937714Y-96004095D01*
G04 #@! TO.C,J2*
X144446666Y-93940380D02*
X144446666Y-94654666D01*
X144399047Y-94797523D01*
X144303809Y-94892761D01*
X144160952Y-94940380D01*
X144065714Y-94940380D01*
X144875238Y-94035619D02*
X144922857Y-93988000D01*
X145018095Y-93940380D01*
X145256190Y-93940380D01*
X145351428Y-93988000D01*
X145399047Y-94035619D01*
X145446666Y-94130857D01*
X145446666Y-94226095D01*
X145399047Y-94368952D01*
X144827619Y-94940380D01*
X145446666Y-94940380D01*
G04 #@! TO.C,SW1*
X148577466Y-88415761D02*
X148720323Y-88463380D01*
X148958419Y-88463380D01*
X149053657Y-88415761D01*
X149101276Y-88368142D01*
X149148895Y-88272904D01*
X149148895Y-88177666D01*
X149101276Y-88082428D01*
X149053657Y-88034809D01*
X148958419Y-87987190D01*
X148767942Y-87939571D01*
X148672704Y-87891952D01*
X148625085Y-87844333D01*
X148577466Y-87749095D01*
X148577466Y-87653857D01*
X148625085Y-87558619D01*
X148672704Y-87511000D01*
X148767942Y-87463380D01*
X149006038Y-87463380D01*
X149148895Y-87511000D01*
X149482228Y-87463380D02*
X149720323Y-88463380D01*
X149910800Y-87749095D01*
X150101276Y-88463380D01*
X150339371Y-87463380D01*
X151244133Y-88463380D02*
X150672704Y-88463380D01*
X150958419Y-88463380D02*
X150958419Y-87463380D01*
X150863180Y-87606238D01*
X150767942Y-87701476D01*
X150672704Y-87749095D01*
G04 #@! TO.C,C1*
X140787333Y-88241142D02*
X140739714Y-88288761D01*
X140596857Y-88336380D01*
X140501619Y-88336380D01*
X140358761Y-88288761D01*
X140263523Y-88193523D01*
X140215904Y-88098285D01*
X140168285Y-87907809D01*
X140168285Y-87764952D01*
X140215904Y-87574476D01*
X140263523Y-87479238D01*
X140358761Y-87384000D01*
X140501619Y-87336380D01*
X140596857Y-87336380D01*
X140739714Y-87384000D01*
X140787333Y-87431619D01*
X141739714Y-88336380D02*
X141168285Y-88336380D01*
X141454000Y-88336380D02*
X141454000Y-87336380D01*
X141358761Y-87479238D01*
X141263523Y-87574476D01*
X141168285Y-87622095D01*
G04 #@! TO.C,C2*
X158853142Y-93130666D02*
X158900761Y-93178285D01*
X158948380Y-93321142D01*
X158948380Y-93416380D01*
X158900761Y-93559238D01*
X158805523Y-93654476D01*
X158710285Y-93702095D01*
X158519809Y-93749714D01*
X158376952Y-93749714D01*
X158186476Y-93702095D01*
X158091238Y-93654476D01*
X157996000Y-93559238D01*
X157948380Y-93416380D01*
X157948380Y-93321142D01*
X157996000Y-93178285D01*
X158043619Y-93130666D01*
X158043619Y-92749714D02*
X157996000Y-92702095D01*
X157948380Y-92606857D01*
X157948380Y-92368761D01*
X157996000Y-92273523D01*
X158043619Y-92225904D01*
X158138857Y-92178285D01*
X158234095Y-92178285D01*
X158376952Y-92225904D01*
X158948380Y-92797333D01*
X158948380Y-92178285D01*
G04 #@! TO.C,R1*
X136551333Y-88336380D02*
X136218000Y-87860190D01*
X135979904Y-88336380D02*
X135979904Y-87336380D01*
X136360857Y-87336380D01*
X136456095Y-87384000D01*
X136503714Y-87431619D01*
X136551333Y-87526857D01*
X136551333Y-87669714D01*
X136503714Y-87764952D01*
X136456095Y-87812571D01*
X136360857Y-87860190D01*
X135979904Y-87860190D01*
X137503714Y-88336380D02*
X136932285Y-88336380D01*
X137218000Y-88336380D02*
X137218000Y-87336380D01*
X137122761Y-87479238D01*
X137027523Y-87574476D01*
X136932285Y-87622095D01*
G04 #@! TO.C,R2*
X160980380Y-92876666D02*
X160504190Y-93210000D01*
X160980380Y-93448095D02*
X159980380Y-93448095D01*
X159980380Y-93067142D01*
X160028000Y-92971904D01*
X160075619Y-92924285D01*
X160170857Y-92876666D01*
X160313714Y-92876666D01*
X160408952Y-92924285D01*
X160456571Y-92971904D01*
X160504190Y-93067142D01*
X160504190Y-93448095D01*
X160075619Y-92495714D02*
X160028000Y-92448095D01*
X159980380Y-92352857D01*
X159980380Y-92114761D01*
X160028000Y-92019523D01*
X160075619Y-91971904D01*
X160170857Y-91924285D01*
X160266095Y-91924285D01*
X160408952Y-91971904D01*
X160980380Y-92543333D01*
X160980380Y-91924285D01*
G04 #@! TO.C,R3*
X138517333Y-100782380D02*
X138184000Y-100306190D01*
X137945904Y-100782380D02*
X137945904Y-99782380D01*
X138326857Y-99782380D01*
X138422095Y-99830000D01*
X138469714Y-99877619D01*
X138517333Y-99972857D01*
X138517333Y-100115714D01*
X138469714Y-100210952D01*
X138422095Y-100258571D01*
X138326857Y-100306190D01*
X137945904Y-100306190D01*
X138850666Y-99782380D02*
X139469714Y-99782380D01*
X139136380Y-100163333D01*
X139279238Y-100163333D01*
X139374476Y-100210952D01*
X139422095Y-100258571D01*
X139469714Y-100353809D01*
X139469714Y-100591904D01*
X139422095Y-100687142D01*
X139374476Y-100734761D01*
X139279238Y-100782380D01*
X138993523Y-100782380D01*
X138898285Y-100734761D01*
X138850666Y-100687142D01*
G04 #@! TO.C,J1*
X160234380Y-98377333D02*
X160948666Y-98377333D01*
X161091523Y-98424952D01*
X161186761Y-98520190D01*
X161234380Y-98663047D01*
X161234380Y-98758285D01*
X161234380Y-97377333D02*
X161234380Y-97948761D01*
X161234380Y-97663047D02*
X160234380Y-97663047D01*
X160377238Y-97758285D01*
X160472476Y-97853523D01*
X160520095Y-97948761D01*
G04 #@! TO.C,R4*
X140549333Y-100782380D02*
X140216000Y-100306190D01*
X139977904Y-100782380D02*
X139977904Y-99782380D01*
X140358857Y-99782380D01*
X140454095Y-99830000D01*
X140501714Y-99877619D01*
X140549333Y-99972857D01*
X140549333Y-100115714D01*
X140501714Y-100210952D01*
X140454095Y-100258571D01*
X140358857Y-100306190D01*
X139977904Y-100306190D01*
X141406476Y-100115714D02*
X141406476Y-100782380D01*
X141168380Y-99734761D02*
X140930285Y-100449047D01*
X141549333Y-100449047D01*
G04 #@! TD*
M02*
