<?xml version="1.0" encoding="UTF-8" standalone="no"?><!DOCTYPE svg PUBLIC "-//W3C//DTD SVG 1.1//EN" "http://www.w3.org/Graphics/SVG/1.1/DTD/svg11.dtd"><svg width="100%" height="100%" viewBox="0 0 1851 1309" version="1.1" xmlns="http://www.w3.org/2000/svg" xmlns:xlink="http://www.w3.org/1999/xlink" xml:space="preserve" xmlns:serif="http://www.serif.com/" style="fill-rule:evenodd;clip-rule:evenodd;stroke-miterlimit:10;"><g id="Top-cut" serif:id="Top cut"><path d="M1106.26,946.66l-112.525,-0c-41.412,-0 -74.987,-33.575 -74.987,-74.988l-0,-412.525c-0,-41.412 33.575,-74.987 74.987,-74.987l112.525,-0c41.413,-0 74.988,33.575 74.988,74.987l-0,412.525c-0,41.413 -33.575,74.988 -74.988,74.988Z" style="fill:none;fill-rule:nonzero;stroke:#231f20;stroke-width:4.17px;"/><path d="M1108.5,909.461l-117,-0c-20.713,-0 -37.5,-16.788 -37.5,-37.5l-0,-413.1c-0,-20.713 16.787,-37.5 37.5,-37.5l117,-0c20.712,-0 37.5,16.787 37.5,37.5l-0,413.1c-0,20.712 -16.788,37.5 -37.5,37.5Z" style="fill:none;fill-rule:nonzero;stroke:#231f20;stroke-width:2.08px;"/></g><g id="pcb-clear-zone" serif:id="pcb clear zone"><path d="M1106.25,440.41l-112.5,-0c-10.354,-0 -18.75,8.396 -18.75,18.75l-0,412.5c-0,10.354 8.396,18.75 18.75,18.75l112.5,-0c10.354,-0 18.75,-8.396 18.75,-18.75l-0,-412.5c-0,-10.354 -8.396,-18.75 -18.75,-18.75Z" style="fill:none;fill-rule:nonzero;stroke:#231f20;stroke-width:1.04px;stroke-dasharray:8.28,16.56;"/><path d="M1106.25,890.227l-112.5,-0c-10.354,-0 -18.75,-8.396 -18.75,-18.75l-0,-412.5c-0,-10.354 8.396,-18.75 18.75,-18.75l112.5,-0c10.354,-0 18.75,8.396 18.75,18.75l-0,412.5c-0,10.354 -8.396,18.75 -18.75,18.75Z" style="fill:none;fill-rule:nonzero;stroke:#231f20;stroke-width:1.04px;"/></g><g id="old"><path d="M974.994,615.159l-18.583,0l-0,100.5l18.583,0m-0,-100.5l-0,-41.066l-13.5,-0l-0,-77.4l13.5,-0l-0,-37.534c-0,-10.354 8.396,-18.75 18.75,-18.75l112.5,0c10.358,0 18.75,8.396 18.75,18.75l-0,37.534l13.5,-0l-0,77.4l-13.5,-0l-0,297.566c-0,10.354 -8.392,18.75 -18.75,18.75l-112.5,0c-10.354,0 -18.75,-8.396 -18.75,-18.75l-0,-156" style="fill:none;fill-rule:nonzero;stroke:#231f20;stroke-width:1.04px;"/></g><g id="Side"><rect x="768.746" y="1175.01" width="562.5" height="112.5" style="fill:#754c29;stroke:#231f20;stroke-width:4.17px;"/><rect x="824.996" y="1175.01" width="450" height="74.996" style="fill:#fff;"/><path d="M1270.83,1175.01l4.167,0l-0,4.167" style="fill:none;fill-rule:nonzero;stroke:#231f20;stroke-width:1.04px;"/><path d="M1275,1195.84l-0,41.662" style="fill:none;fill-rule:nonzero;stroke:#231f20;stroke-width:1.04px;stroke-dasharray:8.33,16.67;"/><path d="M1275,1245.84l-0,4.167l-4.167,0" style="fill:none;fill-rule:nonzero;stroke:#231f20;stroke-width:1.04px;"/><path d="M1254.16,1250.01l-416.667,0" style="fill:none;fill-rule:nonzero;stroke:#231f20;stroke-width:1.04px;stroke-dasharray:8.33,16.67;"/><path d="M829.163,1250.01l-4.167,0l-0,-4.167" style="fill:none;fill-rule:nonzero;stroke:#231f20;stroke-width:1.04px;"/><path d="M824.996,1229.17l-0,-41.663" style="fill:none;fill-rule:nonzero;stroke:#231f20;stroke-width:1.04px;stroke-dasharray:8.33,16.67;"/><path d="M824.996,1179.18l-0,-4.167l4.167,0" style="fill:none;fill-rule:nonzero;stroke:#231f20;stroke-width:1.04px;"/><path d="M845.829,1175.01l416.667,0" style="fill:none;fill-rule:nonzero;stroke:#231f20;stroke-width:1.04px;stroke-dasharray:8.33,16.67;"/><rect x="806.246" y="1175" width="487.5" height="18.9" style="fill:#662d91;"/><path d="M1289.58,1175l4.167,0l-0,4.167" style="fill:none;fill-rule:nonzero;stroke:#231f20;stroke-width:1.04px;"/><path d="M1293.75,1189.74l-0,4.167l-4.167,-0" style="fill:none;fill-rule:nonzero;stroke:#231f20;stroke-width:1.04px;"/><path d="M1273.34,1193.9l-454.8,-0" style="fill:none;fill-rule:nonzero;stroke:#231f20;stroke-width:1.04px;stroke-dasharray:8.12,16.24;"/><path d="M810.413,1193.9l-4.167,-0l-0,-4.167" style="fill:none;fill-rule:nonzero;stroke:#231f20;stroke-width:1.04px;"/><path d="M806.246,1179.17l-0,-4.167l4.167,0" style="fill:none;fill-rule:nonzero;stroke:#231f20;stroke-width:1.04px;"/><path d="M826.656,1175l454.8,0" style="fill:none;fill-rule:nonzero;stroke:#231f20;stroke-width:1.04px;stroke-dasharray:8.12,16.24;"/><rect x="890.621" y="1175" width="216" height="90.004" style="fill:#fff;"/><path d="M1102.45,1175l4.167,0l0,4.167" style="fill:none;fill-rule:nonzero;stroke:#2e3192;stroke-width:1.04px;"/><path d="M1106.62,1194.02l0,59.391" style="fill:none;fill-rule:nonzero;stroke:#2e3192;stroke-width:1.04px;stroke-dasharray:7.43,14.85;"/><path d="M1106.62,1260.84l0,4.166l-4.167,0" style="fill:none;fill-rule:nonzero;stroke:#2e3192;stroke-width:1.04px;"/><path d="M1086.48,1265l-183.704,0" style="fill:none;fill-rule:nonzero;stroke:#2e3192;stroke-width:1.04px;stroke-dasharray:7.99,15.98;"/><path d="M894.788,1265l-4.167,0l-0,-4.166" style="fill:none;fill-rule:nonzero;stroke:#2e3192;stroke-width:1.04px;"/><path d="M890.621,1245.99l-0,-59.396" style="fill:none;fill-rule:nonzero;stroke:#2e3192;stroke-width:1.04px;stroke-dasharray:7.43,14.85;"/><path d="M890.621,1179.17l-0,-4.167l4.167,0" style="fill:none;fill-rule:nonzero;stroke:#2e3192;stroke-width:1.04px;"/><path d="M910.763,1175l183.704,0" style="fill:none;fill-rule:nonzero;stroke:#2e3192;stroke-width:1.04px;stroke-dasharray:7.99,15.98;"/></g><g id="button-depth" serif:id="button depth"><rect x="956.246" y="490.393" width="187.5" height="90" style="fill:none;stroke:#2e3192;stroke-width:1.04px;"/><rect x="956.246" y="597.91" width="105" height="135" style="fill:none;stroke:#2e3192;stroke-width:1.04px;"/></g><g id="dot"><path d="M1054.72,496.694c0,2.609 -2.117,4.725 -4.725,4.725c-2.608,0 -4.725,-2.116 -4.725,-4.725c0,-2.608 2.117,-4.725 4.725,-4.725c2.608,0 4.725,2.117 4.725,4.725" style="fill:#231f20;fill-rule:nonzero;"/></g><g id="Fancy"><rect x="193.546" y="641.86" width="28.2" height="47.1" style="fill:#414042;"/><path d="M406.307,946.66l-112.529,-0c-41.413,-0 -74.984,-33.575 -74.984,-74.988l0,-412.525c0,-41.412 33.571,-74.987 74.984,-74.987l112.529,-0c41.412,-0 74.987,33.575 74.987,74.987l0,412.525c0,41.413 -33.575,74.988 -74.987,74.988Z" style="fill:#754c29;fill-rule:nonzero;stroke:#231f20;stroke-width:4.17px;"/><path d="M406.293,909.16l-112.5,-0c-20.713,-0 -37.5,-16.788 -37.5,-37.5l-0,-412.5c-0,-20.713 16.787,-37.5 37.5,-37.5l112.5,-0c20.712,-0 37.5,16.787 37.5,37.5l-0,412.5c-0,20.712 -16.788,37.5 -37.5,37.5Z" style="fill:#662d91;fill-rule:nonzero;stroke:#231f20;stroke-width:2.08px;"/><path d="M273.942,688.249l-1.208,-1.821l-6.588,-9.954l-6.312,-9.533l-3.017,-4.559l0,12.063l11.367,16.725c1.508,-0.95 3.133,-1.767 4.808,-2.492c0.321,-0.142 0.625,-0.3 0.95,-0.429" style="fill:#fbb040;fill-rule:nonzero;"/><path d="M319.22,662.38l-3.021,4.563l-6.308,9.529l-6.588,9.954l-1.208,1.821c0.325,0.133 0.629,0.291 0.95,0.429c1.679,0.729 3.3,1.542 4.804,2.496l11.371,-16.729l0,-12.063Z" style="fill:#fbb040;fill-rule:nonzero;"/><path d="M273.126,660.153c0,-7.23 6.667,-13.088 14.892,-13.088c8.225,0 14.892,5.858 14.892,13.088c-0,7.229 -6.667,13.087 -14.892,13.087c-8.225,0 -14.892,-5.858 -14.892,-13.087m-3.787,-1.167l-2.971,-4.546c2.792,-8.183 11.429,-14.15 21.65,-14.15c10.221,0 18.858,5.967 21.65,14.15l-2.971,4.546c-0.8,-8.45 -8.854,-15.088 -18.679,-15.088c-9.821,0 -17.879,6.638 -18.679,15.088m-7.733,-11.846c4.891,-8.45 14.883,-14.242 26.412,-14.242c11.529,0 21.521,5.792 26.413,14.242l-2.567,3.933c-3.9,-8.191 -13.108,-13.945 -23.846,-13.945c-10.737,-0 -19.942,5.754 -23.846,13.945l-2.566,-3.933Zm25.108,38.458l-0.454,-0.695l-1.671,-2.555l-1.888,-2.891l-2.745,-4.209c2.441,1.025 5.175,1.6 8.062,1.6c2.888,0 5.621,-0.575 8.063,-1.6l-2.746,4.209l-1.888,2.891l-1.666,2.555l-0.455,0.695c0.43,0.013 0.842,0.071 1.267,0.1c1.421,0.092 2.813,0.259 4.179,0.505c0.409,0.075 0.834,0.116 1.242,0.208l1.979,-2.971l2.458,-3.692l3.942,-5.912l5.229,-7.842l4.234,-6.354l3.366,-5.046l2,-2.996l0,-11.791l-2.475,3.791c-3.012,-4.145 -7.154,-7.591 -12.041,-10.012c-0.034,-0.017 -0.063,-0.033 -0.096,-0.05c-4.909,-2.413 -10.567,-3.788 -16.592,-3.788c-6.025,0 -11.679,1.375 -16.587,3.788c-0.038,0.017 -0.071,0.037 -0.105,0.054c-4.883,2.421 -9.025,5.863 -12.033,10.008l-2.479,-3.791l-0,11.791l2,2.996l3.367,5.046l4.237,6.354l5.225,7.842l3.942,5.912l2.458,3.692l1.979,2.971c0.409,-0.092 0.829,-0.133 1.246,-0.208c1.363,-0.246 2.754,-0.413 4.175,-0.505c0.425,-0.029 0.842,-0.087 1.271,-0.1" style="fill:#fbb040;fill-rule:nonzero;"/><path d="M335.138,686.426l-6.592,-9.954l-6.308,-9.529l-3.017,-4.563l0,12.063l11.367,16.729c1.508,-0.954 3.129,-1.767 4.808,-2.496c0.321,-0.138 0.625,-0.296 0.95,-0.429l-1.208,-1.821Z" style="fill:#fbb040;fill-rule:nonzero;"/><path d="M381.624,674.443l0,-12.062l-3.021,4.562l-6.308,9.529l-6.587,9.954l-1.209,1.821c0.325,0.134 0.629,0.292 0.946,0.429c1.683,0.73 3.3,1.542 4.808,2.496l11.371,-16.729Z" style="fill:#fbb040;fill-rule:nonzero;"/><path d="M376.835,647.142l-2.567,3.933c-3.904,-8.192 -13.108,-13.946 -23.845,-13.946c-10.738,0 -19.946,5.754 -23.85,13.946l-2.563,-3.933c4.892,-8.454 14.883,-14.242 26.413,-14.242c11.529,0 21.52,5.788 26.412,14.242m-7.733,11.846c-0.8,-8.45 -8.859,-15.092 -18.679,-15.092c-9.825,-0 -17.88,6.642 -18.68,15.092l-2.97,-4.55c2.791,-8.184 11.429,-14.15 21.65,-14.15c10.22,-0 18.858,5.966 21.645,14.15l-2.966,4.55Zm-18.679,14.25c-8.225,-0 -14.896,-5.859 -14.896,-13.084c-0,-7.229 6.671,-13.091 14.896,-13.091c8.225,-0 14.891,5.862 14.891,13.091c0,7.225 -6.666,13.084 -14.891,13.084m-28.73,-29.642l-2.475,-3.788l0,11.788l1.996,2.996l3.367,5.05l4.237,6.354l5.225,7.842l3.946,5.912l2.459,3.688l1.979,2.97c0.408,-0.087 0.829,-0.133 1.241,-0.204c1.367,-0.246 2.759,-0.412 4.175,-0.508c0.43,-0.025 0.842,-0.083 1.271,-0.096l-0.454,-0.696l-1.667,-2.554l-1.887,-2.896l-2.746,-4.204c2.442,1.025 5.175,1.596 8.063,1.596c2.887,-0 5.62,-0.571 8.062,-1.596l-2.746,4.204l-1.887,2.896l-1.671,2.554l-0.454,0.696c0.429,0.013 0.846,0.071 1.271,0.096c1.42,0.096 2.812,0.262 4.175,0.508c0.412,0.071 0.837,0.117 1.245,0.204l1.98,-2.97l6.4,-9.6l5.225,-7.842l4.237,-6.354l3.367,-5.05l1.996,-2.996l-0,-11.788l-2.475,3.788c-3.009,-4.142 -7.15,-7.588 -12.038,-10.008c-0.033,-0.017 -0.062,-0.034 -0.096,-0.05c-4.912,-2.413 -10.571,-3.788 -16.591,-3.788c-6.025,0 -11.684,1.375 -16.592,3.788c-0.033,0.016 -0.067,0.033 -0.1,0.05c-4.888,2.42 -9.029,5.866 -12.038,10.008" style="fill:#fbb040;fill-rule:nonzero;"/><path d="M397.54,686.426l-6.587,-9.954l-6.313,-9.529l-3.017,-4.563l0,12.063l11.367,16.729c1.513,-0.954 3.133,-1.767 4.813,-2.496c0.316,-0.138 0.62,-0.296 0.945,-0.429l-1.208,-1.821Z" style="fill:#fbb040;fill-rule:nonzero;"/><path d="M434.698,676.473l-6.591,9.955l-1.204,1.82c0.325,0.13 0.629,0.292 0.945,0.43c1.68,0.729 3.3,1.541 4.809,2.491l11.133,-16.375l0,-12.058l-2.783,4.204l-6.309,9.533Z" style="fill:#fbb040;fill-rule:nonzero;"/><path d="M436.672,651.075c-3.904,-8.192 -13.109,-13.946 -23.846,-13.946c-10.738,-0 -19.946,5.754 -23.846,13.946l-2.571,-3.934c4.896,-8.454 14.884,-14.241 26.417,-14.241c11.529,-0 21.521,5.787 26.412,14.241l-2.566,3.934Zm-5.167,7.912c-0.8,-8.45 -8.858,-15.091 -18.679,-15.091c-9.825,-0 -17.879,6.641 -18.683,15.091l-2.967,-4.546c2.792,-8.187 11.425,-14.15 21.65,-14.15c10.221,0 18.858,5.963 21.65,14.15l-2.971,4.546Zm-18.679,14.25c-8.225,0 -14.892,-5.854 -14.892,-13.083c0,-7.229 6.667,-13.088 14.892,-13.088c8.225,0 14.892,5.859 14.892,13.088c-0,7.229 -6.667,13.083 -14.892,13.083m16.687,-39.65c-0.033,-0.016 -0.062,-0.033 -0.095,-0.05c-4.909,-2.412 -10.567,-3.787 -16.592,-3.787c-6.025,-0 -11.679,1.375 -16.592,3.787l-0.1,0.054c-4.887,2.417 -9.029,5.863 -12.037,10.009l-2.471,-3.792l-0,11.788l1.996,2.995l3.366,5.05l4.234,6.355l5.225,7.841l3.946,5.913l2.458,3.691l1.979,2.967c0.408,-0.087 0.829,-0.133 1.242,-0.204c1.366,-0.246 2.758,-0.413 4.179,-0.504c0.425,-0.029 0.837,-0.088 1.267,-0.1l-0.455,-0.696l-1.666,-2.554l-1.892,-2.892l-2.742,-4.208c2.442,1.025 5.175,1.6 8.063,1.6c2.887,-0 5.621,-0.575 8.062,-1.6l-2.745,4.208l-1.888,2.892l-1.671,2.554l-0.454,0.696c0.429,0.012 0.846,0.071 1.271,0.1c1.421,0.091 2.808,0.258 4.175,0.504c0.412,0.071 0.837,0.117 1.242,0.204l1.983,-2.967l2.458,-3.691l3.942,-5.913l5.225,-7.841l4.237,-6.355l3.367,-5.05l1.758,-2.641l0,-11.779l-2.237,3.429c-3.008,-4.146 -7.15,-7.592 -12.038,-10.013" style="fill:#fbb040;fill-rule:nonzero;"/><path d="M272.994,632.723c0.321,-0.137 0.621,-0.3 0.95,-0.429l-1.208,-1.825l-6.592,-9.95l-6.308,-9.533l-3.021,-4.558l-0,12.062l11.371,16.729c0.983,-0.625 2.075,-1.112 3.141,-1.629c0.034,-0.017 0.067,-0.037 0.104,-0.054c0.53,-0.258 1.017,-0.575 1.563,-0.813" style="fill:#fbb040;fill-rule:nonzero;"/><path d="M307.851,635.218l11.371,-16.73l0,-12.062l-3.021,4.562l-6.308,9.53l-6.592,9.954l-1.204,1.821c0.321,0.133 0.629,0.291 0.946,0.429c0.55,0.237 1.033,0.558 1.567,0.816c0.033,0.013 0.062,0.03 0.096,0.046c1.066,0.521 2.158,1.013 3.145,1.634" style="fill:#fbb040;fill-rule:nonzero;"/><path d="M311.865,595.122c-3.904,-8.192 -13.108,-13.946 -23.846,-13.946c-10.737,-0 -19.946,5.754 -23.846,13.946l-2.57,-3.934c4.895,-8.454 14.883,-14.245 26.416,-14.245c11.529,-0 21.521,5.791 26.413,14.245l-2.567,3.934Zm-5.167,7.912c-0.8,-8.45 -8.858,-15.091 -18.679,-15.091c-9.825,-0 -17.879,6.641 -18.683,15.091l-2.967,-4.546c2.792,-8.187 11.425,-14.15 21.65,-14.15c10.221,0 18.859,5.963 21.65,14.15l-2.971,4.546Zm-18.679,14.254c-8.225,0 -14.891,-5.862 -14.891,-13.091c-0,-7.229 6.666,-13.088 14.891,-13.088c8.225,0 14.892,5.859 14.892,13.088c-0,7.229 -6.667,13.091 -14.892,13.091m28.725,-29.641c-6.046,-8.329 -16.654,-13.854 -28.725,-13.854c-12.075,-0 -22.683,5.525 -28.729,13.854l-2.475,-3.792l0,11.788l2,2.995l3.367,5.05l4.233,6.355l5.225,7.837l3.942,5.917l2.462,3.687l1.979,2.971c0.409,-0.087 0.83,-0.133 1.242,-0.208c1.367,-0.242 2.758,-0.409 4.179,-0.504c0.421,-0.025 0.838,-0.084 1.267,-0.096l-0.454,-0.696l-1.667,-2.558l-1.892,-2.888l-2.745,-4.208c2.445,1.025 5.179,1.6 8.066,1.6c2.888,-0 5.617,-0.575 8.063,-1.6l-2.746,4.208l-1.888,2.888l-1.67,2.558l-0.455,0.696c0.43,0.012 0.846,0.071 1.271,0.096c1.421,0.095 2.809,0.262 4.175,0.504c0.413,0.075 0.838,0.121 1.242,0.208l1.983,-2.971l2.459,-3.687l3.941,-5.917l5.225,-7.837l4.238,-6.355l3.366,-5.05l1.996,-2.995l0,-11.788l-2.475,3.792Z" style="fill:#fbb040;fill-rule:nonzero;"/><path d="M330.589,635.218c0.983,-0.621 2.075,-1.113 3.142,-1.63c0.033,-0.016 0.066,-0.033 0.1,-0.05c0.533,-0.258 1.02,-0.579 1.566,-0.816c0.321,-0.138 0.625,-0.296 0.946,-0.429l-1.204,-1.821l-6.592,-9.954l-6.308,-9.53l-3.021,-4.562l0,12.062l11.371,16.73Z" style="fill:#fbb040;fill-rule:nonzero;"/><path d="M370.256,635.218l11.37,-16.73l0,-12.062l-3.02,4.562l-6.313,9.53l-6.587,9.954l-1.209,1.821c0.325,0.133 0.629,0.291 0.95,0.429c0.546,0.237 1.034,0.558 1.567,0.816c0.033,0.017 0.062,0.03 0.096,0.046c1.066,0.521 2.158,1.013 3.146,1.634" style="fill:#fbb040;fill-rule:nonzero;"/><path d="M374.268,595.122c-3.905,-8.192 -13.109,-13.946 -23.846,-13.946c-10.738,-0 -19.946,5.754 -23.846,13.946l-2.567,-3.934c4.892,-8.454 14.884,-14.245 26.413,-14.245c11.529,-0 21.521,5.791 26.412,14.245l-2.566,3.934Zm-5.167,7.912c-0.8,-8.45 -8.858,-15.091 -18.679,-15.091c-9.825,-0 -17.879,6.641 -18.679,15.091l-2.971,-4.546c2.791,-8.187 11.429,-14.15 21.65,-14.15c10.221,0 18.858,5.963 21.65,14.15l-2.971,4.546Zm-18.679,14.254c-8.225,0 -14.892,-5.862 -14.892,-13.091c0,-7.229 6.667,-13.088 14.892,-13.088c8.225,0 14.891,5.859 14.891,13.088c0,7.229 -6.666,13.091 -14.891,13.091m28.725,-29.641c-6.046,-8.329 -16.65,-13.854 -28.725,-13.854c-12.075,-0 -22.684,5.525 -28.729,13.854l-2.471,-3.792l-0,11.788l1.996,2.995l3.366,5.05l4.234,6.355l5.229,7.837l3.941,5.917l2.459,3.687l1.979,2.971c0.408,-0.087 0.833,-0.133 1.242,-0.208c1.366,-0.242 2.758,-0.409 4.179,-0.504c0.425,-0.025 0.837,-0.084 1.266,-0.096l-0.454,-0.696l-1.666,-2.558l-1.888,-2.888l-2.746,-4.208c2.442,1.025 5.175,1.6 8.063,1.6c2.887,-0 5.621,-0.575 8.062,-1.6l-2.746,4.208l-1.887,2.888l-1.671,2.558l-0.454,0.696c0.429,0.012 0.846,0.071 1.271,0.096c1.421,0.095 2.812,0.262 4.175,0.504c0.416,0.075 0.837,0.121 1.246,0.208l1.979,-2.971l2.458,-3.687l3.946,-5.917l5.221,-7.837l4.237,-6.355l3.367,-5.05l2,-2.995l-0,-11.788l-2.479,3.792Z" style="fill:#fbb040;fill-rule:nonzero;"/><path d="M392.991,635.218c0.987,-0.621 2.075,-1.113 3.142,-1.63l0.104,-0.054c0.533,-0.254 1.016,-0.575 1.566,-0.812c0.317,-0.138 0.621,-0.296 0.946,-0.429l-1.208,-1.821l-6.588,-9.954l-6.312,-9.53l-3.017,-4.562l0,12.062l11.367,16.73Z" style="fill:#fbb040;fill-rule:nonzero;"/><path d="M434.698,620.518l-6.591,9.955l-1.204,1.82c0.325,0.13 0.629,0.292 0.945,0.43c0.55,0.237 1.034,0.558 1.567,0.816c0.033,0.013 0.067,0.029 0.096,0.046c1.071,0.521 2.158,1.008 3.146,1.633l11.133,-16.383l0,-12.054l-2.783,4.204l-6.309,9.533Z" style="fill:#fbb040;fill-rule:nonzero;"/><path d="M436.672,595.122c-3.904,-8.192 -13.109,-13.946 -23.846,-13.946c-10.738,-0 -19.946,5.754 -23.846,13.946l-2.571,-3.934c4.896,-8.454 14.884,-14.245 26.417,-14.245c11.529,-0 21.521,5.791 26.412,14.245l-2.566,3.934Zm-5.167,7.912c-0.8,-8.45 -8.858,-15.091 -18.679,-15.091c-9.825,-0 -17.879,6.641 -18.683,15.091l-2.967,-4.546c2.792,-8.187 11.425,-14.15 21.65,-14.15c10.221,0 18.858,5.963 21.65,14.15l-2.971,4.546Zm-18.679,14.254c-8.225,0 -14.892,-5.862 -14.892,-13.091c0,-7.229 6.667,-13.088 14.892,-13.088c8.225,0 14.892,5.859 14.892,13.088c-0,7.229 -6.667,13.091 -14.892,13.091m-0,-43.495c-12.075,-0 -22.683,5.525 -28.729,13.854l-2.471,-3.792l-0,11.788l1.996,2.995l3.366,5.05l4.234,6.355l5.225,7.837l3.946,5.917l2.458,3.687l1.979,2.971c0.408,-0.087 0.829,-0.133 1.242,-0.208c1.366,-0.242 2.758,-0.409 4.179,-0.504c0.425,-0.025 0.837,-0.084 1.267,-0.096l-0.455,-0.696l-1.666,-2.558l-1.892,-2.888l-2.742,-4.208c2.442,1.025 5.175,1.6 8.063,1.6c2.887,-0 5.621,-0.575 8.062,-1.6l-2.745,4.208l-1.888,2.888l-1.671,2.558l-0.454,0.696c0.429,0.012 0.846,0.071 1.271,0.096c1.421,0.095 2.808,0.262 4.175,0.504c0.412,0.075 0.837,0.121 1.242,0.208l1.983,-2.971l2.458,-3.687l3.942,-5.917l5.225,-7.837l4.237,-6.355l3.367,-5.05l1.758,-2.641l0,-11.784l-2.237,3.434c-6.046,-8.329 -16.65,-13.854 -28.725,-13.854" style="fill:#fbb040;fill-rule:nonzero;"/><path d="M273.942,744.051l-1.208,-1.82l-6.588,-9.955l-6.312,-9.533l-3.017,-4.558l0,12.062l11.371,16.729c0.938,-0.587 1.921,-1.137 2.929,-1.641c0.425,-0.221 0.875,-0.4 1.317,-0.6c0.5,-0.229 0.987,-0.475 1.508,-0.684" style="fill:#fbb040;fill-rule:nonzero;"/><path d="M319.22,730.249l0,-12.066l-3.021,4.558l-6.308,9.533l-6.588,9.954l-1.208,1.825c0.517,0.205 1.008,0.455 1.513,0.684c0.437,0.196 0.883,0.379 1.312,0.591c1.008,0.509 1.988,1.059 2.929,1.65l11.371,-16.729Z" style="fill:#fbb040;fill-rule:nonzero;"/><path d="M273.126,715.955c0,-7.225 6.667,-13.087 14.892,-13.087c8.225,-0 14.892,5.862 14.892,13.087c-0,7.229 -6.667,13.092 -14.892,13.092c-8.225,-0 -14.892,-5.863 -14.892,-13.092m-3.787,-1.162l-2.971,-4.55c2.792,-8.184 11.429,-14.15 21.65,-14.15c10.221,-0 18.858,5.966 21.65,14.15l-2.971,4.55c-0.8,-8.455 -8.854,-15.092 -18.679,-15.092c-9.821,-0 -17.879,6.637 -18.679,15.092m-7.733,-11.846c4.891,-8.454 14.883,-14.246 26.412,-14.246c11.529,-0 21.521,5.792 26.413,14.246l-2.567,3.929c-3.9,-8.192 -13.108,-13.942 -23.846,-13.942c-10.737,0 -19.942,5.75 -23.846,13.942l-2.566,-3.929Zm25.108,38.454l-0.454,-0.692l-1.671,-2.558l-1.888,-2.892l-2.745,-4.204c2.441,1.021 5.175,1.596 8.062,1.596c2.888,-0 5.621,-0.575 8.063,-1.596l-2.746,4.204l-1.888,2.892l-1.666,2.558l-0.455,0.692c0.717,0.025 1.421,0.104 2.125,0.162c0.413,0.038 0.83,0.05 1.234,0.1c1.129,0.134 2.237,0.317 3.329,0.55l1.979,-2.97l2.458,-3.692l3.942,-5.913l5.229,-7.841l7.6,-11.4l2,-2.996l0,-11.792l-2.475,3.792c-2.341,-3.221 -5.371,-6.004 -8.896,-8.229c-1.508,-0.954 -3.129,-1.767 -4.808,-2.496c-2.592,-1.121 -5.358,-1.958 -8.271,-2.475c-1.366,-0.242 -2.758,-0.408 -4.179,-0.504c-0.854,-0.054 -1.7,-0.146 -2.575,-0.146c-0.871,-0 -1.717,0.092 -2.575,0.146c-1.421,0.096 -2.812,0.262 -4.175,0.504c-2.912,0.517 -5.683,1.354 -8.275,2.475c-1.679,0.729 -3.3,1.542 -4.808,2.496c-3.521,2.225 -6.554,5.008 -8.892,8.229l-2.479,-3.792l-0,11.792l2,2.996l3.367,5.05l4.237,6.35l5.225,7.841l3.942,5.913l2.458,3.692l1.979,2.97c1.092,-0.233 2.2,-0.416 3.329,-0.55c0.405,-0.05 0.825,-0.062 1.234,-0.1c0.708,-0.058 1.408,-0.137 2.129,-0.162" style="fill:#fbb040;fill-rule:nonzero;"/><path d="M335.138,742.228l-6.592,-9.954l-6.308,-9.533l-3.017,-4.558l0,12.066l11.371,16.729c0.938,-0.591 1.921,-1.141 2.925,-1.645c0.429,-0.221 0.879,-0.4 1.317,-0.596c0.504,-0.229 0.996,-0.479 1.512,-0.688l-1.208,-1.821Z" style="fill:#fbb040;fill-rule:nonzero;"/><path d="M370.253,746.977l11.371,-16.729l0,-12.062l-3.021,4.558l-6.308,9.533l-6.587,9.95l-1.209,1.825c0.517,0.209 1.009,0.454 1.509,0.684c0.441,0.2 0.887,0.383 1.316,0.591c1.009,0.513 1.988,1.059 2.929,1.65" style="fill:#fbb040;fill-rule:nonzero;"/><path d="M374.268,706.877c-3.905,-8.192 -13.109,-13.946 -23.846,-13.946c-10.738,-0 -19.946,5.754 -23.846,13.946l-2.567,-3.929c4.892,-8.459 14.884,-14.246 26.413,-14.246c11.529,-0 21.521,5.787 26.412,14.246l-2.566,3.929Zm-5.167,7.912c-0.8,-8.45 -8.858,-15.091 -18.679,-15.091c-9.825,-0 -17.879,6.641 -18.679,15.091l-2.971,-4.546c2.791,-8.183 11.429,-14.15 21.65,-14.15c10.221,0 18.858,5.967 21.65,14.15l-2.971,4.546Zm-18.679,14.254c-8.225,0 -14.892,-5.858 -14.892,-13.087c0,-7.229 6.667,-13.088 14.892,-13.088c8.225,0 14.891,5.859 14.891,13.088c0,7.229 -6.666,13.087 -14.891,13.087m19.833,-37.875c-1.508,-0.95 -3.129,-1.762 -4.808,-2.491c-2.592,-1.125 -5.363,-1.959 -8.275,-2.475c-1.363,-0.246 -2.754,-0.413 -4.175,-0.504c-0.859,-0.059 -1.704,-0.146 -2.575,-0.146c-0.875,-0 -1.721,0.087 -2.575,0.146c-1.421,0.091 -2.813,0.258 -4.179,0.504c-2.909,0.516 -5.68,1.35 -8.271,2.475c-1.679,0.729 -3.3,1.541 -4.809,2.491c-3.525,2.23 -6.558,5.013 -8.895,8.234l-2.471,-3.792l-0,11.792l1.996,2.996l7.6,11.4l5.229,7.841l3.941,5.913l2.459,3.691l1.979,2.967c1.092,-0.229 2.2,-0.412 3.329,-0.546c0.404,-0.05 0.821,-0.062 1.233,-0.1c0.709,-0.058 1.409,-0.137 2.125,-0.162l-0.454,-0.692l-1.666,-2.558l-1.888,-2.892l-2.746,-4.204c2.442,1.021 5.175,1.596 8.063,1.596c2.887,-0 5.621,-0.575 8.062,-1.596l-2.746,4.204l-1.887,2.892l-1.671,2.558l-0.454,0.692c0.721,0.025 1.421,0.104 2.129,0.162c0.408,0.038 0.829,0.05 1.233,0.1c1.13,0.134 2.238,0.317 3.33,0.546l1.979,-2.967l2.458,-3.691l3.946,-5.913l5.221,-7.841l4.237,-6.35l3.367,-5.05l2,-2.996l-0,-11.792l-2.479,3.792c-2.338,-3.221 -5.371,-6.004 -8.892,-8.234" style="fill:#fbb040;fill-rule:nonzero;"/><path d="M397.54,742.228l-6.587,-9.954l-6.313,-9.533l-3.017,-4.558l0,12.066l11.371,16.729c0.938,-0.591 1.921,-1.141 2.929,-1.645c0.425,-0.221 0.875,-0.4 1.317,-0.596c0.5,-0.229 0.992,-0.479 1.508,-0.688l-1.208,-1.821Z" style="fill:#fbb040;fill-rule:nonzero;"/><path d="M434.698,732.276l-6.591,9.954l-1.204,1.821c0.516,0.208 1.008,0.458 1.512,0.683c0.438,0.2 0.883,0.384 1.313,0.596c1.008,0.508 1.987,1.058 2.929,1.646l11.133,-16.379l0,-12.059l-2.783,4.205l-6.309,9.533Z" style="fill:#fbb040;fill-rule:nonzero;"/><path d="M436.672,706.877c-3.904,-8.192 -13.109,-13.946 -23.846,-13.946c-10.738,-0 -19.946,5.754 -23.846,13.946l-2.571,-3.929c4.896,-8.459 14.884,-14.246 26.417,-14.246c11.529,-0 21.521,5.787 26.412,14.246l-2.566,3.929Zm-5.167,7.912c-0.8,-8.45 -8.858,-15.091 -18.679,-15.091c-9.825,-0 -17.879,6.641 -18.683,15.091l-2.967,-4.546c2.792,-8.183 11.425,-14.15 21.65,-14.15c10.221,0 18.858,5.967 21.65,14.15l-2.971,4.546Zm-18.679,14.254c-8.225,0 -14.892,-5.858 -14.892,-13.087c0,-7.229 6.667,-13.088 14.892,-13.088c8.225,0 14.892,5.859 14.892,13.088c-0,7.229 -6.667,13.087 -14.892,13.087m19.833,-37.875c-1.508,-0.95 -3.129,-1.762 -4.808,-2.491c-2.592,-1.125 -5.363,-1.959 -8.275,-2.475c-1.367,-0.246 -2.754,-0.413 -4.175,-0.504c-0.858,-0.059 -1.704,-0.146 -2.575,-0.146c-0.875,-0 -1.721,0.087 -2.575,0.146c-1.421,0.091 -2.813,0.258 -4.179,0.504c-2.909,0.516 -5.679,1.35 -8.271,2.475c-1.679,0.729 -3.3,1.541 -4.808,2.491c-3.525,2.23 -6.559,5.013 -8.896,8.234l-2.471,-3.792l-0,11.792l1.996,2.996l7.6,11.4l5.225,7.841l3.946,5.913l2.458,3.691l1.979,2.967c1.092,-0.229 2.2,-0.412 3.329,-0.546c0.404,-0.05 0.821,-0.062 1.234,-0.1c0.708,-0.058 1.408,-0.137 2.125,-0.162l-0.455,-0.692l-1.666,-2.558l-1.892,-2.892l-2.742,-4.204c2.442,1.021 5.175,1.596 8.063,1.596c2.887,-0 5.621,-0.575 8.062,-1.596l-2.745,4.204l-1.888,2.892l-1.671,2.558l-0.454,0.692c0.721,0.025 1.421,0.104 2.129,0.162c0.409,0.038 0.825,0.05 1.234,0.1c1.125,0.134 2.237,0.317 3.325,0.546l1.983,-2.967l2.458,-3.691l3.942,-5.913l5.225,-7.841l4.237,-6.35l3.367,-5.05l1.758,-2.646l0,-11.779l-2.237,3.429c-2.338,-3.221 -5.371,-6.004 -8.892,-8.234" style="fill:#fbb040;fill-rule:nonzero;"/><path d="M272.733,798.047l-6.587,-9.954l-6.313,-9.529l-3.016,-4.563l-0,12.067l11.35,16.704c1.796,-1.137 3.737,-2.091 5.771,-2.904l-1.205,-1.821Z" style="fill:#fbb040;fill-rule:nonzero;"/><path d="M319.22,774.003l-3.021,4.563l-6.308,9.529l-6.588,9.954l-1.204,1.817c2.034,0.812 3.975,1.771 5.771,2.904l11.35,-16.7l0,-12.067Z" style="fill:#fbb040;fill-rule:nonzero;"/><path d="M273.126,771.773c0,-7.225 6.667,-13.087 14.892,-13.087c8.225,-0 14.892,5.862 14.892,13.087c-0,7.23 -6.667,13.092 -14.892,13.092c-8.225,0 -14.892,-5.862 -14.892,-13.092m-3.787,-1.162l-2.971,-4.546c2.792,-8.187 11.429,-14.154 21.65,-14.154c10.221,-0 18.858,5.967 21.65,14.154l-2.971,4.546c-0.8,-8.45 -8.854,-15.088 -18.679,-15.088c-9.821,0 -17.879,6.638 -18.679,15.088m-7.733,-11.846c4.891,-8.45 14.883,-14.246 26.412,-14.246c11.529,0 21.521,5.796 26.413,14.246l-2.567,3.933c-3.9,-8.191 -13.108,-13.945 -23.846,-13.945c-10.737,-0 -19.942,5.754 -23.846,13.945l-2.566,-3.933Zm24.654,37.763l-1.671,-2.559l-1.888,-2.891l-2.745,-4.205c2.441,1.025 5.175,1.6 8.062,1.6c2.888,0 5.621,-0.575 8.063,-1.6l-2.746,4.205l-1.888,2.891l-1.666,2.559l-0.45,0.683c2.295,0.079 4.541,0.342 6.7,0.796l1.962,-2.946l2.458,-3.688l3.942,-5.916l5.229,-7.838l4.234,-6.354l3.366,-5.05l2,-2.996l0,-11.787l-2.475,3.787c-2.966,-4.079 -7.037,-7.475 -11.829,-9.891c-0.425,-0.209 -0.875,-0.392 -1.312,-0.592c-3.359,-1.525 -7.025,-2.604 -10.921,-3.075c-0.404,-0.046 -0.821,-0.058 -1.234,-0.096c-1.133,-0.096 -2.266,-0.196 -3.433,-0.196c-1.162,0 -2.3,0.1 -3.433,0.196c-0.409,0.038 -0.829,0.05 -1.234,0.096c-3.895,0.471 -7.558,1.55 -10.92,3.075c-0.438,0.2 -0.888,0.379 -1.313,0.596c-4.792,2.412 -8.862,5.808 -11.825,9.887l-2.479,-3.787l-0,11.787l2,2.996l3.367,5.05l4.237,6.354l5.225,7.838l3.942,5.916l2.458,3.688l1.963,2.946c2.162,-0.454 4.404,-0.717 6.7,-0.796l-0.446,-0.683Z" style="fill:#fbb040;fill-rule:nonzero;"/><path d="M328.548,788.094l-6.308,-9.529l-3.021,-4.562l-0,12.066l11.35,16.7c1.796,-1.133 3.737,-2.087 5.771,-2.904l-1.2,-1.817l-6.592,-9.954Z" style="fill:#fbb040;fill-rule:nonzero;"/><path d="M381.624,786.068l0,-12.067l-3.021,4.563l-6.308,9.529l-6.587,9.954l-1.205,1.821c2.03,0.813 3.975,1.767 5.767,2.904l11.354,-16.704Z" style="fill:#fbb040;fill-rule:nonzero;"/><path d="M374.268,762.7c-3.905,-8.192 -13.109,-13.95 -23.846,-13.95c-10.738,-0 -19.946,5.758 -23.846,13.95l-2.567,-3.934c4.892,-8.454 14.884,-14.245 26.413,-14.245c11.529,-0 21.521,5.791 26.412,14.245l-2.566,3.934Zm-5.167,7.908c-0.8,-8.446 -8.858,-15.087 -18.679,-15.087c-9.825,-0 -17.879,6.641 -18.679,15.087l-2.971,-4.542c2.791,-8.187 11.429,-14.154 21.65,-14.154c10.221,0 18.858,5.967 21.65,14.154l-2.971,4.542Zm-18.679,14.254c-8.225,0 -14.892,-5.858 -14.892,-13.087c0,-7.229 6.667,-13.088 14.892,-13.088c8.225,0 14.891,5.859 14.891,13.088c0,7.229 -6.666,13.087 -14.891,13.087m16.9,-39.533c-0.425,-0.213 -0.871,-0.396 -1.313,-0.596c-3.358,-1.525 -7.025,-2.604 -10.921,-3.071c-0.404,-0.05 -0.825,-0.058 -1.233,-0.096c-1.133,-0.1 -2.271,-0.195 -3.433,-0.195c-1.163,-0 -2.3,0.095 -3.434,0.195c-0.412,0.038 -0.829,0.046 -1.233,0.096c-3.896,0.467 -7.562,1.546 -10.921,3.071c-0.437,0.2 -0.887,0.379 -1.316,0.6c-4.788,2.413 -8.859,5.808 -11.825,9.888l-2.471,-3.788l-0,11.788l1.996,2.995l3.366,5.05l4.234,6.355l5.229,7.837l3.941,5.917l2.459,3.687l1.962,2.946c2.163,-0.458 4.404,-0.717 6.7,-0.796l-0.45,-0.683l-1.666,-2.558l-1.888,-2.892l-2.746,-4.204c2.442,1.025 5.175,1.6 8.063,1.6c2.887,-0 5.621,-0.575 8.062,-1.6l-2.746,4.204l-1.887,2.892l-1.671,2.558l-0.446,0.683c2.3,0.079 4.538,0.338 6.7,0.796l1.963,-2.946l2.458,-3.687l3.946,-5.917l5.221,-7.837l4.237,-6.355l3.367,-5.05l2,-2.995l-0,-11.788l-2.479,3.788c-2.963,-4.08 -7.034,-7.475 -11.825,-9.892" style="fill:#fbb040;fill-rule:nonzero;"/><path d="M390.953,788.094l-6.313,-9.529l-3.017,-4.562l0,12.066l11.35,16.7c1.796,-1.133 3.738,-2.087 5.771,-2.904l-1.204,-1.817l-6.587,-9.954Z" style="fill:#fbb040;fill-rule:nonzero;"/><path d="M434.698,788.094l-6.591,9.954l-1.2,1.817c2.033,0.817 3.975,1.771 5.771,2.904l11.112,-16.354l0,-12.058l-2.783,4.208l-6.309,9.529Z" style="fill:#fbb040;fill-rule:nonzero;"/><path d="M436.672,762.7c-3.904,-8.192 -13.109,-13.95 -23.846,-13.95c-10.738,-0 -19.946,5.758 -23.846,13.95l-2.571,-3.934c4.896,-8.454 14.884,-14.245 26.417,-14.245c11.529,-0 21.521,5.791 26.412,14.245l-2.566,3.934Zm-5.167,7.908c-0.8,-8.446 -8.858,-15.087 -18.679,-15.087c-9.825,-0 -17.879,6.641 -18.683,15.087l-2.967,-4.542c2.792,-8.187 11.425,-14.154 21.65,-14.154c10.221,0 18.858,5.967 21.65,14.154l-2.971,4.542Zm-18.679,14.254c-8.225,0 -14.892,-5.858 -14.892,-13.087c0,-7.229 6.667,-13.088 14.892,-13.088c8.225,0 14.892,5.859 14.892,13.088c-0,7.229 -6.667,13.087 -14.892,13.087m16.9,-39.533c-0.429,-0.213 -0.875,-0.396 -1.313,-0.596c-3.362,-1.525 -7.025,-2.604 -10.92,-3.071c-0.409,-0.05 -0.825,-0.058 -1.234,-0.096c-1.133,-0.1 -2.271,-0.195 -3.433,-0.195c-1.163,-0 -2.3,0.095 -3.433,0.195c-0.413,0.038 -0.83,0.046 -1.234,0.096c-3.896,0.467 -7.562,1.546 -10.921,3.071c-0.437,0.2 -0.887,0.379 -1.316,0.6c-4.792,2.413 -8.859,5.808 -11.825,9.888l-2.471,-3.788l-0,11.788l1.996,2.995l3.366,5.05l4.234,6.355l5.225,7.837l3.946,5.917l2.458,3.687l1.962,2.946c2.163,-0.458 4.4,-0.717 6.7,-0.796l-0.45,-0.683l-1.666,-2.558l-1.892,-2.892l-2.742,-4.204c2.442,1.025 5.175,1.6 8.063,1.6c2.887,-0 5.621,-0.575 8.062,-1.6l-2.745,4.204l-1.888,2.892l-1.671,2.558l-0.446,0.683c2.296,0.079 4.538,0.338 6.696,0.796l1.967,-2.946l2.458,-3.687l3.942,-5.917l5.225,-7.837l4.237,-6.355l3.367,-5.05l1.758,-2.641l0,-11.784l-2.237,3.43c-2.963,-4.08 -7.033,-7.475 -11.825,-9.892" style="fill:#fbb040;fill-rule:nonzero;"/><path d="M273.942,855.64l-1.208,-1.821l-6.588,-9.954l-6.312,-9.533l-3.017,-4.559l0,12.063l11.367,16.729c1.512,-0.954 3.133,-1.771 4.812,-2.496c0.321,-0.141 0.621,-0.3 0.946,-0.429" style="fill:#fbb040;fill-rule:nonzero;"/><path d="M319.22,829.773l-3.021,4.559l-6.308,9.533l-6.588,9.954l-1.208,1.821c0.325,0.129 0.625,0.288 0.942,0.429c1.683,0.725 3.304,1.542 4.812,2.496l11.371,-16.729l0,-12.063Z" style="fill:#fbb040;fill-rule:nonzero;"/><path d="M273.126,827.543c0,-7.225 6.667,-13.087 14.892,-13.087c8.225,-0 14.892,5.862 14.892,13.087c-0,7.23 -6.667,13.092 -14.892,13.092c-8.225,0 -14.892,-5.862 -14.892,-13.092m-3.787,-1.162l-2.971,-4.55c2.792,-8.183 11.429,-14.15 21.65,-14.15c10.221,-0 18.858,5.967 21.65,14.15l-2.971,4.55c-0.8,-8.454 -8.854,-15.092 -18.679,-15.092c-9.821,0 -17.879,6.638 -18.679,15.092m-7.733,-11.846c4.891,-8.454 14.883,-14.246 26.412,-14.246c11.529,0 21.521,5.792 26.413,14.246l-2.567,3.929c-3.9,-8.191 -13.108,-13.941 -23.846,-13.941c-10.737,-0 -19.942,5.75 -23.846,13.941l-2.566,-3.929Zm25.108,38.454l-0.454,-0.696l-1.671,-2.554l-1.888,-2.891l-2.745,-4.209c2.441,1.025 5.175,1.6 8.062,1.6c2.888,0 5.621,-0.575 8.063,-1.6l-2.746,4.209l-1.888,2.891l-1.666,2.554l-0.455,0.696c0.43,0.017 0.846,0.071 1.275,0.1c1.417,0.092 2.805,0.259 4.171,0.504c0.409,0.075 0.834,0.121 1.242,0.209l1.979,-2.971l2.458,-3.692l3.942,-5.912l5.229,-7.842l7.6,-11.4l2,-2.996l0,-11.791l-2.475,3.791c-2.337,-3.212 -5.362,-5.996 -8.879,-8.216c-1.792,-1.138 -3.737,-2.092 -5.767,-2.909c-1.941,-0.775 -3.962,-1.408 -6.07,-1.858c-2.159,-0.454 -4.405,-0.717 -6.7,-0.792c-0.442,-0.012 -0.867,-0.075 -1.313,-0.075c-0.446,0 -0.871,0.063 -1.312,0.075c-2.296,0.075 -4.538,0.338 -6.7,0.792c-2.109,0.45 -4.13,1.083 -6.067,1.858c-2.033,0.817 -3.975,1.771 -5.771,2.909c-3.517,2.22 -6.542,5.004 -8.875,8.216l-2.479,-3.791l-0,11.791l2,2.996l3.367,5.05l4.237,6.35l5.225,7.842l3.942,5.912l2.458,3.692l1.979,2.971c0.409,-0.088 0.829,-0.134 1.246,-0.209c1.363,-0.245 2.75,-0.412 4.171,-0.504c0.425,-0.029 0.842,-0.083 1.275,-0.1" style="fill:#fbb040;fill-rule:nonzero;"/><path d="M335.138,853.817l-6.592,-9.954l-6.308,-9.533l-3.017,-4.559l0,12.063l11.367,16.733c1.513,-0.958 3.133,-1.771 4.813,-2.5c0.32,-0.137 0.62,-0.296 0.945,-0.429l-1.208,-1.821Z" style="fill:#fbb040;fill-rule:nonzero;"/><path d="M381.624,829.773l-3.021,4.559l-6.308,9.533l-6.587,9.954l-1.209,1.821c0.321,0.129 0.625,0.288 0.942,0.429c1.683,0.725 3.304,1.542 4.812,2.496l11.371,-16.729l0,-12.063Z" style="fill:#fbb040;fill-rule:nonzero;"/><path d="M374.268,818.466c-3.905,-8.192 -13.109,-13.946 -23.846,-13.946c-10.738,-0 -19.946,5.754 -23.846,13.946l-2.567,-3.93c4.892,-8.458 14.884,-14.245 26.413,-14.245c11.529,-0 21.521,5.787 26.412,14.245l-2.566,3.93Zm-5.167,7.912c-0.8,-8.45 -8.858,-15.092 -18.679,-15.092c-9.825,0 -17.879,6.642 -18.679,15.092l-2.971,-4.546c2.791,-8.183 11.429,-14.15 21.65,-14.15c10.221,0 18.858,5.967 21.65,14.15l-2.971,4.546Zm-18.679,14.254c-8.225,0 -14.892,-5.858 -14.892,-13.087c0,-7.229 6.667,-13.088 14.892,-13.088c8.225,0 14.891,5.859 14.891,13.088c0,7.229 -6.666,13.087 -14.891,13.087m19.85,-37.862c-1.796,-1.134 -3.738,-2.092 -5.771,-2.904c-1.938,-0.775 -3.954,-1.413 -6.067,-1.859c-2.162,-0.458 -4.4,-0.716 -6.7,-0.796c-0.441,-0.012 -0.866,-0.07 -1.312,-0.07c-0.446,-0 -0.871,0.058 -1.313,0.07c-2.296,0.08 -4.537,0.338 -6.7,0.796c-2.108,0.446 -4.129,1.084 -6.071,1.859c-2.029,0.812 -3.975,1.77 -5.766,2.904c-3.517,2.225 -6.542,5.008 -8.879,8.221l-2.471,-3.792l-0,11.792l1.996,2.995l7.6,11.4l5.229,7.842l3.941,5.913l2.459,3.691l1.979,2.967c0.408,-0.083 0.833,-0.133 1.242,-0.204c1.366,-0.246 2.754,-0.413 4.17,-0.504c0.43,-0.03 0.846,-0.084 1.275,-0.1l-0.454,-0.696l-1.666,-2.554l-1.888,-2.892l-2.746,-4.208c2.442,1.025 5.175,1.6 8.063,1.6c2.887,-0 5.621,-0.575 8.062,-1.6l-2.746,4.208l-1.887,2.892l-1.671,2.554l-0.454,0.696c0.433,0.016 0.85,0.07 1.275,0.1c1.421,0.091 2.808,0.258 4.171,0.504c0.416,0.071 0.837,0.121 1.246,0.204l1.979,-2.967l2.458,-3.691l3.946,-5.913l5.221,-7.842l4.237,-6.35l3.367,-5.05l2,-2.995l-0,-11.792l-2.479,3.792c-2.334,-3.213 -5.359,-5.996 -8.875,-8.221" style="fill:#fbb040;fill-rule:nonzero;"/><path d="M397.54,853.817l-6.587,-9.954l-6.313,-9.533l-3.017,-4.559l0,12.063l11.367,16.733c1.513,-0.958 3.133,-1.771 4.813,-2.5c0.32,-0.137 0.62,-0.296 0.945,-0.429l-1.208,-1.821Z" style="fill:#fbb040;fill-rule:nonzero;"/><path d="M434.698,843.864l-6.591,9.954l-1.204,1.821c0.325,0.129 0.625,0.292 0.941,0.429c1.684,0.73 3.304,1.542 4.813,2.496l11.133,-16.379l0,-12.058l-2.783,4.204l-6.309,9.533Z" style="fill:#fbb040;fill-rule:nonzero;"/><path d="M436.672,818.466c-3.904,-8.192 -13.109,-13.946 -23.846,-13.946c-10.738,-0 -19.946,5.754 -23.846,13.946l-2.571,-3.93c4.896,-8.458 14.884,-14.245 26.417,-14.245c11.529,-0 21.521,5.787 26.412,14.245l-2.566,3.93Zm-5.167,7.912c-0.8,-8.45 -8.858,-15.092 -18.679,-15.092c-9.825,0 -17.879,6.642 -18.683,15.092l-2.967,-4.546c2.792,-8.183 11.425,-14.15 21.65,-14.15c10.221,0 18.858,5.967 21.65,14.15l-2.971,4.546Zm-18.679,14.254c-8.225,0 -14.892,-5.858 -14.892,-13.087c0,-7.229 6.667,-13.088 14.892,-13.088c8.225,0 14.892,5.859 14.892,13.088c-0,7.229 -6.667,13.087 -14.892,13.087m19.85,-37.862c-1.796,-1.134 -3.738,-2.092 -5.771,-2.904c-1.937,-0.775 -3.958,-1.413 -6.071,-1.859c-2.158,-0.458 -4.4,-0.716 -6.696,-0.796c-0.441,-0.012 -0.87,-0.07 -1.312,-0.07c-0.446,-0 -0.875,0.058 -1.313,0.07c-2.3,0.08 -4.537,0.338 -6.7,0.796c-2.112,0.446 -4.129,1.084 -6.07,1.859c-2.03,0.812 -3.975,1.77 -5.767,2.904c-3.517,2.225 -6.546,5.008 -8.879,8.221l-2.471,-3.792l-0,11.792l1.996,2.995l7.6,11.4l5.225,7.842l3.946,5.913l2.458,3.691l1.979,2.967c0.408,-0.083 0.829,-0.133 1.242,-0.204c1.362,-0.246 2.754,-0.413 4.171,-0.504c0.425,-0.03 0.845,-0.084 1.275,-0.1l-0.455,-0.696l-1.666,-2.554l-1.892,-2.892l-2.742,-4.208c2.442,1.025 5.175,1.6 8.063,1.6c2.887,-0 5.621,-0.575 8.062,-1.6l-2.745,4.208l-1.888,2.892l-1.671,2.554l-0.454,0.696c0.433,0.016 0.85,0.07 1.275,0.1c1.421,0.091 2.808,0.258 4.171,0.504c0.412,0.071 0.837,0.121 1.242,0.204l1.983,-2.967l2.458,-3.691l3.942,-5.913l5.225,-7.842l4.237,-6.35l3.367,-5.05l1.758,-2.645l0,-11.78l-2.237,3.43c-2.333,-3.213 -5.358,-5.996 -8.875,-8.221" style="fill:#fbb040;fill-rule:nonzero;"/><path d="M319.22,885.576l-3.021,4.562l-6.308,9.529l-6.283,9.492l7.783,-0l7.829,-11.517l0,-12.066Z" style="fill:#fbb040;fill-rule:nonzero;"/><path d="M288.019,896.436c-8.225,-0 -14.892,-5.858 -14.892,-13.092c0,-7.225 6.667,-13.083 14.892,-13.083c8.225,-0 14.892,5.858 14.892,13.083c-0,7.234 -6.667,13.092 -14.892,13.092m-18.679,-14.254l-2.971,-4.55c2.792,-8.184 11.425,-14.146 21.65,-14.146c10.221,-0 18.858,5.962 21.65,14.146l-2.971,4.55c-0.8,-8.45 -8.858,-15.088 -18.679,-15.088c-9.821,0 -17.879,6.638 -18.679,15.088m-7.734,-11.846c4.892,-8.45 14.88,-14.246 26.413,-14.246c11.529,0 21.521,5.796 26.412,14.246l-2.566,3.933c-3.9,-8.191 -13.109,-13.946 -23.846,-13.946c-10.738,0 -19.946,5.755 -23.846,13.946l-2.567,-3.933Zm36.388,36.296l6.4,-9.6l5.229,-7.842l4.233,-6.354l3.367,-5.05l1.996,-2.992l-0,-11.791l-2.471,3.791c-2.342,-3.221 -5.375,-6.008 -8.896,-8.229c-1.512,-0.954 -3.133,-1.771 -4.816,-2.496c-2.588,-1.125 -5.355,-1.958 -8.263,-2.475c-1.367,-0.246 -2.754,-0.412 -4.171,-0.504c-0.858,-0.058 -1.708,-0.146 -2.583,-0.146c-0.875,0 -1.725,0.088 -2.583,0.146c-1.417,0.092 -2.805,0.258 -4.171,0.504c-2.909,0.517 -5.675,1.35 -8.267,2.475c-1.679,0.725 -3.3,1.542 -4.812,2.496c-3.521,2.221 -6.555,5.008 -8.896,8.229l-2.475,-3.791l-0,11.791l2,2.992l3.366,5.05l4.234,6.354l5.225,7.842l3.946,5.912l1.5,2.254c2.937,1.463 6.079,2.584 9.391,3.238l-0.216,-0.333l-1.671,-2.559l-1.888,-2.896l-2.75,-4.204c2.446,1.025 5.179,1.596 8.067,1.596c2.887,0 5.621,-0.571 8.062,-1.596l-2.745,4.204l-1.888,2.896l-1.671,2.559l-0.454,0.691c0.717,0.025 1.417,0.1 2.125,0.163c0.413,0.037 0.829,0.05 1.238,0.096c0.15,0.016 0.291,0.054 0.445,0.075c0.221,0.004 0.438,0.033 0.659,0.033l2.516,-0l1.688,-2.529Z" style="fill:#fbb040;fill-rule:nonzero;"/><path d="M322.239,890.137l-3.021,-4.562l0,12.066l7.83,11.517l7.783,0l-6.283,-9.492l-6.309,-9.529Z" style="fill:#fbb040;fill-rule:nonzero;"/><path d="M381.624,885.576l-3.021,4.562l-6.308,9.529l-6.287,9.492l7.787,-0l7.829,-11.517l0,-12.066Z" style="fill:#fbb040;fill-rule:nonzero;"/><path d="M350.421,896.436c-8.225,-0 -14.891,-5.858 -14.891,-13.092c-0,-7.225 6.666,-13.083 14.891,-13.083c8.225,-0 14.892,5.858 14.892,13.083c0,7.234 -6.667,13.092 -14.892,13.092m-18.679,-14.254l-2.971,-4.55c2.792,-8.184 11.43,-14.146 21.65,-14.146c10.225,-0 18.859,5.962 21.65,14.146l-2.97,4.55c-0.8,-8.45 -8.859,-15.088 -18.68,-15.088c-9.82,0 -17.879,6.638 -18.679,15.088m-7.733,-11.846c4.892,-8.45 14.883,-14.246 26.412,-14.246c11.534,0 21.521,5.796 26.413,14.246l-2.567,3.933c-3.9,-8.191 -13.108,-13.946 -23.846,-13.946c-10.737,0 -19.945,5.755 -23.845,13.946l-2.567,-3.933Zm38.846,32.608l3.946,-5.912l5.225,-7.842l4.233,-6.354l3.367,-5.05l2,-2.992l-0,-11.791l-2.475,3.791c-2.342,-3.221 -5.375,-6.008 -8.896,-8.229c-1.509,-0.954 -3.134,-1.771 -4.813,-2.496c-2.591,-1.125 -5.358,-1.958 -8.266,-2.475c-1.367,-0.246 -2.755,-0.412 -4.171,-0.504c-0.859,-0.058 -1.709,-0.146 -2.584,-0.146c-0.875,0 -1.725,0.088 -2.583,0.146c-1.417,0.092 -2.804,0.258 -4.171,0.504c-2.908,0.517 -5.675,1.35 -8.262,2.475c-1.684,0.725 -3.304,1.542 -4.817,2.496c-3.521,2.221 -6.554,5.008 -8.896,8.229l-2.471,-3.791l0,11.791l1.996,2.992l3.367,5.05l4.233,6.354l5.229,7.842l6.4,9.6l1.688,2.529l2.975,-0c0.217,-0.029 0.429,-0.083 0.646,-0.108c0.408,-0.046 0.825,-0.059 1.237,-0.096c0.709,-0.063 1.409,-0.138 2.125,-0.163l-0.454,-0.691l-1.671,-2.559l-1.887,-2.896l-2.746,-4.204c2.442,1.025 5.175,1.596 8.062,1.596c2.888,0 5.621,-0.571 8.067,-1.596l-2.75,4.204l-1.887,2.896l-1.671,2.559l-0.454,0.691c0.72,0.025 1.42,0.1 2.125,0.163c0.412,0.037 0.829,0.05 1.241,0.096c0.217,0.025 0.425,0.079 0.642,0.108l2.979,-0l1.683,-2.529l2.459,-3.688Z" style="fill:#fbb040;fill-rule:nonzero;"/><path d="M384.641,890.137l-3.016,-4.562l-0,12.066l7.829,11.517l7.783,0l-6.283,-9.492l-6.313,-9.529Z" style="fill:#fbb040;fill-rule:nonzero;"/><path d="M436.672,874.268c-3.904,-8.192 -13.109,-13.946 -23.846,-13.946c-10.738,0 -19.946,5.754 -23.846,13.946l-2.571,-3.929c4.896,-8.454 14.884,-14.246 26.417,-14.246c11.529,0 21.521,5.792 26.412,14.246l-2.566,3.929Zm-5.167,7.913c-0.8,-8.45 -8.858,-15.088 -18.679,-15.088c-9.825,0 -17.879,6.638 -18.683,15.088l-2.967,-4.546c2.792,-8.184 11.425,-14.15 21.65,-14.15c10.221,-0 18.858,5.966 21.65,14.15l-2.971,4.546Zm-18.679,14.254c-8.225,-0 -14.892,-5.859 -14.892,-13.088c0,-7.229 6.667,-13.087 14.892,-13.087c8.225,-0 14.892,5.858 14.892,13.087c-0,7.229 -6.667,13.088 -14.892,13.088m19.833,-37.871c-1.512,-0.954 -3.133,-1.767 -4.812,-2.496c-2.592,-1.125 -5.359,-1.958 -8.271,-2.475c-1.363,-0.246 -2.75,-0.412 -4.171,-0.504c-0.858,-0.058 -1.704,-0.146 -2.579,-0.146c-0.875,0 -1.725,0.088 -2.583,0.146c-1.417,0.092 -2.809,0.258 -4.171,0.504c-2.909,0.517 -5.679,1.35 -8.267,2.475c-1.679,0.729 -3.304,1.542 -4.812,2.496c-3.525,2.225 -6.559,5.012 -8.896,8.229l-2.471,-3.792l-0,11.792l1.996,2.996l7.6,11.4l5.225,7.842l3.946,5.912l2.458,3.692l1.683,2.525l1.754,-0c0.596,-0 1.175,-0.063 1.759,-0.088c0.037,-0.004 0.075,-0.012 0.112,-0.016c0.404,-0.05 0.825,-0.063 1.238,-0.1c0.525,-0.046 1.054,-0.084 1.583,-0.121c0.171,-0.021 0.342,-0.054 0.517,-0.079l-0.434,-0.655l-1.666,-2.558l-1.892,-2.892l-2.742,-4.204c2.442,1.021 5.175,1.596 8.063,1.596c2.887,0 5.621,-0.575 8.062,-1.596l-2.745,4.204l-1.888,2.892l-1.671,2.558l-0.083,0.13c3.4,-0.759 6.633,-1.959 9.617,-3.571l1.141,-1.717l3.942,-5.912l5.225,-7.842l4.237,-6.35l3.367,-5.05l1.571,-2.358c0.125,-1.242 0.187,-2.496 0.187,-3.771l0,-8.296l-2.237,3.429c-2.338,-3.217 -5.371,-6.004 -8.892,-8.229" style="fill:#fbb040;fill-rule:nonzero;"/><path d="M354.767,496.694c-0,2.609 -2.117,4.725 -4.725,4.725c-2.609,0 -4.725,-2.116 -4.725,-4.725c-0,-2.608 2.116,-4.725 4.725,-4.725c2.608,0 4.725,2.117 4.725,4.725" style="fill:#231f20;fill-rule:nonzero;"/></g><g id="Button"><path d="M938.708,641.86l0,11.7l-39,0l0,23.7l39,0l0,11.7l17.7,0l0,-47.1l-17.7,0Z" style="fill:#808285;fill-rule:nonzero;"/><rect x="893.138" y="641.86" width="28.2" height="47.1" style="fill:#414042;"/><rect x="956.408" y="615.16" width="88.5" height="100.5" style="fill:#808285;"/><rect x="1002.75" y="1193.9" width="94.5" height="65.7" style="fill:#808285;"/><path d="M1097.25,1255.43l0,4.167l-4.167,0" style="fill:none;fill-rule:nonzero;stroke:#231f20;stroke-width:1.04px;"/><path d="M1077.41,1259.6l-62.667,0" style="fill:none;fill-rule:nonzero;stroke:#231f20;stroke-width:1.04px;stroke-dasharray:7.83,15.67;"/><path d="M1006.91,1259.6l-4.166,0l-0,-4.167" style="fill:none;fill-rule:nonzero;stroke:#231f20;stroke-width:1.04px;"/><path d="M1002.75,1241.09l-0,-35.854" style="fill:none;fill-rule:nonzero;stroke:#231f20;stroke-width:1.04px;stroke-dasharray:7.17,14.34;"/><path d="M1002.75,1198.07l-0,-4.166l4.166,-0" style="fill:none;fill-rule:nonzero;stroke:#231f20;stroke-width:1.04px;"/><path d="M1022.58,1193.9l62.667,-0" style="fill:none;fill-rule:nonzero;stroke:#231f20;stroke-width:1.04px;stroke-dasharray:7.83,15.67;"/><path d="M1093.08,1193.9l4.167,-0l0,4.166" style="fill:none;fill-rule:nonzero;stroke:#231f20;stroke-width:1.04px;"/><path d="M1097.25,1212.41l0,35.854" style="fill:none;fill-rule:nonzero;stroke:#231f20;stroke-width:1.04px;stroke-dasharray:7.17,14.34;"/></g><g id="Dimensions"><path d="M918.746,298.037l-0,-277.1" style="fill:none;fill-rule:nonzero;stroke:#231f20;stroke-width:4.17px;"/><path d="M1125,298.035l-0,-4.167" style="fill:none;fill-rule:nonzero;stroke:#231f20;stroke-width:2.08px;"/><path d="M1125,274.199l-0,-19.671" style="fill:none;fill-rule:nonzero;stroke:#231f20;stroke-width:2.08px;stroke-dasharray:9.83,19.67;"/><path d="M1125,244.694l-0,-4.166" style="fill:none;fill-rule:nonzero;stroke:#231f20;stroke-width:2.08px;"/><path d="M1143.75,298.037l-0,-163.1" style="fill:none;fill-rule:nonzero;stroke:#231f20;stroke-width:2.08px;"/><path d="M1181.25,298.037l-0,-277.1" style="fill:none;fill-rule:nonzero;stroke:#231f20;stroke-width:4.17px;"/><path d="M956.246,298.037l-0,-163.1" style="fill:none;fill-rule:nonzero;stroke:#231f20;stroke-width:2.08px;"/><path d="M974.996,298.035l-0,-4.167" style="fill:none;fill-rule:nonzero;stroke:#231f20;stroke-width:2.08px;"/><path d="M974.996,274.199l-0,-19.671" style="fill:none;fill-rule:nonzero;stroke:#231f20;stroke-width:2.08px;stroke-dasharray:9.83,19.67;"/><path d="M974.996,244.694l-0,-4.166" style="fill:none;fill-rule:nonzero;stroke:#231f20;stroke-width:2.08px;"/><g><rect x="1718.15" y="631.059" width="6.25" height="34.106" style="fill-rule:nonzero;"/><path d="M1741.04,658.11c0.993,-0 1.867,0.366 2.624,1.099c0.757,0.732 1.135,1.619 1.135,2.661c0,1.009 -0.366,1.884 -1.098,2.624c-0.733,0.741 -1.62,1.111 -2.661,1.111c-1.026,0 -1.909,-0.37 -2.649,-1.111c-0.741,-0.74 -1.111,-1.615 -1.111,-2.624c-0,-1.042 0.374,-1.929 1.123,-2.661c0.749,-0.733 1.628,-1.099 2.637,-1.099Z" style="fill-rule:nonzero;"/><path d="M1760.84,630.62c3.043,-0 5.529,0.887 7.458,2.661c1.929,1.774 2.893,4.069 2.893,6.885c0,3.076 -1.4,5.493 -4.199,7.251c1.758,0.927 3.027,2.075 3.808,3.442c0.782,1.367 1.172,2.97 1.172,4.81c0,1.888 -0.48,3.592 -1.44,5.114c-0.96,1.522 -2.295,2.706 -4.004,3.553c-1.709,0.846 -3.605,1.269 -5.688,1.269c-3.256,0 -5.937,-0.928 -8.045,-2.783c-2.108,-1.856 -3.162,-4.24 -3.162,-7.153c0,-1.937 0.416,-3.577 1.246,-4.92c0.83,-1.343 2.083,-2.454 3.759,-3.332c-2.799,-1.775 -4.199,-4.208 -4.199,-7.3c0,-2.8 0.973,-5.082 2.918,-6.848c1.945,-1.766 4.439,-2.649 7.483,-2.649Zm-4.151,9.643c0,1.465 0.391,2.665 1.172,3.601c0.781,0.936 1.774,1.404 2.979,1.404c1.171,0 2.148,-0.484 2.929,-1.452c0.781,-0.969 1.172,-2.153 1.172,-3.553c0,-1.481 -0.37,-2.653 -1.111,-3.515c-0.74,-0.863 -1.737,-1.294 -2.99,-1.294c-1.27,-0 -2.279,0.423 -3.028,1.269c-0.749,0.847 -1.123,2.027 -1.123,3.54Zm-0.708,15.113c0,1.676 0.44,2.994 1.318,3.955c0.879,0.96 2.059,1.44 3.541,1.44c1.481,0 2.648,-0.484 3.503,-1.453c0.854,-0.968 1.282,-2.25 1.282,-3.845c-0,-1.595 -0.44,-2.905 -1.319,-3.93c-0.879,-1.026 -2.018,-1.539 -3.418,-1.539c-1.464,0 -2.649,0.485 -3.552,1.453c-0.903,0.969 -1.355,2.275 -1.355,3.919Z" style="fill-rule:nonzero;"/><path d="M1799.57,631.059l0,0.195l-13.745,34.351l-5.762,-2.148l10.767,-26.538l-13.599,-0l0,-5.86l22.339,0Z" style="fill-rule:nonzero;"/><path d="M1822.72,631.059l-0,5.762l-10.816,-0l0,7.349l0.635,-0.049l0.513,-0c2.083,-0 3.971,0.451 5.664,1.355c1.693,0.903 3.015,2.168 3.967,3.796c0.952,1.628 1.428,3.459 1.428,5.493c0,3.207 -1.078,5.815 -3.235,7.825c-2.156,2.01 -4.992,3.015 -8.508,3.015c-3.125,0 -5.892,-0.643 -8.301,-1.929l0,-5.713c2.539,1.563 4.973,2.344 7.3,2.344c1.823,0 3.345,-0.508 4.566,-1.526c1.22,-1.017 1.831,-2.307 1.831,-3.869c-0,-1.758 -0.7,-3.129 -2.1,-4.114c-1.4,-0.985 -3.304,-1.477 -5.713,-1.477c-1.139,-0 -2.401,0.146 -3.784,0.439l0,-18.701l16.553,0Z" style="fill-rule:nonzero;"/><path d="M1833.96,630.62c1.302,-0 2.344,0.484 3.125,1.452c0.781,0.969 1.172,2.251 1.172,3.846c0,2.148 -0.72,4.056 -2.161,5.725c-1.44,1.668 -3.202,2.657 -5.285,2.966l-0,-1.294c1.562,-1.318 2.344,-3.035 2.344,-5.151l-0.049,-0.757c-1.839,-0.342 -2.759,-1.457 -2.759,-3.345c-0,-0.96 0.346,-1.774 1.038,-2.441c0.691,-0.668 1.55,-1.001 2.575,-1.001Zm12.451,-0c1.302,-0 2.344,0.484 3.125,1.452c0.782,0.969 1.172,2.251 1.172,3.846c0,2.148 -0.72,4.056 -2.16,5.725c-1.441,1.668 -3.203,2.657 -5.286,2.966l-0,-1.294c1.562,-1.318 2.344,-3.035 2.344,-5.151l-0.049,-0.757c-1.839,-0.342 -2.759,-1.457 -2.759,-3.345c0,-0.96 0.346,-1.774 1.038,-2.441c0.691,-0.668 1.55,-1.001 2.575,-1.001Z" style="fill-rule:nonzero;"/></g><g><rect x="1517.6" y="631.059" width="6.25" height="34.106" style="fill-rule:nonzero;"/><path d="M1540.49,658.11c0.993,-0 1.867,0.366 2.624,1.099c0.757,0.732 1.135,1.619 1.135,2.661c0,1.009 -0.366,1.884 -1.098,2.624c-0.733,0.741 -1.62,1.111 -2.661,1.111c-1.026,0 -1.909,-0.37 -2.649,-1.111c-0.741,-0.74 -1.111,-1.615 -1.111,-2.624c-0,-1.042 0.374,-1.929 1.123,-2.661c0.749,-0.733 1.628,-1.099 2.637,-1.099Z" style="fill-rule:nonzero;"/><path d="M1568.64,630.62c-1.823,1.513 -3.837,3.751 -6.042,6.714c-2.206,2.962 -3.78,5.558 -4.724,7.788c1.269,-0.537 2.571,-0.806 3.906,-0.806c1.758,-0 3.357,0.444 4.797,1.331c1.441,0.887 2.56,2.115 3.357,3.686c0.798,1.571 1.196,3.316 1.196,5.237c0,2.034 -0.472,3.898 -1.416,5.591c-0.944,1.692 -2.246,3.023 -3.906,3.991c-1.66,0.969 -3.467,1.453 -5.42,1.453c-3.32,0 -6.01,-1.119 -8.069,-3.357c-2.059,-2.238 -3.088,-5.147 -3.088,-8.728c-0,-3.564 1.07,-7.381 3.21,-11.45c2.141,-4.069 5.058,-7.886 8.753,-11.45l7.446,-0Zm-13.061,23.95c-0,1.579 0.443,2.881 1.33,3.906c0.887,1.026 2.031,1.538 3.43,1.538c1.368,0 2.474,-0.484 3.321,-1.452c0.846,-0.969 1.269,-2.251 1.269,-3.846c0,-1.497 -0.435,-2.738 -1.306,-3.723c-0.871,-0.984 -1.998,-1.477 -3.381,-1.477c-1.335,0 -2.446,0.484 -3.333,1.453c-0.887,0.968 -1.33,2.169 -1.33,3.601Z" style="fill-rule:nonzero;"/><path d="M1585.33,630.62c3.239,-0 5.815,0.923 7.727,2.771c1.912,1.847 2.869,4.309 2.869,7.385c-0,2.344 -0.712,4.883 -2.137,7.617c-1.424,2.735 -3.926,6.356 -7.507,10.864l11.694,0l0,5.909l-22.094,-0l-0,-0.708c2.571,-3.174 4.781,-6.027 6.628,-8.558c1.847,-2.53 3.276,-4.63 4.285,-6.298c1.009,-1.669 1.725,-3.089 2.148,-4.261c0.423,-1.171 0.635,-2.384 0.635,-3.637c-0,-1.563 -0.501,-2.877 -1.501,-3.943c-1.001,-1.066 -2.218,-1.599 -3.65,-1.599c-2.572,-0 -5.241,1.465 -8.008,4.394l-0,-6.689c2.913,-2.165 5.884,-3.247 8.911,-3.247Z" style="fill-rule:nonzero;"/><path d="M1625.81,631.059l0,0.195l-13.745,34.351l-5.761,-2.148l10.766,-26.538l-13.598,-0l-0,-5.86l22.338,0Z" style="fill-rule:nonzero;"/><path d="M1633.41,630.62c1.302,-0 2.344,0.484 3.125,1.452c0.781,0.969 1.172,2.251 1.172,3.846c0,2.148 -0.72,4.056 -2.161,5.725c-1.44,1.668 -3.202,2.657 -5.285,2.966l-0,-1.294c1.562,-1.318 2.344,-3.035 2.344,-5.151l-0.049,-0.757c-1.839,-0.342 -2.759,-1.457 -2.759,-3.345c-0,-0.96 0.346,-1.774 1.038,-2.441c0.691,-0.668 1.55,-1.001 2.575,-1.001Zm12.451,-0c1.302,-0 2.344,0.484 3.125,1.452c0.782,0.969 1.172,2.251 1.172,3.846c0,2.148 -0.72,4.056 -2.16,5.725c-1.441,1.668 -3.203,2.657 -5.286,2.966l-0,-1.294c1.562,-1.318 2.344,-3.035 2.344,-5.151l-0.049,-0.757c-1.839,-0.342 -2.759,-1.457 -2.759,-3.345c0,-0.96 0.346,-1.774 1.038,-2.441c0.691,-0.668 1.55,-1.001 2.575,-1.001Z" style="fill-rule:nonzero;"/></g><g><rect x="1335.35" y="631.059" width="6.25" height="34.106" style="fill-rule:nonzero;"/><path d="M1358.07,658.11c0.993,-0 1.868,0.366 2.625,1.099c0.757,0.732 1.135,1.619 1.135,2.661c0,1.009 -0.366,1.884 -1.098,2.624c-0.733,0.741 -1.62,1.111 -2.662,1.111c-1.025,0 -1.908,-0.37 -2.648,-1.111c-0.741,-0.74 -1.111,-1.615 -1.111,-2.624c-0,-1.042 0.374,-1.929 1.123,-2.661c0.748,-0.733 1.627,-1.099 2.636,-1.099Z" style="fill-rule:nonzero;"/><path d="M1386.01,631.059l-0,5.762l-10.816,-0l0,7.349l0.635,-0.049l0.513,-0c2.083,-0 3.971,0.451 5.664,1.355c1.693,0.903 3.015,2.168 3.967,3.796c0.952,1.628 1.428,3.459 1.428,5.493c0,3.207 -1.078,5.815 -3.234,7.825c-2.157,2.01 -4.993,3.015 -8.509,3.015c-3.125,0 -5.892,-0.643 -8.301,-1.929l0,-5.713c2.54,1.563 4.973,2.344 7.3,2.344c1.823,0 3.345,-0.508 4.566,-1.526c1.22,-1.017 1.831,-2.307 1.831,-3.869c-0,-1.758 -0.7,-3.129 -2.1,-4.114c-1.4,-0.985 -3.304,-1.477 -5.713,-1.477c-1.139,-0 -2.4,0.146 -3.784,0.439l0,-18.701l16.553,0Z" style="fill-rule:nonzero;"/><path d="M1397.08,630.62c1.302,-0 2.344,0.484 3.125,1.452c0.781,0.969 1.172,2.251 1.172,3.846c-0,2.148 -0.72,4.056 -2.161,5.725c-1.44,1.668 -3.202,2.657 -5.285,2.966l-0,-1.294c1.562,-1.318 2.343,-3.035 2.343,-5.151l-0.048,-0.757c-1.84,-0.342 -2.759,-1.457 -2.759,-3.345c-0,-0.96 0.346,-1.774 1.037,-2.441c0.692,-0.668 1.551,-1.001 2.576,-1.001Zm12.451,-0c1.302,-0 2.344,0.484 3.125,1.452c0.781,0.969 1.172,2.251 1.172,3.846c0,2.148 -0.72,4.056 -2.161,5.725c-1.44,1.668 -3.202,2.657 -5.285,2.966l-0,-1.294c1.562,-1.318 2.344,-3.035 2.344,-5.151l-0.049,-0.757c-1.84,-0.342 -2.759,-1.457 -2.759,-3.345c-0,-0.96 0.346,-1.774 1.037,-2.441c0.692,-0.668 1.551,-1.001 2.576,-1.001Z" style="fill-rule:nonzero;"/></g><g><path d="M1664.32,1233.4c0.993,-0 1.868,0.366 2.625,1.098c0.756,0.733 1.135,1.62 1.135,2.661c-0,1.009 -0.366,1.884 -1.099,2.625c-0.732,0.74 -1.619,1.111 -2.661,1.111c-1.025,-0 -1.908,-0.371 -2.649,-1.111c-0.74,-0.741 -1.111,-1.616 -1.111,-2.625c0,-1.041 0.375,-1.928 1.123,-2.661c0.749,-0.732 1.628,-1.098 2.637,-1.098Z" style="fill-rule:nonzero;"/><path d="M1681.91,1205.91c3.158,0 5.705,0.786 7.642,2.356c1.937,1.571 2.905,3.65 2.905,6.238c0,3.499 -1.587,6.104 -4.761,7.813c1.823,0.651 3.199,1.713 4.126,3.186c0.928,1.473 1.392,3.226 1.392,5.261c-0,3.027 -1.058,5.473 -3.174,7.336c-2.116,1.864 -4.899,2.796 -8.349,2.796c-2.719,-0 -5.331,-0.643 -7.837,-1.929l-0,-6.006c1.383,0.928 2.653,1.599 3.808,2.014c1.156,0.415 2.336,0.623 3.54,0.623c1.595,-0 2.901,-0.452 3.919,-1.355c1.017,-0.904 1.526,-2.079 1.526,-3.528c-0,-1.595 -0.562,-2.869 -1.685,-3.821c-1.123,-0.952 -2.661,-1.428 -4.614,-1.428l-0.391,-0l0,-5.298l0.293,0c1.823,0 3.247,-0.403 4.273,-1.208c1.025,-0.806 1.538,-1.892 1.538,-3.26c-0,-1.351 -0.497,-2.437 -1.49,-3.259c-0.992,-0.822 -2.262,-1.233 -3.808,-1.233c-1.921,0 -3.939,0.513 -6.055,1.538l0,-5.346c2.132,-0.993 4.533,-1.49 7.202,-1.49Z" style="fill-rule:nonzero;"/><path d="M1722.72,1206.35l0,0.195l-13.745,34.351l-5.762,-2.149l10.767,-26.538l-13.599,0l0,-5.859l22.339,-0Z" style="fill-rule:nonzero;"/><path d="M1745.81,1206.35l-0,5.761l-10.816,0l0,7.349l0.635,-0.049l0.513,0c2.083,0 3.971,0.452 5.664,1.355c1.693,0.904 3.015,2.169 3.967,3.797c0.952,1.627 1.428,3.458 1.428,5.493c0,3.206 -1.078,5.814 -3.235,7.824c-2.156,2.011 -4.992,3.016 -8.508,3.016c-3.125,-0 -5.892,-0.643 -8.301,-1.929l0,-5.713c2.539,1.563 4.973,2.344 7.3,2.344c1.823,-0 3.345,-0.509 4.566,-1.526c1.22,-1.017 1.831,-2.307 1.831,-3.87c-0,-1.758 -0.7,-3.129 -2.1,-4.113c-1.4,-0.985 -3.304,-1.478 -5.713,-1.478c-1.139,0 -2.401,0.147 -3.784,0.44l-0,-18.701l16.553,-0Z" style="fill-rule:nonzero;"/><path d="M1756.99,1205.91c1.302,0 2.344,0.484 3.125,1.453c0.781,0.968 1.172,2.25 1.172,3.845c-0,2.149 -0.72,4.057 -2.161,5.725c-1.44,1.669 -3.202,2.657 -5.285,2.967l-0,-1.294c1.562,-1.319 2.343,-3.036 2.343,-5.152l-0.048,-0.757c-1.84,-0.341 -2.759,-1.456 -2.759,-3.344c-0,-0.961 0.346,-1.774 1.037,-2.442c0.692,-0.667 1.551,-1.001 2.576,-1.001Zm12.451,0c1.302,0 2.344,0.484 3.125,1.453c0.782,0.968 1.172,2.25 1.172,3.845c0,2.149 -0.72,4.057 -2.161,5.725c-1.44,1.669 -3.202,2.657 -5.285,2.967l-0,-1.294c1.562,-1.319 2.344,-3.036 2.344,-5.152l-0.049,-0.757c-1.839,-0.341 -2.759,-1.456 -2.759,-3.344c-0,-0.961 0.346,-1.774 1.038,-2.442c0.691,-0.667 1.55,-1.001 2.575,-1.001Z" style="fill-rule:nonzero;"/></g><g><path d="M435.257,1188.45c0.83,-0 1.538,0.285 2.124,0.854c0.586,0.57 0.879,1.27 0.879,2.1c-0,0.814 -0.289,1.497 -0.867,2.051c-0.578,0.553 -1.29,0.83 -2.136,0.83c-0.83,-0 -1.53,-0.277 -2.1,-0.83c-0.569,-0.554 -0.854,-1.237 -0.854,-2.051c-0,-0.83 0.285,-1.53 0.854,-2.1c0.57,-0.569 1.27,-0.854 2.1,-0.854Z" style="fill-rule:nonzero;"/><path d="M453.804,1159.35c3.125,0 5.709,1.64 7.752,4.92c2.043,3.279 3.064,7.442 3.064,12.488c-0,5.175 -1.021,9.383 -3.064,12.622c-2.043,3.239 -4.692,4.858 -7.947,4.858c-3.304,0 -5.957,-1.587 -7.959,-4.761c-2.002,-3.173 -3.003,-7.381 -3.003,-12.622c0,-5.175 1.034,-9.387 3.101,-12.634c2.067,-3.247 4.752,-4.871 8.056,-4.871Zm0.049,4.639l-0.244,0c-1.872,0 -3.357,1.152 -4.455,3.455c-1.099,2.303 -1.648,5.424 -1.648,9.362c-0,4.037 0.537,7.203 1.611,9.498c1.074,2.294 2.555,3.442 4.443,3.442c1.888,-0 3.378,-1.148 4.468,-3.442c1.091,-2.295 1.636,-5.412 1.636,-9.351c-0,-3.955 -0.525,-7.105 -1.575,-9.448c-1.05,-2.344 -2.462,-3.516 -4.236,-3.516Z" style="fill-rule:nonzero;"/><path d="M481.8,1159.69l0.488,-0.342l2.954,3.736c-2.604,1.676 -4.764,3.507 -6.481,5.493c-1.718,1.986 -3.04,4.321 -3.968,7.007c1.807,-0.928 3.605,-1.392 5.396,-1.392c2.685,0 4.948,0.952 6.787,2.857c1.839,1.904 2.759,4.24 2.759,7.006c-0,2.849 -1.001,5.266 -3.003,7.251c-2.002,1.986 -4.436,2.979 -7.3,2.979c-3.206,-0 -5.798,-1.127 -7.776,-3.381c-1.978,-2.255 -2.966,-5.205 -2.966,-8.85c-0,-2.735 0.508,-5.457 1.526,-8.167c1.017,-2.71 2.482,-5.249 4.394,-7.617c1.913,-2.368 4.309,-4.562 7.19,-6.58Zm-8.057,20.947c-0.13,0.765 -0.195,1.62 -0.195,2.564c0,1.921 0.558,3.499 1.672,4.736c1.115,1.237 2.544,1.856 4.285,1.856c1.563,-0 2.853,-0.529 3.87,-1.587c1.017,-1.058 1.526,-2.393 1.526,-4.004c-0,-1.644 -0.542,-2.975 -1.624,-3.992c-1.082,-1.017 -2.51,-1.526 -4.285,-1.526c-0.911,0 -1.737,0.139 -2.478,0.415c-0.74,0.277 -1.664,0.79 -2.771,1.538Z" style="fill-rule:nonzero;"/><path d="M500.787,1174.05l0.293,-0c2.132,-0 3.756,-0.44 4.87,-1.319c1.115,-0.879 1.673,-2.156 1.673,-3.833c-0,-1.513 -0.541,-2.742 -1.624,-3.686c-1.082,-0.944 -2.502,-1.416 -4.26,-1.416c-1.774,-0 -3.743,0.553 -5.908,1.66l-0,-4.663c1.986,-0.993 4.15,-1.489 6.494,-1.489c3.141,-0 5.619,0.822 7.434,2.465c1.815,1.644 2.722,3.89 2.722,6.739c0,1.725 -0.35,3.178 -1.05,4.358c-0.699,1.18 -1.814,2.193 -3.344,3.039c1.334,0.521 2.311,1.16 2.929,1.917c0.619,0.756 1.099,1.672 1.441,2.746c0.342,1.074 0.513,2.214 0.513,3.418c-0,2.979 -0.993,5.44 -2.979,7.385c-1.986,1.945 -4.492,2.918 -7.52,2.918c-2.587,-0 -5.086,-0.627 -7.495,-1.88l0,-5.322c2.572,1.611 5.07,2.417 7.495,2.417c1.644,-0 2.967,-0.488 3.968,-1.465c1.001,-0.977 1.501,-2.271 1.501,-3.882c0,-1.351 -0.415,-2.531 -1.245,-3.54c-0.488,-0.57 -1.029,-0.989 -1.623,-1.257c-0.594,-0.269 -1.876,-0.525 -3.846,-0.769l-0.439,-0.049l-0,-4.492Z" style="fill-rule:nonzero;"/><path d="M533.006,1165.94l0,-0.635c-1.725,-0.227 -2.588,-1.212 -2.588,-2.954c0,-0.879 0.273,-1.599 0.818,-2.16c0.545,-0.562 1.241,-0.843 2.088,-0.843c1.041,0 1.884,0.424 2.526,1.27c0.643,0.846 0.965,1.969 0.965,3.369c-0,1.774 -0.517,3.329 -1.55,4.663c-1.034,1.335 -2.438,2.263 -4.212,2.783l0,-0.927c1.302,-1.14 1.953,-2.661 1.953,-4.566Zm-11.255,-0.049l0,-0.537c-0.765,-0.081 -1.371,-0.374 -1.819,-0.879c-0.447,-0.504 -0.671,-1.147 -0.671,-1.928c0,-0.977 0.269,-1.754 0.806,-2.332c0.537,-0.578 1.253,-0.867 2.148,-0.867c1.026,0 1.856,0.436 2.49,1.307c0.635,0.87 0.953,2.014 0.953,3.43c-0,3.564 -1.945,6.014 -5.835,7.348l-0,-0.927c1.285,-1.009 1.928,-2.548 1.928,-4.615Z" style="fill-rule:nonzero;"/></g><g><path d="M1522.66,1233.4c0.993,-0 1.868,0.366 2.625,1.098c0.756,0.733 1.135,1.62 1.135,2.661c-0,1.009 -0.366,1.884 -1.099,2.625c-0.732,0.74 -1.619,1.111 -2.661,1.111c-1.025,-0 -1.908,-0.371 -2.649,-1.111c-0.74,-0.741 -1.111,-1.616 -1.111,-2.625c0,-1.041 0.375,-1.928 1.123,-2.661c0.749,-0.732 1.628,-1.098 2.637,-1.098Z" style="fill-rule:nonzero;"/><path d="M1540.55,1205.91c3.239,0 5.814,0.924 7.727,2.771c1.912,1.848 2.868,4.309 2.868,7.386c0,2.343 -0.712,4.882 -2.136,7.617c-1.424,2.734 -3.926,6.356 -7.507,10.864l11.694,-0l0,5.908l-22.095,0l0,-0.708c2.572,-3.174 4.782,-6.026 6.629,-8.557c1.847,-2.531 3.275,-4.63 4.285,-6.299c1.009,-1.668 1.725,-3.088 2.148,-4.26c0.423,-1.172 0.635,-2.384 0.635,-3.638c-0,-1.562 -0.501,-2.877 -1.502,-3.943c-1.001,-1.066 -2.217,-1.599 -3.65,-1.599c-2.571,0 -5.24,1.465 -8.007,4.395l-0,-6.69c2.913,-2.164 5.883,-3.247 8.911,-3.247Z" style="fill-rule:nonzero;"/><path d="M1577.23,1206.35l0,5.761l-10.815,0l-0,7.349l0.635,-0.049l0.512,0c2.084,0 3.972,0.452 5.664,1.355c1.693,0.904 3.016,2.169 3.968,3.797c0.952,1.627 1.428,3.458 1.428,5.493c-0,3.206 -1.078,5.814 -3.235,7.824c-2.157,2.011 -4.993,3.016 -8.508,3.016c-3.125,-0 -5.892,-0.643 -8.301,-1.929l-0,-5.713c2.539,1.563 4.972,2.344 7.3,2.344c1.823,-0 3.344,-0.509 4.565,-1.526c1.221,-1.017 1.831,-2.307 1.831,-3.87c0,-1.758 -0.7,-3.129 -2.099,-4.113c-1.4,-0.985 -3.304,-1.478 -5.713,-1.478c-1.14,0 -2.401,0.147 -3.784,0.44l-0,-18.701l16.552,-0Z" style="fill-rule:nonzero;"/><path d="M1588.29,1205.91c1.303,0 2.344,0.484 3.125,1.453c0.782,0.968 1.172,2.25 1.172,3.845c0,2.149 -0.72,4.057 -2.16,5.725c-1.441,1.669 -3.203,2.657 -5.286,2.967l0,-1.294c1.563,-1.319 2.344,-3.036 2.344,-5.152l-0.049,-0.757c-1.839,-0.341 -2.759,-1.456 -2.759,-3.344c0,-0.961 0.346,-1.774 1.038,-2.442c0.692,-0.667 1.55,-1.001 2.575,-1.001Zm12.452,0c1.302,0 2.343,0.484 3.125,1.453c0.781,0.968 1.172,2.25 1.172,3.845c-0,2.149 -0.721,4.057 -2.161,5.725c-1.441,1.669 -3.202,2.657 -5.286,2.967l0,-1.294c1.563,-1.319 2.344,-3.036 2.344,-5.152l-0.049,-0.757c-1.839,-0.341 -2.759,-1.456 -2.759,-3.344c0,-0.961 0.346,-1.774 1.038,-2.442c0.692,-0.667 1.55,-1.001 2.576,-1.001Z" style="fill-rule:nonzero;"/><path d="M28.275,1233.4c0.993,-0 1.868,0.366 2.625,1.098c0.757,0.733 1.135,1.62 1.135,2.661c0,1.01 -0.366,1.884 -1.098,2.625c-0.733,0.741 -1.62,1.111 -2.662,1.111c-1.025,-0 -1.908,-0.37 -2.649,-1.111c-0.74,-0.741 -1.11,-1.615 -1.11,-2.625c-0,-1.041 0.374,-1.928 1.123,-2.661c0.748,-0.732 1.627,-1.098 2.636,-1.098Z" style="fill-rule:nonzero;"/><path d="M45.555,1205.91c3.158,0 5.705,0.786 7.642,2.356c1.937,1.571 2.905,3.65 2.905,6.238c0,3.5 -1.587,6.104 -4.761,7.813c1.823,0.651 3.199,1.713 4.126,3.186c0.928,1.473 1.392,3.226 1.392,5.261c-0,3.027 -1.058,5.473 -3.174,7.336c-2.116,1.864 -4.899,2.796 -8.35,2.796c-2.718,-0 -5.33,-0.643 -7.836,-1.929l-0,-6.006c1.383,0.928 2.653,1.599 3.808,2.014c1.156,0.415 2.336,0.623 3.54,0.623c1.595,-0 2.901,-0.452 3.919,-1.355c1.017,-0.903 1.526,-2.079 1.526,-3.528c-0,-1.595 -0.562,-2.869 -1.685,-3.821c-1.123,-0.952 -2.661,-1.428 -4.614,-1.428l-0.391,0l0,-5.298l0.293,0c1.823,0 3.247,-0.403 4.273,-1.208c1.025,-0.806 1.538,-1.892 1.538,-3.26c-0,-1.35 -0.497,-2.437 -1.49,-3.259c-0.993,-0.822 -2.262,-1.233 -3.808,-1.233c-1.921,0 -3.939,0.513 -6.055,1.538l0,-5.346c2.132,-0.993 4.533,-1.49 7.202,-1.49Z" style="fill-rule:nonzero;"/><path d="M66.863,1205.91c1.302,0 2.344,0.485 3.125,1.453c0.782,0.969 1.172,2.25 1.172,3.845c0,2.149 -0.72,4.057 -2.16,5.725c-1.441,1.669 -3.203,2.657 -5.286,2.967l-0,-1.294c1.562,-1.319 2.344,-3.036 2.344,-5.152l-0.049,-0.756c-1.839,-0.342 -2.759,-1.457 -2.759,-3.345c0,-0.96 0.346,-1.774 1.038,-2.442c0.691,-0.667 1.55,-1.001 2.575,-1.001Zm12.451,0c1.303,0 2.344,0.485 3.125,1.453c0.782,0.969 1.172,2.25 1.172,3.845c0,2.149 -0.72,4.057 -2.16,5.725c-1.441,1.669 -3.203,2.657 -5.286,2.967l0,-1.294c1.563,-1.319 2.344,-3.036 2.344,-5.152l-0.049,-0.756c-1.839,-0.342 -2.759,-1.457 -2.759,-3.345c0,-0.96 0.346,-1.774 1.038,-2.442c0.692,-0.667 1.55,-1.001 2.575,-1.001Z" style="fill-rule:nonzero;"/></g><g><path d="M1001.07,52.19c0.993,-0 1.868,0.366 2.625,1.098c0.756,0.733 1.135,1.62 1.135,2.661c-0,1.009 -0.366,1.884 -1.099,2.625c-0.732,0.74 -1.619,1.111 -2.661,1.111c-1.025,-0 -1.908,-0.371 -2.649,-1.111c-0.74,-0.741 -1.111,-1.616 -1.111,-2.625c0,-1.041 0.375,-1.928 1.123,-2.661c0.749,-0.732 1.628,-1.098 2.637,-1.098Z" style="fill-rule:nonzero;"/><path d="M1020.82,24.699c3.043,0 5.53,0.887 7.458,2.661c1.929,1.775 2.893,4.069 2.893,6.885c0,3.076 -1.399,5.493 -4.199,7.251c1.758,0.928 3.027,2.075 3.809,3.443c0.781,1.367 1.172,2.97 1.172,4.809c-0,1.888 -0.481,3.593 -1.441,5.115c-0.96,1.522 -2.295,2.706 -4.004,3.552c-1.709,0.846 -3.605,1.27 -5.688,1.27c-3.255,-0 -5.937,-0.928 -8.045,-2.784c-2.107,-1.855 -3.161,-4.239 -3.161,-7.153c-0,-1.937 0.415,-3.577 1.245,-4.919c0.83,-1.343 2.083,-2.454 3.76,-3.333c-2.8,-1.774 -4.2,-4.207 -4.2,-7.3c0,-2.799 0.973,-5.082 2.918,-6.848c1.945,-1.766 4.439,-2.649 7.483,-2.649Zm-4.151,9.644c0,1.465 0.391,2.665 1.172,3.601c0.782,0.936 1.774,1.404 2.979,1.404c1.172,-0 2.148,-0.484 2.929,-1.453c0.782,-0.968 1.172,-2.152 1.172,-3.552c0,-1.481 -0.37,-2.653 -1.11,-3.516c-0.741,-0.862 -1.738,-1.294 -2.991,-1.294c-1.27,0 -2.279,0.423 -3.028,1.27c-0.748,0.846 -1.123,2.026 -1.123,3.54Zm-0.708,15.112c0,1.677 0.44,2.995 1.319,3.955c0.879,0.961 2.059,1.441 3.54,1.441c1.481,-0 2.649,-0.485 3.503,-1.453c0.855,-0.968 1.282,-2.25 1.282,-3.845c-0,-1.595 -0.44,-2.905 -1.318,-3.931c-0.879,-1.025 -2.019,-1.538 -3.418,-1.538c-1.465,0 -2.649,0.484 -3.553,1.453c-0.903,0.968 -1.355,2.274 -1.355,3.918Z" style="fill-rule:nonzero;"/><path d="M1059.48,25.139l0,0.195l-13.745,34.351l-5.761,-2.149l10.766,-26.538l-13.598,0l-0,-5.859l22.338,-0Z" style="fill-rule:nonzero;"/><path d="M1082.57,25.139l-0,5.761l-10.816,0l0,7.349l0.635,-0.049l0.513,0c2.083,0 3.971,0.452 5.664,1.355c1.693,0.904 3.015,2.169 3.967,3.797c0.952,1.627 1.428,3.458 1.428,5.493c0,3.206 -1.078,5.814 -3.234,7.824c-2.157,2.011 -4.993,3.016 -8.509,3.016c-3.125,-0 -5.892,-0.643 -8.301,-1.929l0,-5.713c2.54,1.563 4.973,2.344 7.3,2.344c1.823,-0 3.345,-0.509 4.566,-1.526c1.22,-1.017 1.831,-2.307 1.831,-3.87c-0,-1.758 -0.7,-3.129 -2.1,-4.113c-1.4,-0.985 -3.304,-1.478 -5.713,-1.478c-1.139,0 -2.4,0.147 -3.784,0.44l0,-18.701l16.553,-0Z" style="fill-rule:nonzero;"/><path d="M1093.74,24.699c1.302,0 2.344,0.484 3.125,1.453c0.781,0.968 1.172,2.25 1.172,3.845c0,2.149 -0.72,4.057 -2.161,5.725c-1.44,1.669 -3.202,2.657 -5.285,2.967l-0,-1.294c1.562,-1.319 2.344,-3.036 2.344,-5.152l-0.049,-0.757c-1.84,-0.341 -2.759,-1.456 -2.759,-3.344c-0,-0.961 0.346,-1.774 1.037,-2.442c0.692,-0.667 1.551,-1.001 2.576,-1.001Zm12.451,0c1.302,0 2.344,0.484 3.125,1.453c0.782,0.968 1.172,2.25 1.172,3.845c0,2.149 -0.72,4.057 -2.16,5.725c-1.441,1.669 -3.203,2.657 -5.286,2.967l-0,-1.294c1.562,-1.319 2.344,-3.036 2.344,-5.152l-0.049,-0.757c-1.839,-0.341 -2.759,-1.456 -2.759,-3.344c0,-0.961 0.346,-1.774 1.038,-2.442c0.691,-0.667 1.55,-1.001 2.575,-1.001Z" style="fill-rule:nonzero;"/><path d="M1018.07,160.648c0.993,-0 1.868,0.366 2.625,1.098c0.756,0.733 1.135,1.62 1.135,2.662c-0,1.009 -0.366,1.884 -1.099,2.624c-0.732,0.741 -1.619,1.111 -2.661,1.111c-1.025,-0 -1.908,-0.37 -2.649,-1.111c-0.74,-0.74 -1.111,-1.615 -1.111,-2.624c0,-1.042 0.375,-1.929 1.123,-2.662c0.749,-0.732 1.628,-1.098 2.637,-1.098Z" style="fill-rule:nonzero;"/><path d="M1046.06,133.158c-1.823,1.513 -3.837,3.751 -6.042,6.713c-2.206,2.963 -3.78,5.559 -4.724,7.789c1.269,-0.538 2.571,-0.806 3.906,-0.806c1.758,-0 3.357,0.443 4.797,1.33c1.441,0.888 2.56,2.116 3.357,3.687c0.798,1.571 1.196,3.316 1.196,5.237c0,2.034 -0.472,3.898 -1.416,5.591c-0.944,1.692 -2.246,3.023 -3.906,3.991c-1.66,0.969 -3.467,1.453 -5.42,1.453c-3.32,-0 -6.01,-1.119 -8.069,-3.357c-2.058,-2.238 -3.088,-5.147 -3.088,-8.728c0,-3.564 1.07,-7.381 3.211,-11.45c2.14,-4.069 5.057,-7.886 8.752,-11.45l7.446,-0Zm-13.061,23.95c-0,1.579 0.443,2.881 1.33,3.906c0.887,1.025 2.031,1.538 3.43,1.538c1.368,0 2.474,-0.484 3.321,-1.452c0.846,-0.969 1.269,-2.251 1.269,-3.846c0,-1.497 -0.435,-2.738 -1.306,-3.723c-0.871,-0.985 -1.998,-1.477 -3.381,-1.477c-1.335,0 -2.446,0.484 -3.333,1.453c-0.887,0.968 -1.33,2.169 -1.33,3.601Z" style="fill-rule:nonzero;"/><path d="M1072.12,133.158l-0,19.897l2.905,0l-0,5.005l-2.905,-0l-0,9.644l-6.25,-0l-0,-9.644l-13.941,-0l0,-4.004l16.602,-20.898l3.589,-0Zm-6.397,10.351l-7.544,9.546l7.691,0l-0,-9.546l-0.147,0Z" style="fill-rule:nonzero;"/><path d="M1083.7,133.158c1.302,-0 2.343,0.484 3.125,1.452c0.781,0.969 1.171,2.25 1.171,3.845c0,2.149 -0.72,4.057 -2.16,5.726c-1.441,1.668 -3.203,2.657 -5.286,2.966l0,-1.294c1.563,-1.318 2.344,-3.036 2.344,-5.151l-0.049,-0.757c-1.839,-0.342 -2.759,-1.457 -2.759,-3.345c0,-0.96 0.346,-1.774 1.038,-2.441c0.692,-0.668 1.55,-1.001 2.576,-1.001Zm12.451,-0c1.302,-0 2.343,0.484 3.125,1.452c0.781,0.969 1.172,2.25 1.172,3.845c-0,2.149 -0.721,4.057 -2.161,5.726c-1.44,1.668 -3.202,2.657 -5.286,2.966l0,-1.294c1.563,-1.318 2.344,-3.036 2.344,-5.151l-0.049,-0.757c-1.839,-0.342 -2.759,-1.457 -2.759,-3.345c0,-0.96 0.346,-1.774 1.038,-2.441c0.692,-0.668 1.55,-1.001 2.576,-1.001Z" style="fill-rule:nonzero;"/><path d="M1026.72,267.815c0.993,-0 1.868,0.366 2.625,1.098c0.756,0.733 1.135,1.62 1.135,2.661c-0,1.009 -0.366,1.884 -1.099,2.625c-0.732,0.74 -1.619,1.111 -2.661,1.111c-1.025,-0 -1.908,-0.371 -2.649,-1.111c-0.74,-0.741 -1.111,-1.616 -1.111,-2.625c0,-1.041 0.375,-1.928 1.123,-2.661c0.749,-0.732 1.628,-1.098 2.637,-1.098Z" style="fill-rule:nonzero;"/><path d="M1054.45,240.764l0,5.761l-10.815,0l-0,7.349l0.634,-0.049l0.513,0c2.083,0 3.971,0.452 5.664,1.355c1.693,0.904 3.015,2.169 3.967,3.797c0.953,1.627 1.429,3.458 1.429,5.493c-0,3.206 -1.079,5.814 -3.235,7.824c-2.157,2.011 -4.993,3.016 -8.508,3.016c-3.125,-0 -5.892,-0.643 -8.301,-1.929l-0,-5.713c2.539,1.563 4.972,2.344 7.3,2.344c1.822,-0 3.344,-0.509 4.565,-1.526c1.221,-1.017 1.831,-2.307 1.831,-3.87c0,-1.758 -0.7,-3.129 -2.1,-4.113c-1.399,-0.985 -3.304,-1.478 -5.712,-1.478c-1.14,0 -2.401,0.147 -3.785,0.44l0,-18.701l16.553,-0Z" style="fill-rule:nonzero;"/><path d="M1065.31,240.324c1.302,0 2.344,0.484 3.125,1.453c0.781,0.968 1.172,2.25 1.172,3.845c-0,2.149 -0.72,4.057 -2.161,5.725c-1.44,1.669 -3.202,2.657 -5.285,2.967l-0,-1.294c1.562,-1.319 2.343,-3.036 2.343,-5.152l-0.049,-0.757c-1.839,-0.341 -2.758,-1.456 -2.758,-3.344c-0,-0.961 0.346,-1.774 1.037,-2.442c0.692,-0.667 1.551,-1.001 2.576,-1.001Zm12.451,0c1.302,0 2.344,0.484 3.125,1.453c0.781,0.968 1.172,2.25 1.172,3.845c0,2.149 -0.72,4.057 -2.161,5.725c-1.44,1.669 -3.202,2.657 -5.285,2.967l-0,-1.294c1.562,-1.319 2.343,-3.036 2.343,-5.152l-0.048,-0.757c-1.84,-0.341 -2.759,-1.456 -2.759,-3.344c-0,-0.961 0.346,-1.774 1.037,-2.442c0.692,-0.667 1.551,-1.001 2.576,-1.001Z" style="fill-rule:nonzero;"/></g><path d="M1263.07,384.16l508.196,-0" style="fill:none;fill-rule:nonzero;stroke:#231f20;stroke-width:4.17px;"/><path d="M1263.07,421.66l307.625,-0" style="fill:none;fill-rule:nonzero;stroke:#231f20;stroke-width:2.08px;"/><path d="M1263.07,440.41l4.166,-0" style="fill:none;fill-rule:nonzero;stroke:#231f20;stroke-width:1.04px;"/><path d="M1283.85,440.41l66.484,-0" style="fill:none;fill-rule:nonzero;stroke:#231f20;stroke-width:1.04px;stroke-dasharray:8.31,16.62;"/><path d="M1358.65,440.41l4.166,-0" style="fill:none;fill-rule:nonzero;stroke:#231f20;stroke-width:1.04px;"/><path d="M1263.07,946.66l508.196,-0" style="fill:none;fill-rule:nonzero;stroke:#231f20;stroke-width:4.17px;"/><path d="M1263.07,909.16l307.625,-0" style="fill:none;fill-rule:nonzero;stroke:#231f20;stroke-width:2.08px;"/><path d="M1263.07,890.41l4.166,-0" style="fill:none;fill-rule:nonzero;stroke:#231f20;stroke-width:1.04px;"/><path d="M1283.85,890.41l66.484,-0" style="fill:none;fill-rule:nonzero;stroke:#231f20;stroke-width:1.04px;stroke-dasharray:8.31,16.62;"/><path d="M1358.65,890.41l4.166,-0" style="fill:none;fill-rule:nonzero;stroke:#231f20;stroke-width:1.04px;"/><path d="M695.99,1175l-145.308,0" style="fill:none;fill-rule:nonzero;stroke:#231f20;stroke-width:4.17px;"/><path d="M695.99,1193.9l-145.308,-0" style="fill:none;fill-rule:nonzero;stroke:#231f20;stroke-width:4.17px;"/><path d="M1426.05,1175.01l342.275,0" style="fill:none;fill-rule:nonzero;stroke:#231f20;stroke-width:4.17px;"/><path d="M1428.99,1287.51l342.275,0" style="fill:none;fill-rule:nonzero;stroke:#231f20;stroke-width:4.17px;"/><path d="M1428.76,1250.01l171.137,0" style="fill:none;fill-rule:nonzero;stroke:#231f20;stroke-width:4.17px;"/><path d="M20.937,1175.01l342.275,0" style="fill:none;fill-rule:nonzero;stroke:#231f20;stroke-width:4.17px;"/><path d="M23.877,1265l342.275,0" style="fill:none;fill-rule:nonzero;stroke:#231f20;stroke-width:4.17px;"/></g><g id="Magnets"><rect x="961.496" y="496.693" width="177" height="77.4" style="fill:#808285;"/><rect x="899.996" y="1229.91" width="77.4" height="35.1" style="fill:#808285;"/></g><g id="Fuzz"><path d="M406.291,421.66l-112.5,-0c-20.709,-0 -37.5,16.787 -37.5,37.5l-0,114.633l187.5,0l-0,-114.633c-0,-20.713 -16.788,-37.5 -37.5,-37.5" style="fill:#231f20;fill-rule:nonzero;"/></g><g id="Guides"><rect x="999.892" y="459.193" width="19.008" height="19.004" style="fill:#ed1c24;"/><rect x="999.892" y="421.693" width="38.013" height="75" style="fill:#00a651;"/></g><g id="actual-button" serif:id="actual button"></g></svg>