<?xml version="1.0" encoding="UTF-8" standalone="no"?><!DOCTYPE svg PUBLIC "-//W3C//DTD SVG 1.1//EN" "http://www.w3.org/Graphics/SVG/1.1/DTD/svg11.dtd"><svg width="100%" height="100%" viewBox="0 0 1851 1181" version="1.1" xmlns="http://www.w3.org/2000/svg" xmlns:xlink="http://www.w3.org/1999/xlink" xml:space="preserve" xmlns:serif="http://www.serif.com/" style="fill-rule:evenodd;clip-rule:evenodd;stroke-miterlimit:10;"><g id="Top-cut" serif:id="Top cut"><path d="M1106.26,946.66l-112.525,-0c-41.412,-0 -74.987,-33.575 -74.987,-74.988l-0,-412.525c-0,-41.412 33.575,-74.987 74.987,-74.987l112.525,-0c41.413,-0 74.988,33.575 74.988,74.987l-0,412.525c-0,41.413 -33.575,74.988 -74.988,74.988Z" style="fill:none;fill-rule:nonzero;stroke:#231f20;stroke-width:4.17px;"/><path d="M1108.5,909.461l-117,-0c-20.713,-0 -37.5,-16.788 -37.5,-37.5l-0,-413.1c-0,-20.713 16.787,-37.5 37.5,-37.5l117,-0c20.712,-0 37.5,16.787 37.5,37.5l-0,413.1c-0,20.712 -16.788,37.5 -37.5,37.5Z" style="fill:none;fill-rule:nonzero;stroke:#231f20;stroke-width:2.08px;"/></g><g id="pcb-clear-zone" serif:id="pcb clear zone"><path d="M1106.25,440.41l-112.5,-0c-10.354,-0 -18.75,8.396 -18.75,18.75l-0,412.5c-0,10.354 8.396,18.75 18.75,18.75l112.5,-0c10.354,-0 18.75,-8.396 18.75,-18.75l-0,-412.5c-0,-10.354 -8.396,-18.75 -18.75,-18.75Z" style="fill:none;fill-rule:nonzero;stroke:#231f20;stroke-width:1.04px;stroke-dasharray:8.28,16.56;"/><path d="M1106.25,890.227l-112.5,-0c-10.354,-0 -18.75,-8.396 -18.75,-18.75l-0,-412.5c-0,-10.354 8.396,-18.75 18.75,-18.75l112.5,-0c10.354,-0 18.75,8.396 18.75,18.75l-0,412.5c-0,10.354 -8.396,18.75 -18.75,18.75Z" style="fill:none;fill-rule:nonzero;stroke:#231f20;stroke-width:1.04px;"/></g><g id="old"><path d="M974.994,615.159l-18.583,0l-0,100.5l18.583,0m-0,-100.5l-0,-41.066l-13.5,-0l-0,-77.4l13.5,-0l-0,-37.534c-0,-10.354 8.396,-18.75 18.75,-18.75l112.5,0c10.358,0 18.75,8.396 18.75,18.75l-0,37.534l13.5,-0l-0,77.4l-13.5,-0l-0,297.566c-0,10.354 -8.392,18.75 -18.75,18.75l-112.5,0c-10.354,0 -18.75,-8.396 -18.75,-18.75l-0,-156" style="fill:none;fill-rule:nonzero;stroke:#231f20;stroke-width:1.04px;"/></g><g id="Side"><rect x="768.746" y="1047.01" width="562.5" height="112.5" style="fill:#754c29;stroke:#231f20;stroke-width:4.17px;"/><rect x="824.996" y="1047.01" width="450" height="74.996" style="fill:#fff;"/><path d="M1270.83,1047.01l4.167,0l-0,4.167" style="fill:none;fill-rule:nonzero;stroke:#231f20;stroke-width:1.04px;"/><path d="M1275,1067.84l-0,41.662" style="fill:none;fill-rule:nonzero;stroke:#231f20;stroke-width:1.04px;stroke-dasharray:8.33,16.67;"/><path d="M1275,1117.84l-0,4.167l-4.167,0" style="fill:none;fill-rule:nonzero;stroke:#231f20;stroke-width:1.04px;"/><path d="M1254.16,1122.01l-416.667,0" style="fill:none;fill-rule:nonzero;stroke:#231f20;stroke-width:1.04px;stroke-dasharray:8.33,16.67;"/><path d="M829.163,1122.01l-4.167,0l-0,-4.167" style="fill:none;fill-rule:nonzero;stroke:#231f20;stroke-width:1.04px;"/><path d="M824.996,1101.17l-0,-41.663" style="fill:none;fill-rule:nonzero;stroke:#231f20;stroke-width:1.04px;stroke-dasharray:8.33,16.67;"/><path d="M824.996,1051.18l-0,-4.167l4.167,0" style="fill:none;fill-rule:nonzero;stroke:#231f20;stroke-width:1.04px;"/><path d="M845.829,1047.01l416.667,0" style="fill:none;fill-rule:nonzero;stroke:#231f20;stroke-width:1.04px;stroke-dasharray:8.33,16.67;"/><rect x="806.246" y="1047" width="487.5" height="18.9" style="fill:#662d91;"/><path d="M1289.58,1047l4.167,0l-0,4.167" style="fill:none;fill-rule:nonzero;stroke:#231f20;stroke-width:1.04px;"/><path d="M1293.75,1061.74l-0,4.167l-4.167,-0" style="fill:none;fill-rule:nonzero;stroke:#231f20;stroke-width:1.04px;"/><path d="M1273.34,1065.9l-454.8,-0" style="fill:none;fill-rule:nonzero;stroke:#231f20;stroke-width:1.04px;stroke-dasharray:8.12,16.24;"/><path d="M810.413,1065.9l-4.167,-0l-0,-4.167" style="fill:none;fill-rule:nonzero;stroke:#231f20;stroke-width:1.04px;"/><path d="M806.246,1051.17l-0,-4.167l4.167,0" style="fill:none;fill-rule:nonzero;stroke:#231f20;stroke-width:1.04px;"/><path d="M826.656,1047l454.8,0" style="fill:none;fill-rule:nonzero;stroke:#231f20;stroke-width:1.04px;stroke-dasharray:8.12,16.24;"/><rect x="890.621" y="1047" width="216" height="90.004" style="fill:#fff;"/><path d="M1102.45,1047l4.167,0l0,4.167" style="fill:none;fill-rule:nonzero;stroke:#2e3192;stroke-width:1.04px;"/><path d="M1106.62,1066.02l0,59.391" style="fill:none;fill-rule:nonzero;stroke:#2e3192;stroke-width:1.04px;stroke-dasharray:7.43,14.85;"/><path d="M1106.62,1132.84l0,4.166l-4.167,0" style="fill:none;fill-rule:nonzero;stroke:#2e3192;stroke-width:1.04px;"/><path d="M1086.48,1137l-183.704,0" style="fill:none;fill-rule:nonzero;stroke:#2e3192;stroke-width:1.04px;stroke-dasharray:7.99,15.98;"/><path d="M894.788,1137l-4.167,0l-0,-4.166" style="fill:none;fill-rule:nonzero;stroke:#2e3192;stroke-width:1.04px;"/><path d="M890.621,1117.99l-0,-59.396" style="fill:none;fill-rule:nonzero;stroke:#2e3192;stroke-width:1.04px;stroke-dasharray:7.43,14.85;"/><path d="M890.621,1051.17l-0,-4.167l4.167,0" style="fill:none;fill-rule:nonzero;stroke:#2e3192;stroke-width:1.04px;"/><path d="M910.763,1047l183.704,0" style="fill:none;fill-rule:nonzero;stroke:#2e3192;stroke-width:1.04px;stroke-dasharray:7.99,15.98;"/></g><g id="button-depth" serif:id="button depth"><rect x="956.246" y="490.393" width="187.5" height="90" style="fill:none;stroke:#2e3192;stroke-width:1.04px;"/><rect x="956.246" y="597.91" width="105" height="135" style="fill:none;stroke:#2e3192;stroke-width:1.04px;"/></g><g id="dot"><path d="M1054.72,496.694c0,2.609 -2.117,4.725 -4.725,4.725c-2.608,0 -4.725,-2.116 -4.725,-4.725c0,-2.608 2.117,-4.725 4.725,-4.725c2.608,0 4.725,2.117 4.725,4.725" style="fill:#231f20;fill-rule:nonzero;"/></g><g id="Fancy"><rect x="193.546" y="641.86" width="28.2" height="47.1" style="fill:#414042;"/><path d="M406.307,946.66l-112.529,-0c-41.413,-0 -74.984,-33.575 -74.984,-74.988l0,-412.525c0,-41.412 33.571,-74.987 74.984,-74.987l112.529,-0c41.412,-0 74.987,33.575 74.987,74.987l0,412.525c0,41.413 -33.575,74.988 -74.987,74.988Z" style="fill:#754c29;fill-rule:nonzero;stroke:#231f20;stroke-width:4.17px;"/><path d="M406.293,909.16l-112.5,-0c-20.713,-0 -37.5,-16.788 -37.5,-37.5l-0,-412.5c-0,-20.713 16.787,-37.5 37.5,-37.5l112.5,-0c20.712,-0 37.5,16.787 37.5,37.5l-0,412.5c-0,20.712 -16.788,37.5 -37.5,37.5Z" style="fill:#662d91;fill-rule:nonzero;stroke:#231f20;stroke-width:2.08px;"/><path d="M273.942,688.249l-1.208,-1.821l-6.588,-9.954l-6.312,-9.533l-3.017,-4.559l0,12.063l11.367,16.725c1.508,-0.95 3.133,-1.767 4.808,-2.492c0.321,-0.142 0.625,-0.3 0.95,-0.429" style="fill:#fbb040;fill-rule:nonzero;"/><path d="M319.22,662.38l-3.021,4.563l-6.308,9.529l-6.588,9.954l-1.208,1.821c0.325,0.133 0.629,0.291 0.95,0.429c1.679,0.729 3.3,1.542 4.804,2.496l11.371,-16.729l0,-12.063Z" style="fill:#fbb040;fill-rule:nonzero;"/><path d="M273.126,660.153c0,-7.23 6.667,-13.088 14.892,-13.088c8.225,0 14.892,5.858 14.892,13.088c-0,7.229 -6.667,13.087 -14.892,13.087c-8.225,0 -14.892,-5.858 -14.892,-13.087m-3.787,-1.167l-2.971,-4.546c2.792,-8.183 11.429,-14.15 21.65,-14.15c10.221,0 18.858,5.967 21.65,14.15l-2.971,4.546c-0.8,-8.45 -8.854,-15.088 -18.679,-15.088c-9.821,0 -17.879,6.638 -18.679,15.088m-7.733,-11.846c4.891,-8.45 14.883,-14.242 26.412,-14.242c11.529,0 21.521,5.792 26.413,14.242l-2.567,3.933c-3.9,-8.191 -13.108,-13.945 -23.846,-13.945c-10.737,-0 -19.942,5.754 -23.846,13.945l-2.566,-3.933Zm25.108,38.458l-0.454,-0.695l-1.671,-2.555l-1.888,-2.891l-2.745,-4.209c2.441,1.025 5.175,1.6 8.062,1.6c2.888,0 5.621,-0.575 8.063,-1.6l-2.746,4.209l-1.888,2.891l-1.666,2.555l-0.455,0.695c0.43,0.013 0.842,0.071 1.267,0.1c1.421,0.092 2.813,0.259 4.179,0.505c0.409,0.075 0.834,0.116 1.242,0.208l1.979,-2.971l2.458,-3.692l3.942,-5.912l5.229,-7.842l4.234,-6.354l3.366,-5.046l2,-2.996l0,-11.791l-2.475,3.791c-3.012,-4.145 -7.154,-7.591 -12.041,-10.012c-0.034,-0.017 -0.063,-0.033 -0.096,-0.05c-4.909,-2.413 -10.567,-3.788 -16.592,-3.788c-6.025,0 -11.679,1.375 -16.587,3.788c-0.038,0.017 -0.071,0.037 -0.105,0.054c-4.883,2.421 -9.025,5.863 -12.033,10.008l-2.479,-3.791l-0,11.791l2,2.996l3.367,5.046l4.237,6.354l5.225,7.842l3.942,5.912l2.458,3.692l1.979,2.971c0.409,-0.092 0.829,-0.133 1.246,-0.208c1.363,-0.246 2.754,-0.413 4.175,-0.505c0.425,-0.029 0.842,-0.087 1.271,-0.1" style="fill:#fbb040;fill-rule:nonzero;"/><path d="M335.138,686.426l-6.592,-9.954l-6.308,-9.529l-3.017,-4.563l0,12.063l11.367,16.729c1.508,-0.954 3.129,-1.767 4.808,-2.496c0.321,-0.138 0.625,-0.296 0.95,-0.429l-1.208,-1.821Z" style="fill:#fbb040;fill-rule:nonzero;"/><path d="M381.624,674.443l0,-12.062l-3.021,4.562l-6.308,9.529l-6.587,9.954l-1.209,1.821c0.325,0.134 0.629,0.292 0.946,0.429c1.683,0.73 3.3,1.542 4.808,2.496l11.371,-16.729Z" style="fill:#fbb040;fill-rule:nonzero;"/><path d="M376.835,647.142l-2.567,3.933c-3.904,-8.192 -13.108,-13.946 -23.845,-13.946c-10.738,0 -19.946,5.754 -23.85,13.946l-2.563,-3.933c4.892,-8.454 14.883,-14.242 26.413,-14.242c11.529,0 21.52,5.788 26.412,14.242m-7.733,11.846c-0.8,-8.45 -8.859,-15.092 -18.679,-15.092c-9.825,-0 -17.88,6.642 -18.68,15.092l-2.97,-4.55c2.791,-8.184 11.429,-14.15 21.65,-14.15c10.22,-0 18.858,5.966 21.645,14.15l-2.966,4.55Zm-18.679,14.25c-8.225,-0 -14.896,-5.859 -14.896,-13.084c-0,-7.229 6.671,-13.091 14.896,-13.091c8.225,-0 14.891,5.862 14.891,13.091c0,7.225 -6.666,13.084 -14.891,13.084m-28.73,-29.642l-2.475,-3.788l0,11.788l1.996,2.996l3.367,5.05l4.237,6.354l5.225,7.842l3.946,5.912l2.459,3.688l1.979,2.97c0.408,-0.087 0.829,-0.133 1.241,-0.204c1.367,-0.246 2.759,-0.412 4.175,-0.508c0.43,-0.025 0.842,-0.083 1.271,-0.096l-0.454,-0.696l-1.667,-2.554l-1.887,-2.896l-2.746,-4.204c2.442,1.025 5.175,1.596 8.063,1.596c2.887,-0 5.62,-0.571 8.062,-1.596l-2.746,4.204l-1.887,2.896l-1.671,2.554l-0.454,0.696c0.429,0.013 0.846,0.071 1.271,0.096c1.42,0.096 2.812,0.262 4.175,0.508c0.412,0.071 0.837,0.117 1.245,0.204l1.98,-2.97l6.4,-9.6l5.225,-7.842l4.237,-6.354l3.367,-5.05l1.996,-2.996l-0,-11.788l-2.475,3.788c-3.009,-4.142 -7.15,-7.588 -12.038,-10.008c-0.033,-0.017 -0.062,-0.034 -0.096,-0.05c-4.912,-2.413 -10.571,-3.788 -16.591,-3.788c-6.025,0 -11.684,1.375 -16.592,3.788c-0.033,0.016 -0.067,0.033 -0.1,0.05c-4.888,2.42 -9.029,5.866 -12.038,10.008" style="fill:#fbb040;fill-rule:nonzero;"/><path d="M397.54,686.426l-6.587,-9.954l-6.313,-9.529l-3.017,-4.563l0,12.063l11.367,16.729c1.513,-0.954 3.133,-1.767 4.813,-2.496c0.316,-0.138 0.62,-0.296 0.945,-0.429l-1.208,-1.821Z" style="fill:#fbb040;fill-rule:nonzero;"/><path d="M434.698,676.473l-6.591,9.955l-1.204,1.82c0.325,0.13 0.629,0.292 0.945,0.43c1.68,0.729 3.3,1.541 4.809,2.491l11.133,-16.375l0,-12.058l-2.783,4.204l-6.309,9.533Z" style="fill:#fbb040;fill-rule:nonzero;"/><path d="M436.672,651.075c-3.904,-8.192 -13.109,-13.946 -23.846,-13.946c-10.738,-0 -19.946,5.754 -23.846,13.946l-2.571,-3.934c4.896,-8.454 14.884,-14.241 26.417,-14.241c11.529,-0 21.521,5.787 26.412,14.241l-2.566,3.934Zm-5.167,7.912c-0.8,-8.45 -8.858,-15.091 -18.679,-15.091c-9.825,-0 -17.879,6.641 -18.683,15.091l-2.967,-4.546c2.792,-8.187 11.425,-14.15 21.65,-14.15c10.221,0 18.858,5.963 21.65,14.15l-2.971,4.546Zm-18.679,14.25c-8.225,0 -14.892,-5.854 -14.892,-13.083c0,-7.229 6.667,-13.088 14.892,-13.088c8.225,0 14.892,5.859 14.892,13.088c-0,7.229 -6.667,13.083 -14.892,13.083m16.687,-39.65c-0.033,-0.016 -0.062,-0.033 -0.095,-0.05c-4.909,-2.412 -10.567,-3.787 -16.592,-3.787c-6.025,-0 -11.679,1.375 -16.592,3.787l-0.1,0.054c-4.887,2.417 -9.029,5.863 -12.037,10.009l-2.471,-3.792l-0,11.788l1.996,2.995l3.366,5.05l4.234,6.355l5.225,7.841l3.946,5.913l2.458,3.691l1.979,2.967c0.408,-0.087 0.829,-0.133 1.242,-0.204c1.366,-0.246 2.758,-0.413 4.179,-0.504c0.425,-0.029 0.837,-0.088 1.267,-0.1l-0.455,-0.696l-1.666,-2.554l-1.892,-2.892l-2.742,-4.208c2.442,1.025 5.175,1.6 8.063,1.6c2.887,-0 5.621,-0.575 8.062,-1.6l-2.745,4.208l-1.888,2.892l-1.671,2.554l-0.454,0.696c0.429,0.012 0.846,0.071 1.271,0.1c1.421,0.091 2.808,0.258 4.175,0.504c0.412,0.071 0.837,0.117 1.242,0.204l1.983,-2.967l2.458,-3.691l3.942,-5.913l5.225,-7.841l4.237,-6.355l3.367,-5.05l1.758,-2.641l0,-11.779l-2.237,3.429c-3.008,-4.146 -7.15,-7.592 -12.038,-10.013" style="fill:#fbb040;fill-rule:nonzero;"/><path d="M272.994,632.723c0.321,-0.137 0.621,-0.3 0.95,-0.429l-1.208,-1.825l-6.592,-9.95l-6.308,-9.533l-3.021,-4.558l-0,12.062l11.371,16.729c0.983,-0.625 2.075,-1.112 3.141,-1.629c0.034,-0.017 0.067,-0.037 0.104,-0.054c0.53,-0.258 1.017,-0.575 1.563,-0.813" style="fill:#fbb040;fill-rule:nonzero;"/><path d="M307.851,635.218l11.371,-16.73l0,-12.062l-3.021,4.562l-6.308,9.53l-6.592,9.954l-1.204,1.821c0.321,0.133 0.629,0.291 0.946,0.429c0.55,0.237 1.033,0.558 1.567,0.816c0.033,0.013 0.062,0.03 0.096,0.046c1.066,0.521 2.158,1.013 3.145,1.634" style="fill:#fbb040;fill-rule:nonzero;"/><path d="M311.865,595.122c-3.904,-8.192 -13.108,-13.946 -23.846,-13.946c-10.737,-0 -19.946,5.754 -23.846,13.946l-2.57,-3.934c4.895,-8.454 14.883,-14.245 26.416,-14.245c11.529,-0 21.521,5.791 26.413,14.245l-2.567,3.934Zm-5.167,7.912c-0.8,-8.45 -8.858,-15.091 -18.679,-15.091c-9.825,-0 -17.879,6.641 -18.683,15.091l-2.967,-4.546c2.792,-8.187 11.425,-14.15 21.65,-14.15c10.221,0 18.859,5.963 21.65,14.15l-2.971,4.546Zm-18.679,14.254c-8.225,0 -14.891,-5.862 -14.891,-13.091c-0,-7.229 6.666,-13.088 14.891,-13.088c8.225,0 14.892,5.859 14.892,13.088c-0,7.229 -6.667,13.091 -14.892,13.091m28.725,-29.641c-6.046,-8.329 -16.654,-13.854 -28.725,-13.854c-12.075,-0 -22.683,5.525 -28.729,13.854l-2.475,-3.792l0,11.788l2,2.995l3.367,5.05l4.233,6.355l5.225,7.837l3.942,5.917l2.462,3.687l1.979,2.971c0.409,-0.087 0.83,-0.133 1.242,-0.208c1.367,-0.242 2.758,-0.409 4.179,-0.504c0.421,-0.025 0.838,-0.084 1.267,-0.096l-0.454,-0.696l-1.667,-2.558l-1.892,-2.888l-2.745,-4.208c2.445,1.025 5.179,1.6 8.066,1.6c2.888,-0 5.617,-0.575 8.063,-1.6l-2.746,4.208l-1.888,2.888l-1.67,2.558l-0.455,0.696c0.43,0.012 0.846,0.071 1.271,0.096c1.421,0.095 2.809,0.262 4.175,0.504c0.413,0.075 0.838,0.121 1.242,0.208l1.983,-2.971l2.459,-3.687l3.941,-5.917l5.225,-7.837l4.238,-6.355l3.366,-5.05l1.996,-2.995l0,-11.788l-2.475,3.792Z" style="fill:#fbb040;fill-rule:nonzero;"/><path d="M330.589,635.218c0.983,-0.621 2.075,-1.113 3.142,-1.63c0.033,-0.016 0.066,-0.033 0.1,-0.05c0.533,-0.258 1.02,-0.579 1.566,-0.816c0.321,-0.138 0.625,-0.296 0.946,-0.429l-1.204,-1.821l-6.592,-9.954l-6.308,-9.53l-3.021,-4.562l0,12.062l11.371,16.73Z" style="fill:#fbb040;fill-rule:nonzero;"/><path d="M370.256,635.218l11.37,-16.73l0,-12.062l-3.02,4.562l-6.313,9.53l-6.587,9.954l-1.209,1.821c0.325,0.133 0.629,0.291 0.95,0.429c0.546,0.237 1.034,0.558 1.567,0.816c0.033,0.017 0.062,0.03 0.096,0.046c1.066,0.521 2.158,1.013 3.146,1.634" style="fill:#fbb040;fill-rule:nonzero;"/><path d="M374.268,595.122c-3.905,-8.192 -13.109,-13.946 -23.846,-13.946c-10.738,-0 -19.946,5.754 -23.846,13.946l-2.567,-3.934c4.892,-8.454 14.884,-14.245 26.413,-14.245c11.529,-0 21.521,5.791 26.412,14.245l-2.566,3.934Zm-5.167,7.912c-0.8,-8.45 -8.858,-15.091 -18.679,-15.091c-9.825,-0 -17.879,6.641 -18.679,15.091l-2.971,-4.546c2.791,-8.187 11.429,-14.15 21.65,-14.15c10.221,0 18.858,5.963 21.65,14.15l-2.971,4.546Zm-18.679,14.254c-8.225,0 -14.892,-5.862 -14.892,-13.091c0,-7.229 6.667,-13.088 14.892,-13.088c8.225,0 14.891,5.859 14.891,13.088c0,7.229 -6.666,13.091 -14.891,13.091m28.725,-29.641c-6.046,-8.329 -16.65,-13.854 -28.725,-13.854c-12.075,-0 -22.684,5.525 -28.729,13.854l-2.471,-3.792l-0,11.788l1.996,2.995l3.366,5.05l4.234,6.355l5.229,7.837l3.941,5.917l2.459,3.687l1.979,2.971c0.408,-0.087 0.833,-0.133 1.242,-0.208c1.366,-0.242 2.758,-0.409 4.179,-0.504c0.425,-0.025 0.837,-0.084 1.266,-0.096l-0.454,-0.696l-1.666,-2.558l-1.888,-2.888l-2.746,-4.208c2.442,1.025 5.175,1.6 8.063,1.6c2.887,-0 5.621,-0.575 8.062,-1.6l-2.746,4.208l-1.887,2.888l-1.671,2.558l-0.454,0.696c0.429,0.012 0.846,0.071 1.271,0.096c1.421,0.095 2.812,0.262 4.175,0.504c0.416,0.075 0.837,0.121 1.246,0.208l1.979,-2.971l2.458,-3.687l3.946,-5.917l5.221,-7.837l4.237,-6.355l3.367,-5.05l2,-2.995l-0,-11.788l-2.479,3.792Z" style="fill:#fbb040;fill-rule:nonzero;"/><path d="M392.991,635.218c0.987,-0.621 2.075,-1.113 3.142,-1.63l0.104,-0.054c0.533,-0.254 1.016,-0.575 1.566,-0.812c0.317,-0.138 0.621,-0.296 0.946,-0.429l-1.208,-1.821l-6.588,-9.954l-6.312,-9.53l-3.017,-4.562l0,12.062l11.367,16.73Z" style="fill:#fbb040;fill-rule:nonzero;"/><path d="M434.698,620.518l-6.591,9.955l-1.204,1.82c0.325,0.13 0.629,0.292 0.945,0.43c0.55,0.237 1.034,0.558 1.567,0.816c0.033,0.013 0.067,0.029 0.096,0.046c1.071,0.521 2.158,1.008 3.146,1.633l11.133,-16.383l0,-12.054l-2.783,4.204l-6.309,9.533Z" style="fill:#fbb040;fill-rule:nonzero;"/><path d="M436.672,595.122c-3.904,-8.192 -13.109,-13.946 -23.846,-13.946c-10.738,-0 -19.946,5.754 -23.846,13.946l-2.571,-3.934c4.896,-8.454 14.884,-14.245 26.417,-14.245c11.529,-0 21.521,5.791 26.412,14.245l-2.566,3.934Zm-5.167,7.912c-0.8,-8.45 -8.858,-15.091 -18.679,-15.091c-9.825,-0 -17.879,6.641 -18.683,15.091l-2.967,-4.546c2.792,-8.187 11.425,-14.15 21.65,-14.15c10.221,0 18.858,5.963 21.65,14.15l-2.971,4.546Zm-18.679,14.254c-8.225,0 -14.892,-5.862 -14.892,-13.091c0,-7.229 6.667,-13.088 14.892,-13.088c8.225,0 14.892,5.859 14.892,13.088c-0,7.229 -6.667,13.091 -14.892,13.091m-0,-43.495c-12.075,-0 -22.683,5.525 -28.729,13.854l-2.471,-3.792l-0,11.788l1.996,2.995l3.366,5.05l4.234,6.355l5.225,7.837l3.946,5.917l2.458,3.687l1.979,2.971c0.408,-0.087 0.829,-0.133 1.242,-0.208c1.366,-0.242 2.758,-0.409 4.179,-0.504c0.425,-0.025 0.837,-0.084 1.267,-0.096l-0.455,-0.696l-1.666,-2.558l-1.892,-2.888l-2.742,-4.208c2.442,1.025 5.175,1.6 8.063,1.6c2.887,-0 5.621,-0.575 8.062,-1.6l-2.745,4.208l-1.888,2.888l-1.671,2.558l-0.454,0.696c0.429,0.012 0.846,0.071 1.271,0.096c1.421,0.095 2.808,0.262 4.175,0.504c0.412,0.075 0.837,0.121 1.242,0.208l1.983,-2.971l2.458,-3.687l3.942,-5.917l5.225,-7.837l4.237,-6.355l3.367,-5.05l1.758,-2.641l0,-11.784l-2.237,3.434c-6.046,-8.329 -16.65,-13.854 -28.725,-13.854" style="fill:#fbb040;fill-rule:nonzero;"/><path d="M273.942,744.051l-1.208,-1.82l-6.588,-9.955l-6.312,-9.533l-3.017,-4.558l0,12.062l11.371,16.729c0.938,-0.587 1.921,-1.137 2.929,-1.641c0.425,-0.221 0.875,-0.4 1.317,-0.6c0.5,-0.229 0.987,-0.475 1.508,-0.684" style="fill:#fbb040;fill-rule:nonzero;"/><path d="M319.22,730.249l0,-12.066l-3.021,4.558l-6.308,9.533l-6.588,9.954l-1.208,1.825c0.517,0.205 1.008,0.455 1.513,0.684c0.437,0.196 0.883,0.379 1.312,0.591c1.008,0.509 1.988,1.059 2.929,1.65l11.371,-16.729Z" style="fill:#fbb040;fill-rule:nonzero;"/><path d="M273.126,715.955c0,-7.225 6.667,-13.087 14.892,-13.087c8.225,-0 14.892,5.862 14.892,13.087c-0,7.229 -6.667,13.092 -14.892,13.092c-8.225,-0 -14.892,-5.863 -14.892,-13.092m-3.787,-1.162l-2.971,-4.55c2.792,-8.184 11.429,-14.15 21.65,-14.15c10.221,-0 18.858,5.966 21.65,14.15l-2.971,4.55c-0.8,-8.455 -8.854,-15.092 -18.679,-15.092c-9.821,-0 -17.879,6.637 -18.679,15.092m-7.733,-11.846c4.891,-8.454 14.883,-14.246 26.412,-14.246c11.529,-0 21.521,5.792 26.413,14.246l-2.567,3.929c-3.9,-8.192 -13.108,-13.942 -23.846,-13.942c-10.737,0 -19.942,5.75 -23.846,13.942l-2.566,-3.929Zm25.108,38.454l-0.454,-0.692l-1.671,-2.558l-1.888,-2.892l-2.745,-4.204c2.441,1.021 5.175,1.596 8.062,1.596c2.888,-0 5.621,-0.575 8.063,-1.596l-2.746,4.204l-1.888,2.892l-1.666,2.558l-0.455,0.692c0.717,0.025 1.421,0.104 2.125,0.162c0.413,0.038 0.83,0.05 1.234,0.1c1.129,0.134 2.237,0.317 3.329,0.55l1.979,-2.97l2.458,-3.692l3.942,-5.913l5.229,-7.841l7.6,-11.4l2,-2.996l0,-11.792l-2.475,3.792c-2.341,-3.221 -5.371,-6.004 -8.896,-8.229c-1.508,-0.954 -3.129,-1.767 -4.808,-2.496c-2.592,-1.121 -5.358,-1.958 -8.271,-2.475c-1.366,-0.242 -2.758,-0.408 -4.179,-0.504c-0.854,-0.054 -1.7,-0.146 -2.575,-0.146c-0.871,-0 -1.717,0.092 -2.575,0.146c-1.421,0.096 -2.812,0.262 -4.175,0.504c-2.912,0.517 -5.683,1.354 -8.275,2.475c-1.679,0.729 -3.3,1.542 -4.808,2.496c-3.521,2.225 -6.554,5.008 -8.892,8.229l-2.479,-3.792l-0,11.792l2,2.996l3.367,5.05l4.237,6.35l5.225,7.841l3.942,5.913l2.458,3.692l1.979,2.97c1.092,-0.233 2.2,-0.416 3.329,-0.55c0.405,-0.05 0.825,-0.062 1.234,-0.1c0.708,-0.058 1.408,-0.137 2.129,-0.162" style="fill:#fbb040;fill-rule:nonzero;"/><path d="M335.138,742.228l-6.592,-9.954l-6.308,-9.533l-3.017,-4.558l0,12.066l11.371,16.729c0.938,-0.591 1.921,-1.141 2.925,-1.645c0.429,-0.221 0.879,-0.4 1.317,-0.596c0.504,-0.229 0.996,-0.479 1.512,-0.688l-1.208,-1.821Z" style="fill:#fbb040;fill-rule:nonzero;"/><path d="M370.253,746.977l11.371,-16.729l0,-12.062l-3.021,4.558l-6.308,9.533l-6.587,9.95l-1.209,1.825c0.517,0.209 1.009,0.454 1.509,0.684c0.441,0.2 0.887,0.383 1.316,0.591c1.009,0.513 1.988,1.059 2.929,1.65" style="fill:#fbb040;fill-rule:nonzero;"/><path d="M374.268,706.877c-3.905,-8.192 -13.109,-13.946 -23.846,-13.946c-10.738,-0 -19.946,5.754 -23.846,13.946l-2.567,-3.929c4.892,-8.459 14.884,-14.246 26.413,-14.246c11.529,-0 21.521,5.787 26.412,14.246l-2.566,3.929Zm-5.167,7.912c-0.8,-8.45 -8.858,-15.091 -18.679,-15.091c-9.825,-0 -17.879,6.641 -18.679,15.091l-2.971,-4.546c2.791,-8.183 11.429,-14.15 21.65,-14.15c10.221,0 18.858,5.967 21.65,14.15l-2.971,4.546Zm-18.679,14.254c-8.225,0 -14.892,-5.858 -14.892,-13.087c0,-7.229 6.667,-13.088 14.892,-13.088c8.225,0 14.891,5.859 14.891,13.088c0,7.229 -6.666,13.087 -14.891,13.087m19.833,-37.875c-1.508,-0.95 -3.129,-1.762 -4.808,-2.491c-2.592,-1.125 -5.363,-1.959 -8.275,-2.475c-1.363,-0.246 -2.754,-0.413 -4.175,-0.504c-0.859,-0.059 -1.704,-0.146 -2.575,-0.146c-0.875,-0 -1.721,0.087 -2.575,0.146c-1.421,0.091 -2.813,0.258 -4.179,0.504c-2.909,0.516 -5.68,1.35 -8.271,2.475c-1.679,0.729 -3.3,1.541 -4.809,2.491c-3.525,2.23 -6.558,5.013 -8.895,8.234l-2.471,-3.792l-0,11.792l1.996,2.996l7.6,11.4l5.229,7.841l3.941,5.913l2.459,3.691l1.979,2.967c1.092,-0.229 2.2,-0.412 3.329,-0.546c0.404,-0.05 0.821,-0.062 1.233,-0.1c0.709,-0.058 1.409,-0.137 2.125,-0.162l-0.454,-0.692l-1.666,-2.558l-1.888,-2.892l-2.746,-4.204c2.442,1.021 5.175,1.596 8.063,1.596c2.887,-0 5.621,-0.575 8.062,-1.596l-2.746,4.204l-1.887,2.892l-1.671,2.558l-0.454,0.692c0.721,0.025 1.421,0.104 2.129,0.162c0.408,0.038 0.829,0.05 1.233,0.1c1.13,0.134 2.238,0.317 3.33,0.546l1.979,-2.967l2.458,-3.691l3.946,-5.913l5.221,-7.841l4.237,-6.35l3.367,-5.05l2,-2.996l-0,-11.792l-2.479,3.792c-2.338,-3.221 -5.371,-6.004 -8.892,-8.234" style="fill:#fbb040;fill-rule:nonzero;"/><path d="M397.54,742.228l-6.587,-9.954l-6.313,-9.533l-3.017,-4.558l0,12.066l11.371,16.729c0.938,-0.591 1.921,-1.141 2.929,-1.645c0.425,-0.221 0.875,-0.4 1.317,-0.596c0.5,-0.229 0.992,-0.479 1.508,-0.688l-1.208,-1.821Z" style="fill:#fbb040;fill-rule:nonzero;"/><path d="M434.698,732.276l-6.591,9.954l-1.204,1.821c0.516,0.208 1.008,0.458 1.512,0.683c0.438,0.2 0.883,0.384 1.313,0.596c1.008,0.508 1.987,1.058 2.929,1.646l11.133,-16.379l0,-12.059l-2.783,4.205l-6.309,9.533Z" style="fill:#fbb040;fill-rule:nonzero;"/><path d="M436.672,706.877c-3.904,-8.192 -13.109,-13.946 -23.846,-13.946c-10.738,-0 -19.946,5.754 -23.846,13.946l-2.571,-3.929c4.896,-8.459 14.884,-14.246 26.417,-14.246c11.529,-0 21.521,5.787 26.412,14.246l-2.566,3.929Zm-5.167,7.912c-0.8,-8.45 -8.858,-15.091 -18.679,-15.091c-9.825,-0 -17.879,6.641 -18.683,15.091l-2.967,-4.546c2.792,-8.183 11.425,-14.15 21.65,-14.15c10.221,0 18.858,5.967 21.65,14.15l-2.971,4.546Zm-18.679,14.254c-8.225,0 -14.892,-5.858 -14.892,-13.087c0,-7.229 6.667,-13.088 14.892,-13.088c8.225,0 14.892,5.859 14.892,13.088c-0,7.229 -6.667,13.087 -14.892,13.087m19.833,-37.875c-1.508,-0.95 -3.129,-1.762 -4.808,-2.491c-2.592,-1.125 -5.363,-1.959 -8.275,-2.475c-1.367,-0.246 -2.754,-0.413 -4.175,-0.504c-0.858,-0.059 -1.704,-0.146 -2.575,-0.146c-0.875,-0 -1.721,0.087 -2.575,0.146c-1.421,0.091 -2.813,0.258 -4.179,0.504c-2.909,0.516 -5.679,1.35 -8.271,2.475c-1.679,0.729 -3.3,1.541 -4.808,2.491c-3.525,2.23 -6.559,5.013 -8.896,8.234l-2.471,-3.792l-0,11.792l1.996,2.996l7.6,11.4l5.225,7.841l3.946,5.913l2.458,3.691l1.979,2.967c1.092,-0.229 2.2,-0.412 3.329,-0.546c0.404,-0.05 0.821,-0.062 1.234,-0.1c0.708,-0.058 1.408,-0.137 2.125,-0.162l-0.455,-0.692l-1.666,-2.558l-1.892,-2.892l-2.742,-4.204c2.442,1.021 5.175,1.596 8.063,1.596c2.887,-0 5.621,-0.575 8.062,-1.596l-2.745,4.204l-1.888,2.892l-1.671,2.558l-0.454,0.692c0.721,0.025 1.421,0.104 2.129,0.162c0.409,0.038 0.825,0.05 1.234,0.1c1.125,0.134 2.237,0.317 3.325,0.546l1.983,-2.967l2.458,-3.691l3.942,-5.913l5.225,-7.841l4.237,-6.35l3.367,-5.05l1.758,-2.646l0,-11.779l-2.237,3.429c-2.338,-3.221 -5.371,-6.004 -8.892,-8.234" style="fill:#fbb040;fill-rule:nonzero;"/><path d="M272.733,798.047l-6.587,-9.954l-6.313,-9.529l-3.016,-4.563l-0,12.067l11.35,16.704c1.796,-1.137 3.737,-2.091 5.771,-2.904l-1.205,-1.821Z" style="fill:#fbb040;fill-rule:nonzero;"/><path d="M319.22,774.003l-3.021,4.563l-6.308,9.529l-6.588,9.954l-1.204,1.817c2.034,0.812 3.975,1.771 5.771,2.904l11.35,-16.7l0,-12.067Z" style="fill:#fbb040;fill-rule:nonzero;"/><path d="M273.126,771.773c0,-7.225 6.667,-13.087 14.892,-13.087c8.225,-0 14.892,5.862 14.892,13.087c-0,7.23 -6.667,13.092 -14.892,13.092c-8.225,0 -14.892,-5.862 -14.892,-13.092m-3.787,-1.162l-2.971,-4.546c2.792,-8.187 11.429,-14.154 21.65,-14.154c10.221,-0 18.858,5.967 21.65,14.154l-2.971,4.546c-0.8,-8.45 -8.854,-15.088 -18.679,-15.088c-9.821,0 -17.879,6.638 -18.679,15.088m-7.733,-11.846c4.891,-8.45 14.883,-14.246 26.412,-14.246c11.529,0 21.521,5.796 26.413,14.246l-2.567,3.933c-3.9,-8.191 -13.108,-13.945 -23.846,-13.945c-10.737,-0 -19.942,5.754 -23.846,13.945l-2.566,-3.933Zm24.654,37.763l-1.671,-2.559l-1.888,-2.891l-2.745,-4.205c2.441,1.025 5.175,1.6 8.062,1.6c2.888,0 5.621,-0.575 8.063,-1.6l-2.746,4.205l-1.888,2.891l-1.666,2.559l-0.45,0.683c2.295,0.079 4.541,0.342 6.7,0.796l1.962,-2.946l2.458,-3.688l3.942,-5.916l5.229,-7.838l4.234,-6.354l3.366,-5.05l2,-2.996l0,-11.787l-2.475,3.787c-2.966,-4.079 -7.037,-7.475 -11.829,-9.891c-0.425,-0.209 -0.875,-0.392 -1.312,-0.592c-3.359,-1.525 -7.025,-2.604 -10.921,-3.075c-0.404,-0.046 -0.821,-0.058 -1.234,-0.096c-1.133,-0.096 -2.266,-0.196 -3.433,-0.196c-1.162,0 -2.3,0.1 -3.433,0.196c-0.409,0.038 -0.829,0.05 -1.234,0.096c-3.895,0.471 -7.558,1.55 -10.92,3.075c-0.438,0.2 -0.888,0.379 -1.313,0.596c-4.792,2.412 -8.862,5.808 -11.825,9.887l-2.479,-3.787l-0,11.787l2,2.996l3.367,5.05l4.237,6.354l5.225,7.838l3.942,5.916l2.458,3.688l1.963,2.946c2.162,-0.454 4.404,-0.717 6.7,-0.796l-0.446,-0.683Z" style="fill:#fbb040;fill-rule:nonzero;"/><path d="M328.548,788.094l-6.308,-9.529l-3.021,-4.562l-0,12.066l11.35,16.7c1.796,-1.133 3.737,-2.087 5.771,-2.904l-1.2,-1.817l-6.592,-9.954Z" style="fill:#fbb040;fill-rule:nonzero;"/><path d="M381.624,786.068l0,-12.067l-3.021,4.563l-6.308,9.529l-6.587,9.954l-1.205,1.821c2.03,0.813 3.975,1.767 5.767,2.904l11.354,-16.704Z" style="fill:#fbb040;fill-rule:nonzero;"/><path d="M374.268,762.7c-3.905,-8.192 -13.109,-13.95 -23.846,-13.95c-10.738,-0 -19.946,5.758 -23.846,13.95l-2.567,-3.934c4.892,-8.454 14.884,-14.245 26.413,-14.245c11.529,-0 21.521,5.791 26.412,14.245l-2.566,3.934Zm-5.167,7.908c-0.8,-8.446 -8.858,-15.087 -18.679,-15.087c-9.825,-0 -17.879,6.641 -18.679,15.087l-2.971,-4.542c2.791,-8.187 11.429,-14.154 21.65,-14.154c10.221,0 18.858,5.967 21.65,14.154l-2.971,4.542Zm-18.679,14.254c-8.225,0 -14.892,-5.858 -14.892,-13.087c0,-7.229 6.667,-13.088 14.892,-13.088c8.225,0 14.891,5.859 14.891,13.088c0,7.229 -6.666,13.087 -14.891,13.087m16.9,-39.533c-0.425,-0.213 -0.871,-0.396 -1.313,-0.596c-3.358,-1.525 -7.025,-2.604 -10.921,-3.071c-0.404,-0.05 -0.825,-0.058 -1.233,-0.096c-1.133,-0.1 -2.271,-0.195 -3.433,-0.195c-1.163,-0 -2.3,0.095 -3.434,0.195c-0.412,0.038 -0.829,0.046 -1.233,0.096c-3.896,0.467 -7.562,1.546 -10.921,3.071c-0.437,0.2 -0.887,0.379 -1.316,0.6c-4.788,2.413 -8.859,5.808 -11.825,9.888l-2.471,-3.788l-0,11.788l1.996,2.995l3.366,5.05l4.234,6.355l5.229,7.837l3.941,5.917l2.459,3.687l1.962,2.946c2.163,-0.458 4.404,-0.717 6.7,-0.796l-0.45,-0.683l-1.666,-2.558l-1.888,-2.892l-2.746,-4.204c2.442,1.025 5.175,1.6 8.063,1.6c2.887,-0 5.621,-0.575 8.062,-1.6l-2.746,4.204l-1.887,2.892l-1.671,2.558l-0.446,0.683c2.3,0.079 4.538,0.338 6.7,0.796l1.963,-2.946l2.458,-3.687l3.946,-5.917l5.221,-7.837l4.237,-6.355l3.367,-5.05l2,-2.995l-0,-11.788l-2.479,3.788c-2.963,-4.08 -7.034,-7.475 -11.825,-9.892" style="fill:#fbb040;fill-rule:nonzero;"/><path d="M390.953,788.094l-6.313,-9.529l-3.017,-4.562l0,12.066l11.35,16.7c1.796,-1.133 3.738,-2.087 5.771,-2.904l-1.204,-1.817l-6.587,-9.954Z" style="fill:#fbb040;fill-rule:nonzero;"/><path d="M434.698,788.094l-6.591,9.954l-1.2,1.817c2.033,0.817 3.975,1.771 5.771,2.904l11.112,-16.354l0,-12.058l-2.783,4.208l-6.309,9.529Z" style="fill:#fbb040;fill-rule:nonzero;"/><path d="M436.672,762.7c-3.904,-8.192 -13.109,-13.95 -23.846,-13.95c-10.738,-0 -19.946,5.758 -23.846,13.95l-2.571,-3.934c4.896,-8.454 14.884,-14.245 26.417,-14.245c11.529,-0 21.521,5.791 26.412,14.245l-2.566,3.934Zm-5.167,7.908c-0.8,-8.446 -8.858,-15.087 -18.679,-15.087c-9.825,-0 -17.879,6.641 -18.683,15.087l-2.967,-4.542c2.792,-8.187 11.425,-14.154 21.65,-14.154c10.221,0 18.858,5.967 21.65,14.154l-2.971,4.542Zm-18.679,14.254c-8.225,0 -14.892,-5.858 -14.892,-13.087c0,-7.229 6.667,-13.088 14.892,-13.088c8.225,0 14.892,5.859 14.892,13.088c-0,7.229 -6.667,13.087 -14.892,13.087m16.9,-39.533c-0.429,-0.213 -0.875,-0.396 -1.313,-0.596c-3.362,-1.525 -7.025,-2.604 -10.92,-3.071c-0.409,-0.05 -0.825,-0.058 -1.234,-0.096c-1.133,-0.1 -2.271,-0.195 -3.433,-0.195c-1.163,-0 -2.3,0.095 -3.433,0.195c-0.413,0.038 -0.83,0.046 -1.234,0.096c-3.896,0.467 -7.562,1.546 -10.921,3.071c-0.437,0.2 -0.887,0.379 -1.316,0.6c-4.792,2.413 -8.859,5.808 -11.825,9.888l-2.471,-3.788l-0,11.788l1.996,2.995l3.366,5.05l4.234,6.355l5.225,7.837l3.946,5.917l2.458,3.687l1.962,2.946c2.163,-0.458 4.4,-0.717 6.7,-0.796l-0.45,-0.683l-1.666,-2.558l-1.892,-2.892l-2.742,-4.204c2.442,1.025 5.175,1.6 8.063,1.6c2.887,-0 5.621,-0.575 8.062,-1.6l-2.745,4.204l-1.888,2.892l-1.671,2.558l-0.446,0.683c2.296,0.079 4.538,0.338 6.696,0.796l1.967,-2.946l2.458,-3.687l3.942,-5.917l5.225,-7.837l4.237,-6.355l3.367,-5.05l1.758,-2.641l0,-11.784l-2.237,3.43c-2.963,-4.08 -7.033,-7.475 -11.825,-9.892" style="fill:#fbb040;fill-rule:nonzero;"/><path d="M273.942,855.64l-1.208,-1.821l-6.588,-9.954l-6.312,-9.533l-3.017,-4.559l0,12.063l11.367,16.729c1.512,-0.954 3.133,-1.771 4.812,-2.496c0.321,-0.141 0.621,-0.3 0.946,-0.429" style="fill:#fbb040;fill-rule:nonzero;"/><path d="M319.22,829.773l-3.021,4.559l-6.308,9.533l-6.588,9.954l-1.208,1.821c0.325,0.129 0.625,0.288 0.942,0.429c1.683,0.725 3.304,1.542 4.812,2.496l11.371,-16.729l0,-12.063Z" style="fill:#fbb040;fill-rule:nonzero;"/><path d="M273.126,827.543c0,-7.225 6.667,-13.087 14.892,-13.087c8.225,-0 14.892,5.862 14.892,13.087c-0,7.23 -6.667,13.092 -14.892,13.092c-8.225,0 -14.892,-5.862 -14.892,-13.092m-3.787,-1.162l-2.971,-4.55c2.792,-8.183 11.429,-14.15 21.65,-14.15c10.221,-0 18.858,5.967 21.65,14.15l-2.971,4.55c-0.8,-8.454 -8.854,-15.092 -18.679,-15.092c-9.821,0 -17.879,6.638 -18.679,15.092m-7.733,-11.846c4.891,-8.454 14.883,-14.246 26.412,-14.246c11.529,0 21.521,5.792 26.413,14.246l-2.567,3.929c-3.9,-8.191 -13.108,-13.941 -23.846,-13.941c-10.737,-0 -19.942,5.75 -23.846,13.941l-2.566,-3.929Zm25.108,38.454l-0.454,-0.696l-1.671,-2.554l-1.888,-2.891l-2.745,-4.209c2.441,1.025 5.175,1.6 8.062,1.6c2.888,0 5.621,-0.575 8.063,-1.6l-2.746,4.209l-1.888,2.891l-1.666,2.554l-0.455,0.696c0.43,0.017 0.846,0.071 1.275,0.1c1.417,0.092 2.805,0.259 4.171,0.504c0.409,0.075 0.834,0.121 1.242,0.209l1.979,-2.971l2.458,-3.692l3.942,-5.912l5.229,-7.842l7.6,-11.4l2,-2.996l0,-11.791l-2.475,3.791c-2.337,-3.212 -5.362,-5.996 -8.879,-8.216c-1.792,-1.138 -3.737,-2.092 -5.767,-2.909c-1.941,-0.775 -3.962,-1.408 -6.07,-1.858c-2.159,-0.454 -4.405,-0.717 -6.7,-0.792c-0.442,-0.012 -0.867,-0.075 -1.313,-0.075c-0.446,0 -0.871,0.063 -1.312,0.075c-2.296,0.075 -4.538,0.338 -6.7,0.792c-2.109,0.45 -4.13,1.083 -6.067,1.858c-2.033,0.817 -3.975,1.771 -5.771,2.909c-3.517,2.22 -6.542,5.004 -8.875,8.216l-2.479,-3.791l-0,11.791l2,2.996l3.367,5.05l4.237,6.35l5.225,7.842l3.942,5.912l2.458,3.692l1.979,2.971c0.409,-0.088 0.829,-0.134 1.246,-0.209c1.363,-0.245 2.75,-0.412 4.171,-0.504c0.425,-0.029 0.842,-0.083 1.275,-0.1" style="fill:#fbb040;fill-rule:nonzero;"/><path d="M335.138,853.817l-6.592,-9.954l-6.308,-9.533l-3.017,-4.559l0,12.063l11.367,16.733c1.513,-0.958 3.133,-1.771 4.813,-2.5c0.32,-0.137 0.62,-0.296 0.945,-0.429l-1.208,-1.821Z" style="fill:#fbb040;fill-rule:nonzero;"/><path d="M381.624,829.773l-3.021,4.559l-6.308,9.533l-6.587,9.954l-1.209,1.821c0.321,0.129 0.625,0.288 0.942,0.429c1.683,0.725 3.304,1.542 4.812,2.496l11.371,-16.729l0,-12.063Z" style="fill:#fbb040;fill-rule:nonzero;"/><path d="M374.268,818.466c-3.905,-8.192 -13.109,-13.946 -23.846,-13.946c-10.738,-0 -19.946,5.754 -23.846,13.946l-2.567,-3.93c4.892,-8.458 14.884,-14.245 26.413,-14.245c11.529,-0 21.521,5.787 26.412,14.245l-2.566,3.93Zm-5.167,7.912c-0.8,-8.45 -8.858,-15.092 -18.679,-15.092c-9.825,0 -17.879,6.642 -18.679,15.092l-2.971,-4.546c2.791,-8.183 11.429,-14.15 21.65,-14.15c10.221,0 18.858,5.967 21.65,14.15l-2.971,4.546Zm-18.679,14.254c-8.225,0 -14.892,-5.858 -14.892,-13.087c0,-7.229 6.667,-13.088 14.892,-13.088c8.225,0 14.891,5.859 14.891,13.088c0,7.229 -6.666,13.087 -14.891,13.087m19.85,-37.862c-1.796,-1.134 -3.738,-2.092 -5.771,-2.904c-1.938,-0.775 -3.954,-1.413 -6.067,-1.859c-2.162,-0.458 -4.4,-0.716 -6.7,-0.796c-0.441,-0.012 -0.866,-0.07 -1.312,-0.07c-0.446,-0 -0.871,0.058 -1.313,0.07c-2.296,0.08 -4.537,0.338 -6.7,0.796c-2.108,0.446 -4.129,1.084 -6.071,1.859c-2.029,0.812 -3.975,1.77 -5.766,2.904c-3.517,2.225 -6.542,5.008 -8.879,8.221l-2.471,-3.792l-0,11.792l1.996,2.995l7.6,11.4l5.229,7.842l3.941,5.913l2.459,3.691l1.979,2.967c0.408,-0.083 0.833,-0.133 1.242,-0.204c1.366,-0.246 2.754,-0.413 4.17,-0.504c0.43,-0.03 0.846,-0.084 1.275,-0.1l-0.454,-0.696l-1.666,-2.554l-1.888,-2.892l-2.746,-4.208c2.442,1.025 5.175,1.6 8.063,1.6c2.887,-0 5.621,-0.575 8.062,-1.6l-2.746,4.208l-1.887,2.892l-1.671,2.554l-0.454,0.696c0.433,0.016 0.85,0.07 1.275,0.1c1.421,0.091 2.808,0.258 4.171,0.504c0.416,0.071 0.837,0.121 1.246,0.204l1.979,-2.967l2.458,-3.691l3.946,-5.913l5.221,-7.842l4.237,-6.35l3.367,-5.05l2,-2.995l-0,-11.792l-2.479,3.792c-2.334,-3.213 -5.359,-5.996 -8.875,-8.221" style="fill:#fbb040;fill-rule:nonzero;"/><path d="M397.54,853.817l-6.587,-9.954l-6.313,-9.533l-3.017,-4.559l0,12.063l11.367,16.733c1.513,-0.958 3.133,-1.771 4.813,-2.5c0.32,-0.137 0.62,-0.296 0.945,-0.429l-1.208,-1.821Z" style="fill:#fbb040;fill-rule:nonzero;"/><path d="M434.698,843.864l-6.591,9.954l-1.204,1.821c0.325,0.129 0.625,0.292 0.941,0.429c1.684,0.73 3.304,1.542 4.813,2.496l11.133,-16.379l0,-12.058l-2.783,4.204l-6.309,9.533Z" style="fill:#fbb040;fill-rule:nonzero;"/><path d="M436.672,818.466c-3.904,-8.192 -13.109,-13.946 -23.846,-13.946c-10.738,-0 -19.946,5.754 -23.846,13.946l-2.571,-3.93c4.896,-8.458 14.884,-14.245 26.417,-14.245c11.529,-0 21.521,5.787 26.412,14.245l-2.566,3.93Zm-5.167,7.912c-0.8,-8.45 -8.858,-15.092 -18.679,-15.092c-9.825,0 -17.879,6.642 -18.683,15.092l-2.967,-4.546c2.792,-8.183 11.425,-14.15 21.65,-14.15c10.221,0 18.858,5.967 21.65,14.15l-2.971,4.546Zm-18.679,14.254c-8.225,0 -14.892,-5.858 -14.892,-13.087c0,-7.229 6.667,-13.088 14.892,-13.088c8.225,0 14.892,5.859 14.892,13.088c-0,7.229 -6.667,13.087 -14.892,13.087m19.85,-37.862c-1.796,-1.134 -3.738,-2.092 -5.771,-2.904c-1.937,-0.775 -3.958,-1.413 -6.071,-1.859c-2.158,-0.458 -4.4,-0.716 -6.696,-0.796c-0.441,-0.012 -0.87,-0.07 -1.312,-0.07c-0.446,-0 -0.875,0.058 -1.313,0.07c-2.3,0.08 -4.537,0.338 -6.7,0.796c-2.112,0.446 -4.129,1.084 -6.07,1.859c-2.03,0.812 -3.975,1.77 -5.767,2.904c-3.517,2.225 -6.546,5.008 -8.879,8.221l-2.471,-3.792l-0,11.792l1.996,2.995l7.6,11.4l5.225,7.842l3.946,5.913l2.458,3.691l1.979,2.967c0.408,-0.083 0.829,-0.133 1.242,-0.204c1.362,-0.246 2.754,-0.413 4.171,-0.504c0.425,-0.03 0.845,-0.084 1.275,-0.1l-0.455,-0.696l-1.666,-2.554l-1.892,-2.892l-2.742,-4.208c2.442,1.025 5.175,1.6 8.063,1.6c2.887,-0 5.621,-0.575 8.062,-1.6l-2.745,4.208l-1.888,2.892l-1.671,2.554l-0.454,0.696c0.433,0.016 0.85,0.07 1.275,0.1c1.421,0.091 2.808,0.258 4.171,0.504c0.412,0.071 0.837,0.121 1.242,0.204l1.983,-2.967l2.458,-3.691l3.942,-5.913l5.225,-7.842l4.237,-6.35l3.367,-5.05l1.758,-2.645l0,-11.78l-2.237,3.43c-2.333,-3.213 -5.358,-5.996 -8.875,-8.221" style="fill:#fbb040;fill-rule:nonzero;"/><path d="M319.22,885.576l-3.021,4.562l-6.308,9.529l-6.283,9.492l7.783,-0l7.829,-11.517l0,-12.066Z" style="fill:#fbb040;fill-rule:nonzero;"/><path d="M288.019,896.436c-8.225,-0 -14.892,-5.858 -14.892,-13.092c0,-7.225 6.667,-13.083 14.892,-13.083c8.225,-0 14.892,5.858 14.892,13.083c-0,7.234 -6.667,13.092 -14.892,13.092m-18.679,-14.254l-2.971,-4.55c2.792,-8.184 11.425,-14.146 21.65,-14.146c10.221,-0 18.858,5.962 21.65,14.146l-2.971,4.55c-0.8,-8.45 -8.858,-15.088 -18.679,-15.088c-9.821,0 -17.879,6.638 -18.679,15.088m-7.734,-11.846c4.892,-8.45 14.88,-14.246 26.413,-14.246c11.529,0 21.521,5.796 26.412,14.246l-2.566,3.933c-3.9,-8.191 -13.109,-13.946 -23.846,-13.946c-10.738,0 -19.946,5.755 -23.846,13.946l-2.567,-3.933Zm36.388,36.296l6.4,-9.6l5.229,-7.842l4.233,-6.354l3.367,-5.05l1.996,-2.992l-0,-11.791l-2.471,3.791c-2.342,-3.221 -5.375,-6.008 -8.896,-8.229c-1.512,-0.954 -3.133,-1.771 -4.816,-2.496c-2.588,-1.125 -5.355,-1.958 -8.263,-2.475c-1.367,-0.246 -2.754,-0.412 -4.171,-0.504c-0.858,-0.058 -1.708,-0.146 -2.583,-0.146c-0.875,0 -1.725,0.088 -2.583,0.146c-1.417,0.092 -2.805,0.258 -4.171,0.504c-2.909,0.517 -5.675,1.35 -8.267,2.475c-1.679,0.725 -3.3,1.542 -4.812,2.496c-3.521,2.221 -6.555,5.008 -8.896,8.229l-2.475,-3.791l-0,11.791l2,2.992l3.366,5.05l4.234,6.354l5.225,7.842l3.946,5.912l1.5,2.254c2.937,1.463 6.079,2.584 9.391,3.238l-0.216,-0.333l-1.671,-2.559l-1.888,-2.896l-2.75,-4.204c2.446,1.025 5.179,1.596 8.067,1.596c2.887,0 5.621,-0.571 8.062,-1.596l-2.745,4.204l-1.888,2.896l-1.671,2.559l-0.454,0.691c0.717,0.025 1.417,0.1 2.125,0.163c0.413,0.037 0.829,0.05 1.238,0.096c0.15,0.016 0.291,0.054 0.445,0.075c0.221,0.004 0.438,0.033 0.659,0.033l2.516,-0l1.688,-2.529Z" style="fill:#fbb040;fill-rule:nonzero;"/><path d="M322.239,890.137l-3.021,-4.562l0,12.066l7.83,11.517l7.783,0l-6.283,-9.492l-6.309,-9.529Z" style="fill:#fbb040;fill-rule:nonzero;"/><path d="M381.624,885.576l-3.021,4.562l-6.308,9.529l-6.287,9.492l7.787,-0l7.829,-11.517l0,-12.066Z" style="fill:#fbb040;fill-rule:nonzero;"/><path d="M350.421,896.436c-8.225,-0 -14.891,-5.858 -14.891,-13.092c-0,-7.225 6.666,-13.083 14.891,-13.083c8.225,-0 14.892,5.858 14.892,13.083c0,7.234 -6.667,13.092 -14.892,13.092m-18.679,-14.254l-2.971,-4.55c2.792,-8.184 11.43,-14.146 21.65,-14.146c10.225,-0 18.859,5.962 21.65,14.146l-2.97,4.55c-0.8,-8.45 -8.859,-15.088 -18.68,-15.088c-9.82,0 -17.879,6.638 -18.679,15.088m-7.733,-11.846c4.892,-8.45 14.883,-14.246 26.412,-14.246c11.534,0 21.521,5.796 26.413,14.246l-2.567,3.933c-3.9,-8.191 -13.108,-13.946 -23.846,-13.946c-10.737,0 -19.945,5.755 -23.845,13.946l-2.567,-3.933Zm38.846,32.608l3.946,-5.912l5.225,-7.842l4.233,-6.354l3.367,-5.05l2,-2.992l-0,-11.791l-2.475,3.791c-2.342,-3.221 -5.375,-6.008 -8.896,-8.229c-1.509,-0.954 -3.134,-1.771 -4.813,-2.496c-2.591,-1.125 -5.358,-1.958 -8.266,-2.475c-1.367,-0.246 -2.755,-0.412 -4.171,-0.504c-0.859,-0.058 -1.709,-0.146 -2.584,-0.146c-0.875,0 -1.725,0.088 -2.583,0.146c-1.417,0.092 -2.804,0.258 -4.171,0.504c-2.908,0.517 -5.675,1.35 -8.262,2.475c-1.684,0.725 -3.304,1.542 -4.817,2.496c-3.521,2.221 -6.554,5.008 -8.896,8.229l-2.471,-3.791l0,11.791l1.996,2.992l3.367,5.05l4.233,6.354l5.229,7.842l6.4,9.6l1.688,2.529l2.975,-0c0.217,-0.029 0.429,-0.083 0.646,-0.108c0.408,-0.046 0.825,-0.059 1.237,-0.096c0.709,-0.063 1.409,-0.138 2.125,-0.163l-0.454,-0.691l-1.671,-2.559l-1.887,-2.896l-2.746,-4.204c2.442,1.025 5.175,1.596 8.062,1.596c2.888,0 5.621,-0.571 8.067,-1.596l-2.75,4.204l-1.887,2.896l-1.671,2.559l-0.454,0.691c0.72,0.025 1.42,0.1 2.125,0.163c0.412,0.037 0.829,0.05 1.241,0.096c0.217,0.025 0.425,0.079 0.642,0.108l2.979,-0l1.683,-2.529l2.459,-3.688Z" style="fill:#fbb040;fill-rule:nonzero;"/><path d="M384.641,890.137l-3.016,-4.562l-0,12.066l7.829,11.517l7.783,0l-6.283,-9.492l-6.313,-9.529Z" style="fill:#fbb040;fill-rule:nonzero;"/><path d="M436.672,874.268c-3.904,-8.192 -13.109,-13.946 -23.846,-13.946c-10.738,0 -19.946,5.754 -23.846,13.946l-2.571,-3.929c4.896,-8.454 14.884,-14.246 26.417,-14.246c11.529,0 21.521,5.792 26.412,14.246l-2.566,3.929Zm-5.167,7.913c-0.8,-8.45 -8.858,-15.088 -18.679,-15.088c-9.825,0 -17.879,6.638 -18.683,15.088l-2.967,-4.546c2.792,-8.184 11.425,-14.15 21.65,-14.15c10.221,-0 18.858,5.966 21.65,14.15l-2.971,4.546Zm-18.679,14.254c-8.225,-0 -14.892,-5.859 -14.892,-13.088c0,-7.229 6.667,-13.087 14.892,-13.087c8.225,-0 14.892,5.858 14.892,13.087c-0,7.229 -6.667,13.088 -14.892,13.088m19.833,-37.871c-1.512,-0.954 -3.133,-1.767 -4.812,-2.496c-2.592,-1.125 -5.359,-1.958 -8.271,-2.475c-1.363,-0.246 -2.75,-0.412 -4.171,-0.504c-0.858,-0.058 -1.704,-0.146 -2.579,-0.146c-0.875,0 -1.725,0.088 -2.583,0.146c-1.417,0.092 -2.809,0.258 -4.171,0.504c-2.909,0.517 -5.679,1.35 -8.267,2.475c-1.679,0.729 -3.304,1.542 -4.812,2.496c-3.525,2.225 -6.559,5.012 -8.896,8.229l-2.471,-3.792l-0,11.792l1.996,2.996l7.6,11.4l5.225,7.842l3.946,5.912l2.458,3.692l1.683,2.525l1.754,-0c0.596,-0 1.175,-0.063 1.759,-0.088c0.037,-0.004 0.075,-0.012 0.112,-0.016c0.404,-0.05 0.825,-0.063 1.238,-0.1c0.525,-0.046 1.054,-0.084 1.583,-0.121c0.171,-0.021 0.342,-0.054 0.517,-0.079l-0.434,-0.655l-1.666,-2.558l-1.892,-2.892l-2.742,-4.204c2.442,1.021 5.175,1.596 8.063,1.596c2.887,0 5.621,-0.575 8.062,-1.596l-2.745,4.204l-1.888,2.892l-1.671,2.558l-0.083,0.13c3.4,-0.759 6.633,-1.959 9.617,-3.571l1.141,-1.717l3.942,-5.912l5.225,-7.842l4.237,-6.35l3.367,-5.05l1.571,-2.358c0.125,-1.242 0.187,-2.496 0.187,-3.771l0,-8.296l-2.237,3.429c-2.338,-3.217 -5.371,-6.004 -8.892,-8.229" style="fill:#fbb040;fill-rule:nonzero;"/><path d="M354.767,496.694c-0,2.609 -2.117,4.725 -4.725,4.725c-2.609,0 -4.725,-2.116 -4.725,-4.725c-0,-2.608 2.116,-4.725 4.725,-4.725c2.608,0 4.725,2.117 4.725,4.725" style="fill:#231f20;fill-rule:nonzero;"/></g><g id="Button"><path d="M938.708,641.86l0,11.7l-39,0l0,23.7l39,0l0,11.7l17.7,0l0,-47.1l-17.7,0Z" style="fill:#808285;fill-rule:nonzero;"/><rect x="893.138" y="641.86" width="28.2" height="47.1" style="fill:#414042;"/><rect x="956.408" y="615.16" width="88.5" height="100.5" style="fill:#808285;"/><rect x="1002.75" y="1065.9" width="94.5" height="65.7" style="fill:#808285;"/><path d="M1097.25,1127.43l0,4.167l-4.167,0" style="fill:none;fill-rule:nonzero;stroke:#231f20;stroke-width:1.04px;"/><path d="M1077.41,1131.6l-62.667,0" style="fill:none;fill-rule:nonzero;stroke:#231f20;stroke-width:1.04px;stroke-dasharray:7.83,15.67;"/><path d="M1006.91,1131.6l-4.166,0l-0,-4.167" style="fill:none;fill-rule:nonzero;stroke:#231f20;stroke-width:1.04px;"/><path d="M1002.75,1113.09l-0,-35.854" style="fill:none;fill-rule:nonzero;stroke:#231f20;stroke-width:1.04px;stroke-dasharray:7.17,14.34;"/><path d="M1002.75,1070.07l-0,-4.166l4.166,-0" style="fill:none;fill-rule:nonzero;stroke:#231f20;stroke-width:1.04px;"/><path d="M1022.58,1065.9l62.667,-0" style="fill:none;fill-rule:nonzero;stroke:#231f20;stroke-width:1.04px;stroke-dasharray:7.83,15.67;"/><path d="M1093.08,1065.9l4.167,-0l0,4.166" style="fill:none;fill-rule:nonzero;stroke:#231f20;stroke-width:1.04px;"/><path d="M1097.25,1084.41l0,35.854" style="fill:none;fill-rule:nonzero;stroke:#231f20;stroke-width:1.04px;stroke-dasharray:7.17,14.34;"/></g><g id="Dimensions"><path d="M918.746,298.037l-0,-277.1" style="fill:none;fill-rule:nonzero;stroke:#231f20;stroke-width:4.17px;"/><path d="M1125,298.035l-0,-4.167" style="fill:none;fill-rule:nonzero;stroke:#231f20;stroke-width:2.08px;"/><path d="M1125,274.199l-0,-19.671" style="fill:none;fill-rule:nonzero;stroke:#231f20;stroke-width:2.08px;stroke-dasharray:9.83,19.67;"/><path d="M1125,244.694l-0,-4.166" style="fill:none;fill-rule:nonzero;stroke:#231f20;stroke-width:2.08px;"/><path d="M1143.75,298.037l-0,-163.1" style="fill:none;fill-rule:nonzero;stroke:#231f20;stroke-width:2.08px;"/><path d="M1181.25,298.037l-0,-277.1" style="fill:none;fill-rule:nonzero;stroke:#231f20;stroke-width:4.17px;"/><path d="M956.246,298.037l-0,-163.1" style="fill:none;fill-rule:nonzero;stroke:#231f20;stroke-width:2.08px;"/><path d="M974.996,298.035l-0,-4.167" style="fill:none;fill-rule:nonzero;stroke:#231f20;stroke-width:2.08px;"/><path d="M974.996,274.199l-0,-19.671" style="fill:none;fill-rule:nonzero;stroke:#231f20;stroke-width:2.08px;stroke-dasharray:9.83,19.67;"/><path d="M974.996,244.694l-0,-4.166" style="fill:none;fill-rule:nonzero;stroke:#231f20;stroke-width:2.08px;"/><g transform="matrix(50,0,0,50,1852.71,665.166)"></g><text x="1708.1px" y="665.166px" style="font-family:'GillSans-SemiBold', 'Gill Sans', sans-serif;font-weight:600;font-size:50px;">1<tspan x="1734.88px 1747.59px 1774.38px 1801.16px 1827.95px " y="665.166px 665.166px 665.166px 665.166px 665.166px ">.875”</tspan></text><g transform="matrix(50,0,0,50,1652.16,665.166)"></g><text x="1507.55px" y="665.166px" style="font-family:'GillSans-SemiBold', 'Gill Sans', sans-serif;font-weight:600;font-size:50px;">1<tspan x="1534.33px 1547.04px 1573.83px 1600.62px 1627.4px " y="665.166px 665.166px 665.166px 665.166px 665.166px ">.627”</tspan></text><g transform="matrix(50,0,0,50,1415.83,665.166)"></g><text x="1325.3px" y="665.166px" style="font-family:'GillSans-SemiBold', 'Gill Sans', sans-serif;font-weight:600;font-size:50px;">1<tspan x="1351.92px 1364.45px 1391.07px " y="665.166px 665.166px 665.166px ">.5”</tspan></text><g transform="matrix(50,0,0,50,1775.74,1112.46)"></g><text x="1658.16px" y="1112.45px" style="font-family:'GillSans-SemiBold', 'Gill Sans', sans-serif;font-weight:600;font-size:50px;">.<tspan x="1670.8px 1697.53px 1724.25px 1750.98px " y="1112.45px 1112.45px 1112.45px 1112.45px ">375”</tspan></text><g transform="matrix(50,0,0,50,538.451,1065.9)"></g><text x="429.813px" y="1065.9px" style="font-family:'GillSans', 'Gill Sans', sans-serif;font-size:50px;">.<tspan x="441.109px 466.444px 491.778px 517.113px " y="1065.9px 1065.9px 1065.9px 1065.9px ">063”</tspan></text><g transform="matrix(1,0,0,1,-37.1874,479.323)"><text x="1553.7px" y="633.132px" style="font-family:'GillSans-SemiBold', 'Gill Sans', sans-serif;font-weight:600;font-size:50px;">.<tspan x="1566.23px 1592.86px 1619.48px " y="633.132px 633.132px 633.132px ">25”</tspan></text><g transform="matrix(50,0,0,50,122.801,633.136)"></g><text x="59.31px" y="633.136px" style="font-family:'GillSans-SemiBold', 'Gill Sans', sans-serif;font-weight:600;font-size:50px;">.3”</text></g><g transform="matrix(1,0,0,1,702.138,-217.196)"><text x="292.782px" y="276.441px" style="font-family:'GillSans-SemiBold', 'Gill Sans', sans-serif;font-weight:600;font-size:50px;">.<tspan x="305.421px 332.147px 358.873px 385.599px " y="276.441px 276.441px 276.441px 276.441px ">875”</tspan></text><text x="309.782px" y="384.9px" style="font-family:'GillSans-SemiBold', 'Gill Sans', sans-serif;font-weight:600;font-size:50px;">.<tspan x="322.316px 348.937px 375.558px " y="384.9px 384.9px 384.9px ">64”</tspan></text><g transform="matrix(50,0,0,50,381.922,492.066)"></g><text x="318.432px" y="492.066px" style="font-family:'GillSans-SemiBold', 'Gill Sans', sans-serif;font-weight:600;font-size:50px;">.5”</text></g><path d="M1263.07,384.16l508.196,-0" style="fill:none;fill-rule:nonzero;stroke:#231f20;stroke-width:4.17px;"/><path d="M1263.07,421.66l307.625,-0" style="fill:none;fill-rule:nonzero;stroke:#231f20;stroke-width:2.08px;"/><path d="M1263.07,440.41l4.166,-0" style="fill:none;fill-rule:nonzero;stroke:#231f20;stroke-width:1.04px;"/><path d="M1283.85,440.41l66.484,-0" style="fill:none;fill-rule:nonzero;stroke:#231f20;stroke-width:1.04px;stroke-dasharray:8.31,16.62;"/><path d="M1358.65,440.41l4.166,-0" style="fill:none;fill-rule:nonzero;stroke:#231f20;stroke-width:1.04px;"/><path d="M1263.07,946.66l508.196,-0" style="fill:none;fill-rule:nonzero;stroke:#231f20;stroke-width:4.17px;"/><path d="M1263.07,909.16l307.625,-0" style="fill:none;fill-rule:nonzero;stroke:#231f20;stroke-width:2.08px;"/><path d="M1263.07,890.41l4.166,-0" style="fill:none;fill-rule:nonzero;stroke:#231f20;stroke-width:1.04px;"/><path d="M1283.85,890.41l66.484,-0" style="fill:none;fill-rule:nonzero;stroke:#231f20;stroke-width:1.04px;stroke-dasharray:8.31,16.62;"/><path d="M1358.65,890.41l4.166,-0" style="fill:none;fill-rule:nonzero;stroke:#231f20;stroke-width:1.04px;"/><path d="M695.99,1047l-145.308,0" style="fill:none;fill-rule:nonzero;stroke:#231f20;stroke-width:4.17px;"/><path d="M695.99,1065.9l-145.308,-0" style="fill:none;fill-rule:nonzero;stroke:#231f20;stroke-width:4.17px;"/><path d="M1426.05,1047.01l342.275,0" style="fill:none;fill-rule:nonzero;stroke:#231f20;stroke-width:4.17px;"/><path d="M1428.99,1159.51l342.275,0" style="fill:none;fill-rule:nonzero;stroke:#231f20;stroke-width:4.17px;"/><path d="M1428.76,1122.01l171.137,0" style="fill:none;fill-rule:nonzero;stroke:#231f20;stroke-width:4.17px;"/><path d="M20.937,1047.01l342.275,0" style="fill:none;fill-rule:nonzero;stroke:#231f20;stroke-width:4.17px;"/><path d="M23.877,1137l342.275,0" style="fill:none;fill-rule:nonzero;stroke:#231f20;stroke-width:4.17px;"/></g><g id="Magnets"><rect x="961.496" y="496.693" width="177" height="77.4" style="fill:#808285;"/><rect x="899.996" y="1101.91" width="77.4" height="35.1" style="fill:#808285;"/></g><g id="Fuzz"><path d="M406.291,421.66l-112.5,-0c-20.709,-0 -37.5,16.787 -37.5,37.5l-0,114.633l187.5,0l-0,-114.633c-0,-20.713 -16.788,-37.5 -37.5,-37.5" style="fill:#231f20;fill-rule:nonzero;"/></g><g id="Guides"><rect x="999.892" y="459.193" width="19.008" height="19.004" style="fill:#ed1c24;"/><rect x="999.892" y="421.693" width="38.013" height="75" style="fill:#00a651;"/></g><g id="actual-button" serif:id="actual button"></g></svg>